<svg width="44" height="44" viewBox="0 0 44 44" fill="none" xmlns="http://www.w3.org/2000/svg">
<path fill-rule="evenodd" clip-rule="evenodd" d="M14.9393 20.9393C15.2206 20.658 15.6022 20.5 16 20.5C16.3978 20.5 16.7794 20.658 17.0607 20.9393C17.342 21.2206 17.5 21.6022 17.5 22C17.5 22.3978 17.342 22.7794 17.0607 23.0607C16.7794 23.342 16.3978 23.5 16 23.5C15.6022 23.5 15.2206 23.342 14.9393 23.0607C14.658 22.7794 14.5 22.3978 14.5 22C14.5 21.6022 14.658 21.2206 14.9393 20.9393ZM20.9393 20.9393C21.2206 20.658 21.6022 20.5 22 20.5C22.3978 20.5 22.7794 20.658 23.0607 20.9393C23.342 21.2206 23.5 21.6022 23.5 22C23.5 22.3978 23.342 22.7794 23.0607 23.0607C22.7794 23.342 22.3978 23.5 22 23.5C21.6022 23.5 21.2206 23.342 20.9393 23.0607C20.658 22.7794 20.5 22.3978 20.5 22C20.5 21.6022 20.658 21.2206 20.9393 20.9393ZM26.9393 20.9393C27.2206 20.658 27.6022 20.5 28 20.5C28.3978 20.5 28.7794 20.658 29.0607 20.9393C29.342 21.2206 29.5 21.6022 29.5 22C29.5 22.3978 29.342 22.7794 29.0607 23.0607C28.7794 23.342 28.3978 23.5 28 23.5C27.6022 23.5 27.2206 23.342 26.9393 23.0607C26.658 22.7794 26.5 22.3978 26.5 22C26.5 21.6022 26.658 21.2206 26.9393 20.9393Z" fill="#245B99"/>
</svg>
