<svg width="24" height="20" viewBox="0 0 24 20" fill="none" xmlns="http://www.w3.org/2000/svg">
<path d="M4.26056 8.14619C3.98551 10.2518 3.82162 12.3704 3.76956 14.4932C6.64837 15.6957 9.40474 17.1725 12.0006 18.9032C14.5967 17.1725 17.3534 15.6956 20.2326 14.4932C20.1805 12.3704 20.0166 10.2518 19.7416 8.14619M19.7416 8.14619C20.6166 7.85219 21.5036 7.58019 22.3996 7.33219C19.1361 5.04444 15.6525 3.08808 12.0006 1.49219C8.34856 3.08841 4.86496 5.04511 1.60156 7.33319C2.49483 7.57981 3.38117 7.85092 4.25956 8.14619C6.92818 9.0434 9.51746 10.1613 12.0006 11.4882C14.4833 10.1612 17.0733 9.04338 19.7416 8.14619ZM6.75056 12.9992C6.94948 12.9992 7.14024 12.9202 7.28089 12.7795C7.42155 12.6389 7.50056 12.4481 7.50056 12.2492C7.50056 12.0503 7.42155 11.8595 7.28089 11.7189C7.14024 11.5782 6.94948 11.4992 6.75056 11.4992C6.55165 11.4992 6.36088 11.5782 6.22023 11.7189C6.07958 11.8595 6.00056 12.0503 6.00056 12.2492C6.00056 12.4481 6.07958 12.6389 6.22023 12.7795C6.36088 12.9202 6.55165 12.9992 6.75056 12.9992ZM6.75056 12.9992V9.32419C8.4473 8.26953 10.1999 7.30745 12.0006 6.44219M4.99356 17.9922C5.55153 17.4356 5.994 16.7742 6.29553 16.046C6.59705 15.3179 6.75169 14.5373 6.75056 13.7492V12.2492" stroke="#425366" stroke-width="1.5" stroke-linecap="round" stroke-linejoin="round"/>
</svg>
