<svg width="64" height="64" viewBox="0 0 64 64" fill="none" xmlns="http://www.w3.org/2000/svg">
<rect width="64" height="64" rx="32" fill="#3D993F" fill-opacity="0.06"/>
<path d="M29.375 15.75H21.875C20.84 15.75 20 16.59 20 17.625V46.375C20 47.41 20.84 48.25 21.875 48.25H43.125C44.16 48.25 45 47.41 45 46.375V31.375M29.375 15.75H30C33.9782 15.75 37.7936 17.3304 40.6066 20.1434C43.4196 22.9564 45 26.7718 45 30.75V31.375M29.375 15.75C30.8668 15.75 32.2976 16.3426 33.3525 17.3975C34.4074 18.4524 35 19.8832 35 21.375V23.875C35 24.91 35.84 25.75 36.875 25.75H39.375C40.8668 25.75 42.2976 26.3426 43.3525 27.3975C44.4074 28.4524 45 29.8832 45 31.375M27.5 37L31.25 40.75L37.5 32" stroke="#3D993F" stroke-width="2.5" stroke-linecap="round" stroke-linejoin="round"/>
</svg>
