<svg width="36" height="36" viewBox="0 0 36 36" fill="none" xmlns="http://www.w3.org/2000/svg">
<rect width="36" height="36" rx="6" fill="#005EC1" fill-opacity="0.07"/>
<path fill-rule="evenodd" clip-rule="evenodd" d="M18 11.25C16.2098 11.25 14.4929 11.9612 13.227 13.227C11.9612 14.4929 11.25 16.2098 11.25 18C11.25 18.8864 11.4246 19.7642 11.7638 20.5831C12.103 21.4021 12.6002 22.1462 13.227 22.773C13.8538 23.3998 14.5979 23.897 15.4169 24.2362C16.2358 24.5754 17.1136 24.75 18 24.75C18.8864 24.75 19.7642 24.5754 20.5831 24.2362C21.4021 23.897 22.1462 23.3998 22.773 22.773C23.3998 22.1462 23.897 21.4021 24.2362 20.5831C24.5754 19.7642 24.75 18.8864 24.75 18C24.75 16.2098 24.0388 14.4929 22.773 13.227C21.5071 11.9612 19.7902 11.25 18 11.25ZM12.1664 12.1664C13.7135 10.6192 15.812 9.75 18 9.75C20.188 9.75 22.2865 10.6192 23.8336 12.1664C25.3808 13.7135 26.25 15.812 26.25 18C26.25 19.0834 26.0366 20.1562 25.622 21.1571C25.2074 22.1581 24.5997 23.0675 23.8336 23.8336C23.0675 24.5997 22.1581 25.2074 21.1571 25.622C20.1562 26.0366 19.0834 26.25 18 26.25C16.9166 26.25 15.8438 26.0366 14.8429 25.622C13.8419 25.2074 12.9325 24.5997 12.1664 23.8336C11.4003 23.0675 10.7926 22.1581 10.378 21.1571C9.96339 20.1562 9.75 19.0834 9.75 18C9.75 15.812 10.6192 13.7135 12.1664 12.1664ZM20.9359 15.5147C21.273 15.7555 21.3511 16.2239 21.1103 16.5609L17.9853 20.9359C17.8572 21.1153 17.6566 21.2293 17.4369 21.2474C17.2171 21.2656 17.0006 21.1862 16.8447 21.0303L14.9697 19.1553C14.6768 18.8624 14.6768 18.3876 14.9697 18.0947C15.2626 17.8018 15.7374 17.8018 16.0303 18.0947L17.2793 19.3436L19.8897 15.6891C20.1305 15.352 20.5989 15.2739 20.9359 15.5147Z" fill="#245B99"/>
</svg>
