<svg width="20" height="20" viewBox="0 0 20 20" fill="none" xmlns="http://www.w3.org/2000/svg">
<path fill-rule="evenodd" clip-rule="evenodd" d="M10 3.99971C9.00545 3.99971 8.05162 4.39479 7.34836 5.09805C6.6451 5.80132 6.25001 6.75514 6.25001 7.74971C6.25001 8.74427 6.6451 9.69809 7.34836 10.4014C8.05162 11.1046 9.00545 11.4997 10 11.4997C10.9946 11.4997 11.9484 11.1046 12.6517 10.4014C13.3549 9.69809 13.75 8.74427 13.75 7.74971C13.75 6.75514 13.3549 5.80132 12.6517 5.09805C11.9484 4.39479 10.9946 3.99971 10 3.99971ZM10 5.49971C9.40328 5.49971 8.83098 5.73676 8.40902 6.15871C7.98707 6.58067 7.75001 7.15297 7.75001 7.74971C7.75001 8.34644 7.98707 8.91874 8.40902 9.3407C8.83098 9.76265 9.40328 9.99971 10 9.99971C10.5968 9.99971 11.169 9.76265 11.591 9.3407C12.013 8.91874 12.25 8.34644 12.25 7.74971C12.25 7.15297 12.013 6.58067 11.591 6.15871C11.169 5.73676 10.5968 5.49971 10 5.49971Z" fill="#245B99"/>
<path fill-rule="evenodd" clip-rule="evenodd" d="M9.99951 0.25C8.0226 0.25 6.0924 0.85095 4.46488 1.97315C2.83735 3.09536 1.58941 4.68579 0.886551 6.53353C0.18369 8.38128 0.0591191 10.399 0.529359 12.3192C0.999515 14.239 2.04206 15.9706 3.51878 17.2844C5.30244 18.8754 7.60995 19.7531 10.0001 19.7497C12.3897 19.7528 14.6978 18.8752 16.4813 17.2844C17.9582 15.9704 18.9996 14.2388 19.4697 12.3192C19.9399 10.399 19.8153 8.38128 19.1125 6.53353C18.4096 4.68579 17.1617 3.09536 15.5342 1.97315C13.9066 0.85095 11.9764 0.25 9.99951 0.25ZM14.9185 16.6251C14.3721 16.0433 13.7253 15.5617 13.0072 15.2046C12.0731 14.7401 11.0439 14.4988 10.0007 14.4997H9.99933C8.9561 14.4988 7.9269 14.7401 6.9928 15.2046C6.27472 15.5617 5.62792 16.0433 5.08152 16.6251C6.49737 17.6787 8.22112 18.2524 9.99886 18.2497H10.0011C11.7786 18.2522 13.5027 17.6785 14.9185 16.6251ZM5.31636 3.20805C6.69349 2.2585 8.32674 1.75 9.99951 1.75C11.6723 1.75 13.3055 2.2585 14.6827 3.20805C16.0598 4.15761 17.1158 5.50336 17.7105 7.06683C18.3052 8.63031 18.4106 10.3376 18.0127 11.9624C17.6763 13.3362 16.9942 14.5959 16.0362 15.6242C15.3631 14.9012 14.5638 14.3035 13.6752 13.8615C12.5335 13.2938 11.2757 12.9988 10.0007 12.9997C8.72522 12.9985 7.4669 13.2936 6.32486 13.8615C5.43624 14.3035 4.63691 14.9013 3.96378 15.6243C3.00544 14.5958 2.32271 13.3361 1.98631 11.9624C1.58841 10.3376 1.69382 8.63031 2.28855 7.06683C2.88327 5.50336 3.93922 4.15761 5.31636 3.20805Z" fill="#245B99"/>
</svg>
