<svg width="18" height="18" viewBox="0 0 18 18" fill="none" xmlns="http://www.w3.org/2000/svg">
<path fill-rule="evenodd" clip-rule="evenodd" d="M9 2.25C7.20979 2.25 5.4929 2.96116 4.22703 4.22703C2.96116 5.4929 2.25 7.20979 2.25 9C2.25 9.88642 2.42459 10.7642 2.76381 11.5831C3.10303 12.4021 3.60023 13.1462 4.22703 13.773C4.85382 14.3998 5.59794 14.897 6.41689 15.2362C7.23583 15.5754 8.11358 15.75 9 15.75C9.88642 15.75 10.7642 15.5754 11.5831 15.2362C12.4021 14.897 13.1462 14.3998 13.773 13.773C14.3998 13.1462 14.897 12.4021 15.2362 11.5831C15.5754 10.7642 15.75 9.88642 15.75 9C15.75 7.20979 15.0388 5.4929 13.773 4.22703C12.5071 2.96116 10.7902 2.25 9 2.25ZM3.16637 3.16637C4.71354 1.61919 6.81196 0.75 9 0.75C11.188 0.75 13.2865 1.61919 14.8336 3.16637C16.3808 4.71354 17.25 6.81196 17.25 9C17.25 10.0834 17.0366 11.1562 16.622 12.1571C16.2074 13.1581 15.5997 14.0675 14.8336 14.8336C14.0675 15.5997 13.1581 16.2074 12.1571 16.622C11.1562 17.0366 10.0834 17.25 9 17.25C7.91659 17.25 6.8438 17.0366 5.84286 16.622C4.84192 16.2074 3.93245 15.5997 3.16637 14.8336C2.40029 14.0675 1.7926 13.1581 1.37799 12.1571C0.963392 11.1562 0.75 10.0834 0.75 9C0.75 6.81196 1.61919 4.71354 3.16637 3.16637ZM11.9359 6.5147C12.273 6.75546 12.3511 7.22387 12.1103 7.56093L8.9853 11.9359C8.85716 12.1153 8.65657 12.2293 8.43686 12.2474C8.21715 12.2656 8.00056 12.1862 7.84467 12.0303L5.96967 10.1553C5.67678 9.86244 5.67678 9.38756 5.96967 9.09467C6.26256 8.80178 6.73744 8.80178 7.03033 9.09467L8.2793 10.3436L10.8897 6.68907C11.1305 6.35201 11.5989 6.27394 11.9359 6.5147Z" fill="#425366"/>
</svg>
