<svg width="14" height="14" viewBox="0 0 14 14" fill="none" xmlns="http://www.w3.org/2000/svg">
<path fill-rule="evenodd" clip-rule="evenodd" d="M7 1.75C5.60761 1.75 4.27226 2.30312 3.28769 3.28769C2.30312 4.27226 1.75 5.60761 1.75 7C1.75 7.68944 1.8858 8.37213 2.14963 9.00909C2.41347 9.64605 2.80018 10.2248 3.28769 10.7123C3.7752 11.1998 4.35395 11.5865 4.99091 11.8504C5.62787 12.1142 6.31056 12.25 7 12.25C7.68944 12.25 8.37213 12.1142 9.00909 11.8504C9.64605 11.5865 10.2248 11.1998 10.7123 10.7123C11.1998 10.2248 11.5865 9.64605 11.8504 9.00909C12.1142 8.37213 12.25 7.68944 12.25 7C12.25 5.60761 11.6969 4.27226 10.7123 3.28769C9.72774 2.30312 8.39239 1.75 7 1.75ZM2.22703 2.22703C3.4929 0.961159 5.20979 0.25 7 0.25C8.79021 0.25 10.5071 0.961159 11.773 2.22703C13.0388 3.4929 13.75 5.20979 13.75 7C13.75 7.88642 13.5754 8.76417 13.2362 9.58311C12.897 10.4021 12.3998 11.1462 11.773 11.773C11.1462 12.3998 10.4021 12.897 9.58311 13.2362C8.76417 13.5754 7.88642 13.75 7 13.75C6.11358 13.75 5.23584 13.5754 4.41689 13.2362C3.59794 12.897 2.85382 12.3998 2.22703 11.773C1.60023 11.1462 1.10303 10.4021 0.763813 9.58311C0.424594 8.76417 0.25 7.88642 0.25 7C0.25 5.20979 0.961159 3.4929 2.22703 2.22703ZM7 2.25C7.41421 2.25 7.75 2.58579 7.75 3V6.25H10C10.4142 6.25 10.75 6.58579 10.75 7C10.75 7.41421 10.4142 7.75 10 7.75H7C6.58579 7.75 6.25 7.41421 6.25 7V3C6.25 2.58579 6.58579 2.25 7 2.25Z" fill="black"/>
</svg>
