<svg width="24" height="24" viewBox="0 0 24 24" fill="none" xmlns="http://www.w3.org/2000/svg">
<rect width="24" height="24" rx="8" fill="black" fill-opacity="0.3"/>
<path fill-rule="evenodd" clip-rule="evenodd" d="M16.9497 7.05131C17.2426 7.3442 17.2426 7.81908 16.9497 8.11197L13.0607 12.0011L16.9497 15.8901C17.2426 16.183 17.2426 16.6579 16.9497 16.9508C16.6569 17.2437 16.182 17.2437 15.8891 16.9508L12 13.0617L8.11091 16.9508C7.81802 17.2437 7.34314 17.2437 7.05025 16.9508C6.75736 16.6579 6.75736 16.183 7.05025 15.8901L10.9393 12.0011L7.05025 8.11197C6.75736 7.81908 6.75736 7.3442 7.05025 7.05131C7.34315 6.75842 7.81802 6.75842 8.11091 7.05131L12 10.9404L15.8891 7.05131C16.182 6.75842 16.6569 6.75842 16.9497 7.05131Z" fill="white"/>
</svg>
