<svg width="61" height="61" viewBox="0 0 61 61" fill="none" xmlns="http://www.w3.org/2000/svg">
<rect x="0.5" y="0.5" width="60" height="60" rx="30" fill="#EBF0F5"/>
<path fill-rule="evenodd" clip-rule="evenodd" d="M30.5 18C22.8024 18 16.75 23.6972 16.75 30.5C16.75 33.7816 18.1417 36.7815 20.45 39.0274L20.4501 39.0275C21.1782 39.736 21.8448 40.8793 21.5831 42.2082L21.5827 42.2104C21.4426 42.9152 21.2165 43.597 20.9114 44.2413C22.5584 44.1663 24.1598 43.6244 25.5226 42.6659C25.8261 42.4524 26.2089 42.3848 26.5672 42.4815C27.849 42.8273 29.1709 43.0016 30.4985 43L30.5 43C38.1976 43 44.25 37.3028 44.25 30.5C44.25 23.6972 38.1976 18 30.5 18ZM19.3939 46.694C19.0969 46.6652 18.8011 46.6246 18.5073 46.5723C18.0669 46.4938 17.702 46.1859 17.5505 45.7649C17.399 45.3439 17.4841 44.8741 17.7735 44.5329C18.4575 43.7269 18.9245 42.7598 19.1307 41.7229L20.3567 41.9667L19.1302 41.7251C19.1685 41.5307 19.0918 41.194 18.7066 40.8192C15.9582 38.1451 14.25 34.515 14.25 30.5C14.25 22.1161 21.6309 15.5 30.5 15.5C39.3691 15.5 46.75 22.1161 46.75 30.5C46.75 38.8834 39.3699 45.4992 30.5015 45.5M19.3939 46.694C21.8775 46.9439 24.3676 46.3569 26.4724 45.0355C27.7918 45.3455 29.1434 45.5015 30.5 45.5M22.9242 29.1742C23.2758 28.8225 23.7527 28.625 24.25 28.625C24.7473 28.625 25.2242 28.8225 25.5758 29.1742C25.9275 29.5258 26.125 30.0027 26.125 30.5C26.125 30.9973 25.9275 31.4742 25.5758 31.8258C25.2242 32.1775 24.7473 32.375 24.25 32.375C23.7527 32.375 23.2758 32.1775 22.9242 31.8258C22.5725 31.4742 22.375 30.9973 22.375 30.5C22.375 30.0027 22.5725 29.5258 22.9242 29.1742ZM29.1742 29.1742C29.5258 28.8225 30.0027 28.625 30.5 28.625C30.9973 28.625 31.4742 28.8225 31.8258 29.1742C32.1775 29.5258 32.375 30.0027 32.375 30.5C32.375 30.9973 32.1775 31.4742 31.8258 31.8258C31.4742 32.1775 30.9973 32.375 30.5 32.375C30.0027 32.375 29.5258 32.1775 29.1742 31.8258C28.8225 31.4742 28.625 30.9973 28.625 30.5C28.625 30.0027 28.8225 29.5258 29.1742 29.1742ZM35.4242 29.1742C35.7758 28.8225 36.2527 28.625 36.75 28.625C37.2473 28.625 37.7242 28.8225 38.0758 29.1742C38.4275 29.5258 38.625 30.0027 38.625 30.5C38.625 30.9973 38.4275 31.4742 38.0758 31.8258C37.7242 32.1775 37.2473 32.375 36.75 32.375C36.2527 32.375 35.7758 32.1775 35.4242 31.8258C35.0725 31.4742 34.875 30.9973 34.875 30.5C34.875 30.0027 35.0725 29.5258 35.4242 29.1742Z" fill="#425366"/>
</svg>
