<svg width="21" height="20" viewBox="0 0 21 20" fill="none" xmlns="http://www.w3.org/2000/svg">
<path d="M10.2499 5C10.2499 5.39397 10.1723 5.78407 10.0216 6.14805C9.87081 6.51203 9.64983 6.84274 9.37126 7.12132C9.09268 7.3999 8.76196 7.62087 8.39799 7.77164C8.03401 7.9224 7.6439 8 7.24994 8C6.85597 8 6.46586 7.9224 6.10188 7.77164C5.73791 7.62087 5.40719 7.3999 5.12861 7.12132C4.85004 6.84274 4.62906 6.51203 4.4783 6.14805C4.32753 5.78407 4.24993 5.39397 4.24993 5C4.24993 4.20435 4.56601 3.44129 5.12861 2.87868C5.69122 2.31607 6.45429 2 7.24994 2C8.04558 2 8.80865 2.31607 9.37126 2.87868C9.93386 3.44129 10.2499 4.20435 10.2499 5ZM1.86493 16.428C1.66887 16.3058 1.51139 16.1306 1.4107 15.9227C1.31001 15.7148 1.27022 15.4826 1.29593 15.253C1.48029 13.8041 2.18668 12.4721 3.28275 11.5066C4.37881 10.5412 5.78931 10.0086 7.24994 10.0086C8.71056 10.0086 10.1211 10.5412 11.2171 11.5066C12.3132 12.4721 13.0196 13.8041 13.2039 15.253C13.2619 15.72 13.0319 16.173 12.6339 16.427C11.0272 17.4566 9.15829 18.0027 7.24994 18C5.34134 18.0032 3.47208 17.4575 1.86493 16.428Z" fill="#245B99"/>
<path fill-rule="evenodd" clip-rule="evenodd" d="M19.7803 4.46967C20.0732 4.76256 20.0732 5.23744 19.7803 5.53033L15.7803 9.53033C15.4874 9.82322 15.0126 9.82322 14.7197 9.53033L12.7197 7.53033C12.4268 7.23744 12.4268 6.76256 12.7197 6.46967C13.0126 6.17678 13.4874 6.17678 13.7803 6.46967L15.25 7.93934L18.7197 4.46967C19.0126 4.17678 19.4874 4.17678 19.7803 4.46967Z" fill="#245B99"/>
</svg>
