<svg width="21" height="20" viewBox="0 0 21 20" fill="none" xmlns="http://www.w3.org/2000/svg">
<path d="M10.2502 5C10.2502 5.39397 10.1726 5.78407 10.0218 6.14805C9.87105 6.51203 9.65008 6.84274 9.3715 7.12132C9.09292 7.3999 8.76221 7.62087 8.39823 7.77164C8.03425 7.9224 7.64415 8 7.25018 8C6.85621 8 6.46611 7.9224 6.10213 7.77164C5.73815 7.62087 5.40743 7.3999 5.12886 7.12132C4.85028 6.84274 4.6293 6.51203 4.47854 6.14805C4.32778 5.78407 4.25018 5.39397 4.25018 5C4.25018 4.20435 4.56625 3.44129 5.12886 2.87868C5.69147 2.31607 6.45453 2 7.25018 2C8.04583 2 8.80889 2.31607 9.3715 2.87868C9.93411 3.44129 10.2502 4.20435 10.2502 5ZM1.86518 16.428C1.66912 16.3058 1.51164 16.1306 1.41095 15.9227C1.31026 15.7148 1.27047 15.4826 1.29618 15.253C1.48053 13.8041 2.18693 12.4721 3.28299 11.5066C4.37905 10.5412 5.78955 10.0086 7.25018 10.0086C8.7108 10.0086 10.1213 10.5412 11.2174 11.5066C12.3134 12.4721 13.0198 13.8041 13.2042 15.253C13.2622 15.72 13.0322 16.173 12.6342 16.427C11.0274 17.4566 9.15854 18.0027 7.25018 18C5.34158 18.0032 3.47233 17.4575 1.86518 16.428ZM16.5002 5.75C16.5002 5.55109 16.4212 5.36032 16.2805 5.21967C16.1399 5.07902 15.9491 5 15.7502 5C15.5513 5 15.3605 5.07902 15.2198 5.21967C15.0792 5.36032 15.0002 5.55109 15.0002 5.75V7.75H13.0002C12.8013 7.75 12.6105 7.82902 12.4698 7.96967C12.3292 8.11032 12.2502 8.30109 12.2502 8.5C12.2502 8.69891 12.3292 8.88968 12.4698 9.03033C12.6105 9.17098 12.8013 9.25 13.0002 9.25H15.0002V11.25C15.0002 11.4489 15.0792 11.6397 15.2198 11.7803C15.3605 11.921 15.5513 12 15.7502 12C15.9491 12 16.1399 11.921 16.2805 11.7803C16.4212 11.6397 16.5002 11.4489 16.5002 11.25V9.25H18.5002C18.6991 9.25 18.8899 9.17098 19.0305 9.03033C19.1712 8.88968 19.2502 8.69891 19.2502 8.5C19.2502 8.30109 19.1712 8.11032 19.0305 7.96967C18.8899 7.82902 18.6991 7.75 18.5002 7.75H16.5002V5.75Z" fill="white"/>
</svg>
