<svg width="36" height="36" viewBox="0 0 36 36" fill="none" xmlns="http://www.w3.org/2000/svg">
<rect width="36" height="36" rx="6" fill="white" fill-opacity="0.05"/>
<path fill-rule="evenodd" clip-rule="evenodd" d="M19.4074 9.14748C18.4695 9.11751 17.5309 9.11751 16.5929 9.14748C15.1614 9.19261 14.1251 10.4147 14.1251 11.8063C13.3695 11.8778 12.6159 11.9703 11.8654 12.0838C11.5745 12.1271 11.2856 12.1739 10.9969 12.224C10.5888 12.2948 10.3153 12.6831 10.3862 13.0912C10.457 13.4993 10.8452 13.7727 11.2534 13.7019L11.2915 13.6953L12.119 24.4521C12.1699 25.1116 12.4678 25.7276 12.9532 26.1769C13.4385 26.6261 14.0755 26.8756 14.7368 26.8754H21.2635C21.9248 26.8756 22.5618 26.6261 23.0471 26.1769C23.5325 25.7276 23.8304 25.1116 23.8812 24.4521L24.7087 13.6961L24.7469 13.7027C25.155 13.7735 25.5433 13.5001 25.6141 13.092C25.6849 12.6839 25.4115 12.2956 25.0034 12.2248C24.7144 12.1747 24.4252 12.1279 24.1356 12.0839C23.3848 11.9704 22.631 11.8778 21.8751 11.8063V11.7313C21.8751 10.363 20.815 9.19187 19.4074 9.14748ZM21.0673 13.2424C21.7875 13.2981 22.5059 13.3737 23.2217 13.469L22.3857 24.3369C22.3639 24.6195 22.2362 24.8835 22.0282 25.0761C21.8202 25.2686 21.5471 25.3755 21.2637 25.3754H14.7368C14.4533 25.3755 14.1801 25.2686 13.9721 25.0761C13.7641 24.8835 13.6364 24.6196 13.6146 24.3371L12.7785 13.469C13.4944 13.3737 14.2128 13.2981 14.9329 13.2424C16.9746 13.0846 19.0256 13.0846 21.0673 13.2424ZM15.6258 11.6923C17.2074 11.6013 18.7929 11.6013 20.3745 11.6923C20.3552 11.1128 19.9066 10.6639 19.36 10.6467C18.4539 10.6178 17.5468 10.6178 16.6407 10.6467C16.0943 10.6639 15.6451 11.1134 15.6258 11.6923Z" fill="white"/>
<path d="M21.0329 15.5292C21.0488 15.1153 20.7262 14.7669 20.3123 14.751C19.8984 14.7351 19.5499 15.0577 19.534 15.4716L19.2457 22.9716C19.2298 23.3855 19.5524 23.734 19.9663 23.7499C20.3802 23.7658 20.7287 23.4432 20.7446 23.0292L21.0329 15.5292Z" fill="white"/>
<path d="M16.4662 15.4716C16.4503 15.0577 16.1019 14.7351 15.688 14.751C15.2741 14.7669 14.9514 15.1153 14.9673 15.5292L15.2557 23.0292C15.2716 23.4432 15.62 23.7658 16.0339 23.7499C16.4478 23.734 16.7705 23.3855 16.7546 22.9716L16.4662 15.4716Z" fill="white"/>
</svg>
