<svg width="64" height="64" viewBox="0 0 64 64" fill="none" xmlns="http://www.w3.org/2000/svg">
<rect width="64" height="64" rx="32" fill="#EBF0F5"/>
<path d="M42.6068 42.6068C45.4198 39.7937 47.0002 35.9784 47.0002 32.0001C47.0002 28.0218 45.4198 24.2065 42.6068 21.3934C39.7937 18.5804 35.9784 17 32.0001 17C28.0218 17 24.2065 18.5804 21.3934 21.3934M42.6068 42.6068C39.7937 45.4198 35.9784 47.0002 32.0001 47.0002C28.0218 47.0002 24.2065 45.4198 21.3934 42.6068C18.5804 39.7937 17 35.9784 17 32.0001C17 28.0218 18.5804 24.2065 21.3934 21.3934M42.6068 42.6068L21.3934 21.3934" stroke="#425366" stroke-width="2.5" stroke-linecap="round" stroke-linejoin="round"/>
</svg>
