<svg width="21" height="21" viewBox="0 0 21 21" fill="none" xmlns="http://www.w3.org/2000/svg">
<path fill-rule="evenodd" clip-rule="evenodd" d="M17.875 2C17.5766 2 17.2904 2.11855 17.0793 2.32958L15.9225 3.48709L17.5135 5.07809L18.6707 3.92092C18.8817 3.70989 19.0002 3.42368 19.0002 3.12525C19.0002 2.82681 18.8817 2.5406 18.6707 2.32958C18.4596 2.11855 18.1734 2 17.875 2ZM16.4528 6.13875L14.862 4.54788L6.46049 12.9484C6.46042 12.9485 6.46055 12.9484 6.46049 12.9484C6.02028 13.389 5.69653 13.9324 5.51882 14.5293L5.11471 15.8855L6.47084 15.4815C7.06774 15.3038 7.61113 14.9801 8.05167 14.5399C8.05162 14.54 8.05172 14.5399 8.05167 14.5399L16.4528 6.13875ZM16.0185 1.26907C16.5108 0.776745 17.1787 0.5 17.875 0.5C18.5713 0.5 19.239 0.776588 19.7313 1.26892C20.2237 1.76125 20.5002 2.42899 20.5002 3.12525C20.5002 3.82151 20.2237 4.48925 19.7313 4.98158L9.11233 15.6006C8.49558 16.217 7.73486 16.6702 6.89916 16.919C6.89911 16.919 6.89921 16.919 6.89916 16.919L4.21416 17.719C3.95022 17.7977 3.66441 17.7253 3.46967 17.5306C3.27493 17.3358 3.20259 17.05 3.28123 16.7861L4.08118 14.1012C4.08117 14.1013 4.0812 14.1012 4.08118 14.1012C4.33002 13.2655 4.78313 12.5048 5.39951 11.8881L16.0185 1.26907ZM3.25 5.75025C2.85218 5.75025 2.47064 5.90828 2.18934 6.18959C1.90804 6.47089 1.75 6.85242 1.75 7.25025V17.7502C1.75 18.1481 1.90804 18.5296 2.18934 18.8109C2.47064 19.0922 2.85218 19.2502 3.25 19.2502H13.75C14.1478 19.2502 14.5294 19.0922 14.8107 18.8109C15.092 18.5296 15.25 18.1481 15.25 17.7502V13.0002C15.25 12.586 15.5858 12.2502 16 12.2502C16.4142 12.2502 16.75 12.586 16.75 13.0002V17.7502C16.75 18.5459 16.4339 19.309 15.8713 19.8716C15.3087 20.4342 14.5456 20.7502 13.75 20.7502H3.25C2.45435 20.7502 1.69129 20.4342 1.12868 19.8716C0.566071 19.309 0.25 18.5459 0.25 17.7502V7.25025C0.25 6.4546 0.566071 5.69154 1.12868 5.12893C1.69129 4.56632 2.45435 4.25025 3.25 4.25025H8C8.41421 4.25025 8.75 4.58603 8.75 5.00025C8.75 5.41446 8.41421 5.75025 8 5.75025H3.25Z" fill="#245B99"/>
</svg>
