<svg width="20" height="20" viewBox="0 0 20 20" fill="none" xmlns="http://www.w3.org/2000/svg">
<path d="M5.43424 13.9152L6.69624 10.7602C6.89739 10.2576 7.19847 9.80106 7.58124 9.41823L14.5012 2.50023C14.8991 2.1024 15.4386 1.87891 16.0012 1.87891C16.5639 1.87891 17.1034 2.1024 17.5012 2.50023C17.8991 2.89805 18.1226 3.43762 18.1226 4.00023C18.1226 4.56284 17.8991 5.1024 17.5012 5.50023L10.5812 12.4182C10.1982 12.8012 9.74124 13.1032 9.23824 13.3042L6.08424 14.5662C5.99338 14.6026 5.89384 14.6115 5.79796 14.5918C5.70209 14.5722 5.61409 14.5248 5.54488 14.4556C5.47568 14.3864 5.4283 14.2984 5.40864 14.2025C5.38897 14.1066 5.39787 14.0071 5.43424 13.9162V13.9152Z" fill="#004A99"/>
<path d="M3.5 5.75C3.5 5.06 4.06 4.5 4.75 4.5H10C10.1989 4.5 10.3897 4.42098 10.5303 4.28033C10.671 4.13968 10.75 3.94891 10.75 3.75C10.75 3.55109 10.671 3.36032 10.5303 3.21967C10.3897 3.07902 10.1989 3 10 3H4.75C4.02065 3 3.32118 3.28973 2.80546 3.80546C2.28973 4.32118 2 5.02065 2 5.75V15.25C2 15.9793 2.28973 16.6788 2.80546 17.1945C3.32118 17.7103 4.02065 18 4.75 18H14.25C14.9793 18 15.6788 17.7103 16.1945 17.1945C16.7103 16.6788 17 15.9793 17 15.25V10C17 9.80109 16.921 9.61032 16.7803 9.46967C16.6397 9.32902 16.4489 9.25 16.25 9.25C16.0511 9.25 15.8603 9.32902 15.7197 9.46967C15.579 9.61032 15.5 9.80109 15.5 10V15.25C15.5 15.94 14.94 16.5 14.25 16.5H4.75C4.06 16.5 3.5 15.94 3.5 15.25V5.75Z" fill="#004A99"/>
</svg>
