<svg width="24" height="24" viewBox="0 0 24 24" fill="none" xmlns="http://www.w3.org/2000/svg">
<path d="M1.5 8.67188V17.2519C1.5 18.0475 1.81607 18.8106 2.37868 19.3732C2.94129 19.9358 3.70435 20.2519 4.5 20.2519H19.5C20.2956 20.2519 21.0587 19.9358 21.6213 19.3732C22.1839 18.8106 22.5 18.0475 22.5 17.2519V8.67188L13.572 14.1649C13.0992 14.4557 12.5551 14.6097 12 14.6097C11.4449 14.6097 10.9008 14.4557 10.428 14.1649L1.5 8.67188Z" fill="#245B99"/>
<path d="M22.5 6.908V6.75C22.5 5.95435 22.1839 5.19129 21.6213 4.62868C21.0587 4.06607 20.2956 3.75 19.5 3.75H4.5C3.70435 3.75 2.94129 4.06607 2.37868 4.62868C1.81607 5.19129 1.5 5.95435 1.5 6.75V6.908L11.214 12.886C11.4504 13.0314 11.7225 13.1084 12 13.1084C12.2775 13.1084 12.5496 13.0314 12.786 12.886L22.5 6.908Z" fill="#245B99"/>
</svg>
