<svg width="41" height="40" viewBox="0 0 41 40" fill="none" xmlns="http://www.w3.org/2000/svg">
<path fill-rule="evenodd" clip-rule="evenodd" d="M20.5 7.5C12.8024 7.5 6.75 13.1972 6.75 20C6.75 23.2816 8.14174 26.2815 10.45 28.5274L10.4501 28.5275C11.1782 29.236 11.8448 30.3793 11.5831 31.7082L11.5827 31.7104C11.4426 32.4152 11.2165 33.097 10.9114 33.7413C12.5584 33.6663 14.1598 33.1244 15.5226 32.1659C15.8261 31.9524 16.2089 31.8848 16.5672 31.9815C17.849 32.3273 19.1709 32.5016 20.4985 32.5L20.5 32.5C28.1976 32.5 34.25 26.8028 34.25 20C34.25 13.1972 28.1976 7.5 20.5 7.5ZM9.39392 36.194C9.0969 36.1652 8.80114 36.1246 8.50735 36.0723C8.06689 35.9938 7.70197 35.6859 7.55049 35.2649C7.39901 34.8439 7.48408 34.3741 7.77354 34.0329C8.45746 33.2269 8.92455 32.2598 9.13066 31.2229L10.3567 31.4667L9.13022 31.2251C9.16851 31.0307 9.09182 30.694 8.7066 30.3192C5.95824 27.6451 4.25 24.015 4.25 20C4.25 11.6161 11.6309 5 20.5 5C29.3691 5 36.75 11.6161 36.75 20C36.75 28.3834 29.3699 34.9992 20.5015 35M9.39392 36.194C11.8775 36.4439 14.3676 35.8569 16.4724 34.5355C17.7918 34.8455 19.1434 35.0015 20.5 35M12.9242 18.6742C13.2758 18.3225 13.7527 18.125 14.25 18.125C14.7473 18.125 15.2242 18.3225 15.5758 18.6742C15.9275 19.0258 16.125 19.5027 16.125 20C16.125 20.4973 15.9275 20.9742 15.5758 21.3258C15.2242 21.6775 14.7473 21.875 14.25 21.875C13.7527 21.875 13.2758 21.6775 12.9242 21.3258C12.5725 20.9742 12.375 20.4973 12.375 20C12.375 19.5027 12.5725 19.0258 12.9242 18.6742ZM19.1742 18.6742C19.5258 18.3225 20.0027 18.125 20.5 18.125C20.9973 18.125 21.4742 18.3225 21.8258 18.6742C22.1775 19.0258 22.375 19.5027 22.375 20C22.375 20.4973 22.1775 20.9742 21.8258 21.3258C21.4742 21.6775 20.9973 21.875 20.5 21.875C20.0027 21.875 19.5258 21.6775 19.1742 21.3258C18.8225 20.9742 18.625 20.4973 18.625 20C18.625 19.5027 18.8225 19.0258 19.1742 18.6742ZM25.4242 18.6742C25.7758 18.3225 26.2527 18.125 26.75 18.125C27.2473 18.125 27.7242 18.3225 28.0758 18.6742C28.4275 19.0258 28.625 19.5027 28.625 20C28.625 20.4973 28.4275 20.9742 28.0758 21.3258C27.7242 21.6775 27.2473 21.875 26.75 21.875C26.2527 21.875 25.7758 21.6775 25.4242 21.3258C25.0725 20.9742 24.875 20.4973 24.875 20C24.875 19.5027 25.0725 19.0258 25.4242 18.6742Z" fill="#425366"/>
</svg>
