<svg width="24" height="25" viewBox="0 0 24 25" fill="none" xmlns="http://www.w3.org/2000/svg">
<path d="M2.03589 12.7341C1.96688 12.5267 1.96688 12.3025 2.03589 12.0951C3.42289 7.92211 7.35989 4.91211 11.9999 4.91211C16.6379 4.91211 20.5729 7.91911 21.9629 12.0901C22.0329 12.2971 22.0329 12.5211 21.9629 12.7291C20.5769 16.9021 16.6399 19.9121 11.9999 19.9121C7.36189 19.9121 3.42589 16.9051 2.03589 12.7341Z" stroke="#245B99" stroke-width="1.5" stroke-linecap="round" stroke-linejoin="round"/>
<path d="M15 12.4121C15 13.2078 14.6839 13.9708 14.1213 14.5334C13.5587 15.096 12.7956 15.4121 12 15.4121C11.2044 15.4121 10.4413 15.096 9.87868 14.5334C9.31607 13.9708 9 13.2078 9 12.4121C9 11.6165 9.31607 10.8534 9.87868 10.2908C10.4413 9.72818 11.2044 9.41211 12 9.41211C12.7956 9.41211 13.5587 9.72818 14.1213 10.2908C14.6839 10.8534 15 11.6165 15 12.4121Z" stroke="#245B99" stroke-width="1.5" stroke-linecap="round" stroke-linejoin="round"/>
</svg>
