<svg width="22" height="23" viewBox="0 0 22 23" fill="none" xmlns="http://www.w3.org/2000/svg">
<path fill-rule="evenodd" clip-rule="evenodd" d="M14.7783 1.75C13.9158 1.75 13.0886 2.09264 12.4787 2.70255L3.28867 11.8926C2.30347 12.8777 1.75 14.214 1.75 15.6072C1.75 17.0005 2.30347 18.3367 3.28867 19.3219C4.27386 20.3071 5.61007 20.8606 7.00334 20.8606C8.39661 20.8606 9.73281 20.3071 10.718 19.3219L19.908 10.1319C20.2009 9.839 20.6758 9.839 20.9687 10.1319C21.2616 10.4248 21.2616 10.8997 20.9687 11.1926L11.7787 20.3826C10.5122 21.649 8.79443 22.3606 7.00334 22.3606C5.21224 22.3606 3.4945 21.649 2.22801 20.3826C0.96151 19.1161 0.25 17.3983 0.25 15.6072C0.25 13.8161 0.96151 12.0984 2.22801 10.8319L11.418 1.64189C12.3092 0.750679 13.518 0.25 14.7783 0.25C16.0387 0.25 17.2475 0.750679 18.1387 1.64189C19.0299 2.53311 19.5306 3.74186 19.5306 5.00222C19.5306 6.26259 19.0299 7.47134 18.1387 8.36255L8.93867 17.5526C8.42273 18.0685 7.72298 18.3583 6.99334 18.3583C6.2637 18.3583 5.56394 18.0685 5.04801 17.5526C4.53207 17.0366 4.24222 16.3369 4.24222 15.6072C4.24222 14.8776 4.53207 14.1778 5.04801 13.6619L13.5383 5.18158C13.8314 4.88886 14.3063 4.88914 14.599 5.18221C14.8917 5.47527 14.8914 5.95015 14.5984 6.24287L6.10867 14.7226C6.10856 14.7227 6.10877 14.7225 6.10867 14.7226C5.87423 14.9572 5.74222 15.2756 5.74222 15.6072C5.74222 15.939 5.87404 16.2573 6.10867 16.4919C6.3433 16.7265 6.66152 16.8583 6.99334 16.8583C7.32515 16.8583 7.64338 16.7265 7.87801 16.4919L17.078 7.30189C17.6879 6.69198 18.0306 5.86477 18.0306 5.00222C18.0306 4.13968 17.6879 3.31246 17.078 2.70255C16.4681 2.09264 15.6409 1.75 14.7783 1.75Z" fill="#245B99"/>
</svg>
