<svg width="41" height="40" viewBox="0 0 41 40" fill="none" xmlns="http://www.w3.org/2000/svg">
<path d="M28.9316 25.8683C29.7112 25.3359 30.6257 25.0351 31.5692 25.0007C32.5126 24.9663 33.4466 25.1998 34.2629 25.674C35.0793 26.1483 35.7447 26.844 36.1821 27.6806C36.6196 28.5173 36.8112 29.4607 36.7349 30.4017C34.7352 31.1006 32.6112 31.3725 30.4999 31.2C30.4934 29.311 29.9494 27.4613 28.9316 25.87C28.0281 24.453 26.7818 23.2867 25.3079 22.4792C23.8341 21.6716 22.1804 21.2489 20.4999 21.25C18.8196 21.2491 17.1663 21.672 15.6928 22.4796C14.2193 23.2871 12.9732 24.4532 12.0699 25.87M30.4982 31.1983L30.4999 31.25C30.4999 31.625 30.4799 31.995 30.4382 32.36C27.4138 34.0952 23.9867 35.0056 20.4999 35C16.8832 35 13.4882 34.04 10.5616 32.36C10.5187 31.9743 10.4981 31.5864 10.4999 31.1983M10.4999 31.1983C8.38928 31.3771 6.26641 31.1061 4.26823 30.4033C4.19215 29.4626 4.38388 28.5195 4.82127 27.6832C5.25866 26.8468 5.92384 26.1513 6.7399 25.6771C7.55595 25.203 8.48955 24.9694 9.43276 25.0036C10.376 25.0377 11.2902 25.3381 12.0699 25.87M10.4999 31.1983C10.5059 29.3095 11.0526 27.4614 12.0699 25.87M25.4999 11.25C25.4999 12.5761 24.9731 13.8479 24.0354 14.7855C23.0977 15.7232 21.826 16.25 20.4999 16.25C19.1738 16.25 17.902 15.7232 16.9644 14.7855C16.0267 13.8479 15.4999 12.5761 15.4999 11.25C15.4999 9.92392 16.0267 8.65215 16.9644 7.71447C17.902 6.77678 19.1738 6.25 20.4999 6.25C21.826 6.25 23.0977 6.77678 24.0354 7.71447C24.9731 8.65215 25.4999 9.92392 25.4999 11.25ZM35.4999 16.25C35.4999 16.7425 35.4029 17.2301 35.2144 17.6851C35.026 18.14 34.7498 18.5534 34.4015 18.9016C34.0533 19.2499 33.6399 19.5261 33.185 19.7145C32.73 19.903 32.2423 20 31.7499 20C31.2574 20 30.7698 19.903 30.3148 19.7145C29.8599 19.5261 29.4465 19.2499 29.0982 18.9016C28.75 18.5534 28.4738 18.14 28.2853 17.6851C28.0969 17.2301 27.9999 16.7425 27.9999 16.25C27.9999 15.2554 28.395 14.3016 29.0982 13.5983C29.8015 12.8951 30.7553 12.5 31.7499 12.5C32.7445 12.5 33.6983 12.8951 34.4015 13.5983C35.1048 14.3016 35.4999 15.2554 35.4999 16.25ZM12.9999 16.25C12.9999 16.7425 12.9029 17.2301 12.7144 17.6851C12.526 18.14 12.2498 18.5534 11.9015 18.9016C11.5533 19.2499 11.1399 19.5261 10.685 19.7145C10.23 19.903 9.74235 20 9.24989 20C8.75744 20 8.2698 19.903 7.81483 19.7145C7.35986 19.5261 6.94646 19.2499 6.59824 18.9016C6.25002 18.5534 5.9738 18.14 5.78535 17.6851C5.59689 17.2301 5.49989 16.7425 5.49989 16.25C5.49989 15.2554 5.89498 14.3016 6.59824 13.5983C7.3015 12.8951 8.25533 12.5 9.24989 12.5C10.2445 12.5 11.1983 12.8951 11.9015 13.5983C12.6048 14.3016 12.9999 15.2554 12.9999 16.25Z" stroke="#425366" stroke-width="2" stroke-linecap="round" stroke-linejoin="round"/>
</svg>
