<svg width="16" height="16" viewBox="0 0 16 16" fill="none" xmlns="http://www.w3.org/2000/svg">
<path d="M7.99867 8C8.79432 8 9.55738 7.68393 10.12 7.12132C10.6826 6.55871 10.9987 5.79565 10.9987 5C10.9987 4.20435 10.6826 3.44129 10.12 2.87868C9.55738 2.31607 8.79432 2 7.99867 2C7.20302 2 6.43996 2.31607 5.87735 2.87868C5.31474 3.44129 4.99867 4.20435 4.99867 5C4.99867 5.79565 5.31474 6.55871 5.87735 7.12132C6.43996 7.68393 7.20302 8 7.99867 8ZM12.7337 14C13.3517 14 13.8267 13.439 13.6057 12.861C13.1721 11.7251 12.4039 10.7476 11.4025 10.058C10.4012 9.36834 9.21401 8.99908 7.99817 8.99908C6.78233 8.99908 5.59516 9.36834 4.59382 10.058C3.59248 10.7476 2.82419 11.7251 2.39067 12.861C2.17067 13.439 2.64467 14 3.26267 14H12.7337Z" fill="#425366"/>
</svg>
