<svg width="24" height="34" viewBox="0 0 24 34" fill="none" xmlns="http://www.w3.org/2000/svg">
<path d="M22.4885 13.7615L18.5 17.75L16.25 15.5M13.75 11.375C13.75 11.8182 13.6627 12.2571 13.4931 12.6666C13.3235 13.076 13.0749 13.4481 12.7615 13.7615C12.4481 14.0749 12.076 14.3235 11.6666 14.4931C11.2571 14.6627 10.8182 14.75 10.375 14.75C9.93179 14.75 9.49292 14.6627 9.08344 14.4931C8.67397 14.3235 8.30191 14.0749 7.98851 13.7615C7.67512 13.4481 7.42652 13.076 7.25691 12.6666C7.0873 12.2571 7 11.8182 7 11.375C7 10.4799 7.35558 9.62145 7.98851 8.98851C8.62145 8.35558 9.47989 8 10.375 8C11.2701 8 12.1285 8.35558 12.7615 8.98851C13.3944 9.62145 13.75 10.4799 13.75 11.375ZM4 24.235V24.125C4 22.4342 4.67165 20.8127 5.86719 19.6172C7.06274 18.4216 8.68424 17.75 10.375 17.75C12.0658 17.75 13.6873 18.4216 14.8828 19.6172C16.0784 20.8127 16.75 22.4342 16.75 24.125V24.234C14.8255 25.3931 12.6206 26.0038 10.374 26C8.043 26 5.862 25.355 4 24.234V24.235Z" stroke="#245B99" stroke-width="1.5" stroke-linecap="round" stroke-linejoin="round"/>
</svg>
