<svg width="25" height="24" viewBox="0 0 25 24" fill="none" xmlns="http://www.w3.org/2000/svg">
<g clip-path="url(#clip0_3444_4768)">
<path d="M12.5039 0C7.49403 0 6.02882 0.00517032 5.74402 0.0287999C4.71591 0.114284 4.07615 0.276208 3.37917 0.623305C2.84205 0.890106 2.41843 1.19936 2.00035 1.63287C1.23896 2.42346 0.777507 3.3961 0.610458 4.55226C0.529247 5.11354 0.505617 5.228 0.500818 8.09496C0.498977 9.05061 0.500818 10.3083 0.500818 11.9953C0.500818 17.0025 0.506352 18.4666 0.530353 18.7509C0.613415 19.7516 0.770305 20.3812 1.10255 21.0699C1.73751 22.3882 2.9502 23.3778 4.37886 23.7471C4.87354 23.8745 5.4199 23.9446 6.1213 23.9778C6.41848 23.9908 9.44744 24 12.4783 24C15.5091 24 18.5399 23.9963 18.8297 23.9815C19.6418 23.9433 20.1134 23.88 20.6349 23.7452C22.0728 23.3741 23.2633 22.3992 23.9112 21.0625C24.237 20.3905 24.4022 19.7369 24.4769 18.7884C24.4932 18.5816 24.5 15.2847 24.5 11.9922C24.5 8.69907 24.4926 5.40821 24.4764 5.20142C24.4007 4.23765 24.2355 3.5896 23.8992 2.90461C23.6232 2.34388 23.3168 1.92514 22.872 1.49699C22.0781 0.738523 21.1072 0.276943 19.9503 0.110039C19.3897 0.0289815 19.278 0.00497991 16.4096 0H12.5039Z" fill="url(#paint0_radial_3444_4768)"/>
<path d="M12.5039 0C7.49403 0 6.02882 0.00517032 5.74402 0.0287999C4.71591 0.114284 4.07615 0.276208 3.37917 0.623305C2.84205 0.890106 2.41843 1.19936 2.00035 1.63287C1.23896 2.42346 0.777507 3.3961 0.610458 4.55226C0.529247 5.11354 0.505617 5.228 0.500818 8.09496C0.498977 9.05061 0.500818 10.3083 0.500818 11.9953C0.500818 17.0025 0.506352 18.4666 0.530353 18.7509C0.613415 19.7516 0.770305 20.3812 1.10255 21.0699C1.73751 22.3882 2.9502 23.3778 4.37886 23.7471C4.87354 23.8745 5.4199 23.9446 6.1213 23.9778C6.41848 23.9908 9.44744 24 12.4783 24C15.5091 24 18.5399 23.9963 18.8297 23.9815C19.6418 23.9433 20.1134 23.88 20.6349 23.7452C22.0728 23.3741 23.2633 22.3992 23.9112 21.0625C24.237 20.3905 24.4022 19.7369 24.4769 18.7884C24.4932 18.5816 24.5 15.2847 24.5 11.9922C24.5 8.69907 24.4926 5.40821 24.4764 5.20142C24.4007 4.23765 24.2355 3.5896 23.8992 2.90461C23.6232 2.34388 23.3168 1.92514 22.872 1.49699C22.0781 0.738523 21.1072 0.276943 19.9503 0.110039C19.3897 0.0289815 19.278 0.00497991 16.4096 0H12.5039Z" fill="url(#paint1_radial_3444_4768)"/>
<path d="M12.5039 0C7.49403 0 6.02882 0.00517032 5.74402 0.0287999C4.71591 0.114284 4.07615 0.276208 3.37917 0.623305C2.84205 0.890106 2.41843 1.19936 2.00035 1.63287C1.23896 2.42346 0.777507 3.3961 0.610458 4.55226C0.529247 5.11354 0.505617 5.228 0.500818 8.09496C0.498977 9.05061 0.500818 10.3083 0.500818 11.9953C0.500818 17.0025 0.506352 18.4666 0.530353 18.7509C0.613415 19.7516 0.770305 20.3812 1.10255 21.0699C1.73751 22.3882 2.9502 23.3778 4.37886 23.7471C4.87354 23.8745 5.4199 23.9446 6.1213 23.9778C6.41848 23.9908 9.44744 24 12.4783 24C15.5091 24 18.5399 23.9963 18.8297 23.9815C19.6418 23.9433 20.1134 23.88 20.6349 23.7452C22.0728 23.3741 23.2633 22.3992 23.9112 21.0625C24.237 20.3905 24.4022 19.7369 24.4769 18.7884C24.4932 18.5816 24.5 15.2847 24.5 11.9922C24.5 8.69907 24.4926 5.40821 24.4764 5.20142C24.4007 4.23765 24.2355 3.5896 23.8992 2.90461C23.6232 2.34388 23.3168 1.92514 22.872 1.49699C22.0781 0.738523 21.1072 0.276943 19.9503 0.110039C19.3897 0.0289815 19.278 0.00497991 16.4096 0H12.5039Z" fill="url(#paint2_radial_3444_4768)"/>
<path d="M12.5039 0C7.49403 0 6.02882 0.00517032 5.74402 0.0287999C4.71591 0.114284 4.07615 0.276208 3.37917 0.623305C2.84205 0.890106 2.41843 1.19936 2.00035 1.63287C1.23896 2.42346 0.777507 3.3961 0.610458 4.55226C0.529247 5.11354 0.505617 5.228 0.500818 8.09496C0.498977 9.05061 0.500818 10.3083 0.500818 11.9953C0.500818 17.0025 0.506352 18.4666 0.530353 18.7509C0.613415 19.7516 0.770305 20.3812 1.10255 21.0699C1.73751 22.3882 2.9502 23.3778 4.37886 23.7471C4.87354 23.8745 5.4199 23.9446 6.1213 23.9778C6.41848 23.9908 9.44744 24 12.4783 24C15.5091 24 18.5399 23.9963 18.8297 23.9815C19.6418 23.9433 20.1134 23.88 20.6349 23.7452C22.0728 23.3741 23.2633 22.3992 23.9112 21.0625C24.237 20.3905 24.4022 19.7369 24.4769 18.7884C24.4932 18.5816 24.5 15.2847 24.5 11.9922C24.5 8.69907 24.4926 5.40821 24.4764 5.20142C24.4007 4.23765 24.2355 3.5896 23.8992 2.90461C23.6232 2.34388 23.3168 1.92514 22.872 1.49699C22.0781 0.738523 21.1072 0.276943 19.9503 0.110039C19.3897 0.0289815 19.278 0.00497991 16.4096 0H12.5039Z" fill="url(#paint3_radial_3444_4768)"/>
<path d="M12.5049 3.08203C10.0814 3.08203 9.7773 3.09262 8.82546 3.1359C7.8755 3.17937 7.22707 3.32966 6.65968 3.55017C6.07279 3.77791 5.57493 4.08257 5.07895 4.57837C4.58259 5.074 4.2777 5.57148 4.04904 6.15775C3.82781 6.7249 3.67723 7.37303 3.63448 8.32193C3.59191 9.27304 3.58075 9.57714 3.58075 11.9988C3.58075 14.4204 3.59153 14.7234 3.63466 15.6745C3.67835 16.6238 3.82875 17.2717 4.04922 17.8387C4.27733 18.4252 4.58221 18.9226 5.07839 19.4183C5.5742 19.9143 6.07204 20.2197 6.65857 20.4474C7.22631 20.6679 7.87494 20.8182 8.82472 20.8617C9.77655 20.9049 10.0805 20.9155 12.5038 20.9155C14.9274 20.9155 15.2306 20.905 16.1824 20.8617C17.1324 20.8182 17.7816 20.6679 18.3493 20.4474C18.936 20.2197 19.4331 19.9143 19.9289 19.4183C20.4253 18.9226 20.7302 18.4252 20.9588 17.8389C21.1782 17.2717 21.3288 16.6236 21.3734 15.6747C21.4162 14.7236 21.4273 14.4204 21.4273 11.9988C21.4273 9.57714 21.4162 9.27323 21.3734 8.32211C21.3288 7.37284 21.1782 6.7249 20.9588 6.15794C20.7302 5.57148 20.4253 5.07399 19.9289 4.57837C19.4326 4.08238 18.9362 3.77772 18.3488 3.55016C17.7799 3.32966 17.1311 3.17937 16.1811 3.1359C15.2293 3.09262 14.9263 3.08203 12.5021 3.08203H12.5049ZM11.7044 4.68891C11.942 4.68854 12.2071 4.68891 12.5049 4.68891C14.8874 4.68891 15.1698 4.69745 16.1107 4.74018C16.9807 4.77993 17.4529 4.9252 17.7674 5.04724C18.1839 5.20886 18.4807 5.40206 18.7929 5.71414C19.1052 6.02624 19.2985 6.32346 19.4606 6.73957C19.5828 7.05351 19.7283 7.52536 19.7679 8.39475C19.8107 9.33472 19.82 9.61708 19.82 11.9967C19.82 14.3764 19.8107 14.6588 19.7679 15.5987C19.7282 16.4681 19.5828 16.94 19.4606 17.2539C19.2989 17.67 19.1052 17.9663 18.7929 18.2782C18.4806 18.5903 18.184 18.7835 17.7674 18.9451C17.4533 19.0677 16.9807 19.2126 16.1107 19.2524C15.17 19.2951 14.8874 19.3044 12.5049 19.3044C10.1221 19.3044 9.83976 19.2951 8.89908 19.2524C8.02906 19.2123 7.55686 19.067 7.24212 18.9449C6.8257 18.7833 6.52825 18.5901 6.21594 18.278C5.90362 17.966 5.71028 17.6695 5.54817 17.2532C5.42603 16.9392 5.28047 16.4674 5.24087 15.598C5.19811 14.658 5.18956 14.3757 5.18956 11.9945C5.18956 9.61337 5.19811 9.33249 5.24087 8.39252C5.28066 7.52313 5.42603 7.05129 5.54817 6.73697C5.7099 6.32086 5.90362 6.02363 6.21594 5.71155C6.52825 5.39946 6.8257 5.20627 7.24212 5.04428C7.55667 4.92167 8.02906 4.77678 8.89908 4.73683C9.72226 4.69968 10.0413 4.68854 11.7044 4.68667L11.7044 4.68891ZM17.2681 6.16945C16.6769 6.16945 16.1973 6.64818 16.1973 7.23909C16.1973 7.82983 16.6769 8.30911 17.2681 8.30911C17.8593 8.30911 18.3389 7.82983 18.3389 7.23909C18.3389 6.64836 17.8593 6.16909 17.2681 6.16909L17.2681 6.16945ZM12.5049 7.41966C9.97416 7.41966 7.92235 9.46995 7.92235 11.9988C7.92235 14.5276 9.97416 16.577 12.5049 16.577C15.0356 16.577 17.0867 14.5276 17.0867 11.9988C17.0867 9.46995 15.0354 7.41966 12.5047 7.41966H12.5049ZM12.5049 9.02653C14.1475 9.02653 15.4793 10.3572 15.4793 11.9988C15.4793 13.6402 14.1475 14.971 12.5049 14.971C10.862 14.971 9.53041 13.6402 9.53041 11.9988C9.53041 10.3572 10.862 9.02653 12.5049 9.02653Z" fill="white"/>
</g>
<defs>
<radialGradient id="paint0_radial_3444_4768" cx="0" cy="0" r="1" gradientUnits="userSpaceOnUse" gradientTransform="translate(23.725 11.2491) rotate(164.25) scale(15.3346 11.0479)">
<stop stop-color="#FF005F"/>
<stop offset="1" stop-color="#FC01D8"/>
</radialGradient>
<radialGradient id="paint1_radial_3444_4768" cx="0" cy="0" r="1" gradientUnits="userSpaceOnUse" gradientTransform="translate(6.87482 25.8485) rotate(-90) scale(19.1573 20.3254)">
<stop stop-color="#FFCC00"/>
<stop offset="0.1242" stop-color="#FFCC00"/>
<stop offset="0.5672" stop-color="#FE4A05"/>
<stop offset="0.6942" stop-color="#FF0F3F"/>
<stop offset="1" stop-color="#FE0657" stop-opacity="0"/>
</radialGradient>
<radialGradient id="paint2_radial_3444_4768" cx="0" cy="0" r="1" gradientUnits="userSpaceOnUse" gradientTransform="translate(13.1065 23.6615) rotate(-59.8703) scale(7.92169 10.3132)">
<stop stop-color="#FFCC00"/>
<stop offset="1" stop-color="#FFCC00" stop-opacity="0"/>
</radialGradient>
<radialGradient id="paint3_radial_3444_4768" cx="0" cy="0" r="1" gradientUnits="userSpaceOnUse" gradientTransform="translate(3.75629 0.977273) rotate(164.274) scale(15.1645 5.16655)">
<stop stop-color="#780CFF"/>
<stop offset="1" stop-color="#820BFF" stop-opacity="0"/>
</radialGradient>
<clipPath id="clip0_3444_4768">
<rect width="24" height="24" fill="white" transform="translate(0.5)"/>
</clipPath>
</defs>
</svg>
