<svg width="24" height="24" viewBox="0 0 24 24" fill="none" xmlns="http://www.w3.org/2000/svg">
<path fill-rule="evenodd" clip-rule="evenodd" d="M13.2865 3.56834C12.5961 2.81055 11.4036 2.81055 10.7132 3.56834C10.2552 4.07103 9.54637 4.26096 8.89838 4.05461C7.92157 3.74356 6.88884 4.33981 6.66981 5.34128C6.52452 6.00562 6.00562 6.52452 5.34128 6.66981C4.33981 6.88884 3.74356 7.92157 4.05461 8.89838C4.26096 9.54637 4.07103 10.2552 3.56834 10.7132C2.81055 11.4036 2.81055 12.5961 3.56834 13.2865C4.07103 13.7445 4.26096 14.4533 4.05461 15.1013C3.74356 16.0781 4.33981 17.1109 5.34128 17.3299C6.00562 17.4752 6.52452 17.9941 6.66981 18.6584C6.88884 19.6599 7.92157 20.2561 8.89838 19.9451C9.54637 19.7387 10.2552 19.9287 10.7132 20.4314C11.4036 21.1891 12.5961 21.1891 13.2865 20.4314C13.7445 19.9287 14.4533 19.7387 15.1013 19.9451C16.0781 20.2561 17.1109 19.6599 17.3299 18.6584C17.4752 17.9941 17.9941 17.4752 18.6584 17.3299C19.6599 17.1109 20.2561 16.0781 19.9451 15.1013C19.7387 14.4533 19.9287 13.7445 20.4314 13.2865C21.1891 12.5961 21.1891 11.4036 20.4314 10.7132C19.9287 10.2552 19.7387 9.54637 19.9451 8.89838C20.2561 7.92157 19.6599 6.88884 18.6584 6.66981C17.9941 6.52452 17.4752 6.00562 17.3299 5.34128C17.1109 4.33981 16.0781 3.74356 15.1013 4.05461C14.4533 4.26096 13.7445 4.07103 13.2865 3.56834ZM16.4147 10.5086C16.6783 10.245 16.6783 9.81757 16.4147 9.55396C16.1511 9.29036 15.7237 9.29036 15.4601 9.55396L11.0155 13.9985L9.0319 12.0149C8.76829 11.7513 8.34091 11.7513 8.0773 12.0149C7.8137 12.2785 7.8137 12.7059 8.0773 12.9695L10.5382 15.4304C10.8018 15.694 11.2292 15.694 11.4928 15.4304L16.4147 10.5086Z" fill="#55A7EA"/>
</svg>
