<svg width="32" height="32" viewBox="0 0 32 32" fill="none" xmlns="http://www.w3.org/2000/svg">
<path fill-rule="evenodd" clip-rule="evenodd" d="M16 6C9.84192 6 5 10.5578 5 16C5 18.6253 6.1134 21.0252 7.96002 22.8219L7.96005 22.822C8.54255 23.3888 9.07586 24.3034 8.86649 25.3666L8.86614 25.3683C8.75406 25.9321 8.57316 26.4776 8.32911 26.993C9.6467 26.9331 10.9278 26.4995 12.0181 25.7327C12.2609 25.5619 12.5671 25.5078 12.8538 25.5852C13.8792 25.8618 14.9367 26.0013 15.9988 26L16 26C22.1581 26 27 21.4422 27 16C27 10.5578 22.1581 6 16 6ZM7.11514 28.9552C6.87752 28.9322 6.64091 28.8997 6.40588 28.8578C6.05351 28.795 5.76158 28.5487 5.64039 28.2119C5.51921 27.8751 5.58726 27.4993 5.81883 27.2264C6.36597 26.5815 6.73964 25.8078 6.90453 24.9784L7.88533 25.1733L6.90418 24.9801C6.93481 24.8246 6.87345 24.5552 6.56528 24.2554C4.36659 22.1161 3 19.212 3 16C3 9.29291 8.90475 4 16 4C23.0953 4 29 9.29291 29 16C29 22.7067 23.0959 27.9994 16.0012 28M7.11514 28.9552C9.10203 29.1551 11.0941 28.6855 12.7779 27.6284C13.8334 27.8764 14.9147 28.0012 16 28M9.93934 14.9393C10.2206 14.658 10.6022 14.5 11 14.5C11.3978 14.5 11.7794 14.658 12.0607 14.9393C12.342 15.2206 12.5 15.6022 12.5 16C12.5 16.3978 12.342 16.7794 12.0607 17.0607C11.7794 17.342 11.3978 17.5 11 17.5C10.6022 17.5 10.2206 17.342 9.93934 17.0607C9.65804 16.7794 9.5 16.3978 9.5 16C9.5 15.6022 9.65804 15.2206 9.93934 14.9393ZM14.9393 14.9393C15.2206 14.658 15.6022 14.5 16 14.5C16.3978 14.5 16.7794 14.658 17.0607 14.9393C17.342 15.2206 17.5 15.6022 17.5 16C17.5 16.3978 17.342 16.7794 17.0607 17.0607C16.7794 17.342 16.3978 17.5 16 17.5C15.6022 17.5 15.2206 17.342 14.9393 17.0607C14.658 16.7794 14.5 16.3978 14.5 16C14.5 15.6022 14.658 15.2206 14.9393 14.9393ZM19.9393 14.9393C20.2206 14.658 20.6022 14.5 21 14.5C21.3978 14.5 21.7794 14.658 22.0607 14.9393C22.342 15.2206 22.5 15.6022 22.5 16C22.5 16.3978 22.342 16.7794 22.0607 17.0607C21.7794 17.342 21.3978 17.5 21 17.5C20.6022 17.5 20.2206 17.342 19.9393 17.0607C19.658 16.7794 19.5 16.3978 19.5 16C19.5 15.6022 19.658 15.2206 19.9393 14.9393Z" fill="#245B99"/>
</svg>
