<svg width="25" height="24" viewBox="0 0 25 24" fill="none" xmlns="http://www.w3.org/2000/svg">
<g clip-path="url(#clip0_3444_15779)">
<path d="M12.5 0C5.741 0 0.5 4.953 0.5 11.64C0.5 15.138 1.934 18.162 4.268 20.25C4.463 20.424 4.583 20.67 4.589 20.934L4.655 23.07C4.65981 23.2272 4.70314 23.3807 4.7812 23.5172C4.85926 23.6537 4.96965 23.769 5.10267 23.8528C5.23569 23.9366 5.38726 23.9865 5.54408 23.9981C5.70089 24.0096 5.85814 23.9825 6.002 23.919L8.384 22.869C8.585 22.779 8.813 22.764 9.026 22.821C10.121 23.121 11.285 23.283 12.5 23.283C19.259 23.283 24.5 18.33 24.5 11.643C24.5 4.956 19.259 0 12.5 0Z" fill="url(#paint0_radial_3444_15779)"/>
<path d="M5.29401 15.0451L8.81901 9.45309C8.95162 9.24256 9.12643 9.0618 9.33242 8.92223C9.5384 8.78267 9.77109 8.68732 10.0158 8.64222C10.2605 8.59711 10.5119 8.60323 10.7541 8.66018C10.9963 8.71713 11.2241 8.82368 11.423 8.97309L14.228 11.0761C14.3532 11.1698 14.5056 11.2203 14.662 11.2197C14.8184 11.2192 14.9704 11.1677 15.095 11.0731L18.881 8.19909C19.385 7.81509 20.045 8.42109 19.709 8.95809L16.181 14.5471C16.0484 14.7576 15.8736 14.9384 15.6676 15.078C15.4616 15.2175 15.2289 15.3129 14.9842 15.358C14.7395 15.4031 14.4882 15.397 14.246 15.34C14.0037 15.2831 13.776 15.1765 13.577 15.0271L10.772 12.9241C10.6468 12.8303 10.4944 12.7799 10.338 12.7805C10.1816 12.781 10.0296 12.8325 9.90501 12.9271L6.11901 15.8011C5.61501 16.1851 4.95501 15.5821 5.29401 15.0451Z" fill="white"/>
</g>
<defs>
<radialGradient id="paint0_radial_3444_15779" cx="0" cy="0" r="1" gradientUnits="userSpaceOnUse" gradientTransform="translate(4.52 24) scale(26.4 26.4)">
<stop stop-color="#0099FF"/>
<stop offset="0.6" stop-color="#A033FF"/>
<stop offset="0.9" stop-color="#FF5280"/>
<stop offset="1" stop-color="#FF7061"/>
</radialGradient>
<clipPath id="clip0_3444_15779">
<rect width="24" height="24" fill="white" transform="translate(0.5)"/>
</clipPath>
</defs>
</svg>
