<svg width="20" height="20" viewBox="0 0 20 20" fill="none" xmlns="http://www.w3.org/2000/svg">
<path d="M10.0002 5C10.0002 5.39397 9.92258 5.78407 9.77182 6.14805C9.62105 6.51203 9.40008 6.84274 9.1215 7.12132C8.84292 7.3999 8.51221 7.62087 8.14823 7.77164C7.78425 7.9224 7.39415 8 7.00018 8C6.60621 8 6.21611 7.9224 5.85213 7.77164C5.48815 7.62087 5.15743 7.3999 4.87886 7.12132C4.60028 6.84274 4.3793 6.51203 4.22854 6.14805C4.07778 5.78407 4.00018 5.39397 4.00018 5C4.00018 4.20435 4.31625 3.44129 4.87886 2.87868C5.44147 2.31607 6.20453 2 7.00018 2C7.79583 2 8.55889 2.31607 9.1215 2.87868C9.68411 3.44129 10.0002 4.20435 10.0002 5ZM1.61518 16.428C1.41912 16.3058 1.26164 16.1306 1.16095 15.9227C1.06026 15.7148 1.02047 15.4826 1.04618 15.253C1.23053 13.8041 1.93693 12.4721 3.03299 11.5066C4.12905 10.5412 5.53955 10.0086 7.00018 10.0086C8.4608 10.0086 9.87131 10.5412 10.9674 11.5066C12.0634 12.4721 12.7698 13.8041 12.9542 15.253C13.0122 15.72 12.7822 16.173 12.3842 16.427C10.7774 17.4566 8.90854 18.0027 7.00018 18C5.09158 18.0032 3.22233 17.4575 1.61518 16.428ZM16.2502 5.75C16.2502 5.55109 16.1712 5.36032 16.0305 5.21967C15.8899 5.07902 15.6991 5 15.5002 5C15.3013 5 15.1105 5.07902 14.9698 5.21967C14.8292 5.36032 14.7502 5.55109 14.7502 5.75V7.75H12.7502C12.5513 7.75 12.3605 7.82902 12.2198 7.96967C12.0792 8.11032 12.0002 8.30109 12.0002 8.5C12.0002 8.69891 12.0792 8.88968 12.2198 9.03033C12.3605 9.17098 12.5513 9.25 12.7502 9.25H14.7502V11.25C14.7502 11.4489 14.8292 11.6397 14.9698 11.7803C15.1105 11.921 15.3013 12 15.5002 12C15.6991 12 15.8899 11.921 16.0305 11.7803C16.1712 11.6397 16.2502 11.4489 16.2502 11.25V9.25H18.2502C18.4491 9.25 18.6399 9.17098 18.7805 9.03033C18.9212 8.88968 19.0002 8.69891 19.0002 8.5C19.0002 8.30109 18.9212 8.11032 18.7805 7.96967C18.6399 7.82902 18.4491 7.75 18.2502 7.75H16.2502V5.75Z" fill="white"/>
</svg>
