<svg width="18" height="18" viewBox="0 0 18 18" fill="none" xmlns="http://www.w3.org/2000/svg">
<path fill-rule="evenodd" clip-rule="evenodd" d="M10.2865 0.568338C9.5961 -0.189446 8.4036 -0.189446 7.71319 0.568337C7.25519 1.07103 6.54637 1.26096 5.89838 1.05461C4.92157 0.743561 3.88884 1.33981 3.66981 2.34128C3.52452 3.00562 3.00562 3.52452 2.34128 3.66981C1.33981 3.88884 0.743561 4.92157 1.05461 5.89838C1.26096 6.54637 1.07103 7.25519 0.568337 7.71319C-0.189446 8.4036 -0.189446 9.5961 0.568338 10.2865C1.07103 10.7445 1.26096 11.4533 1.05461 12.1013C0.743561 13.0781 1.33981 14.1109 2.34128 14.3299C3.00562 14.4752 3.52452 14.9941 3.66981 15.6584C3.88884 16.6599 4.92157 17.2561 5.89838 16.9451C6.54637 16.7387 7.25519 16.9287 7.71319 17.4314C8.4036 18.1891 9.5961 18.1891 10.2865 17.4314C10.7445 16.9287 11.4533 16.7387 12.1013 16.9451C13.0781 17.2561 14.1109 16.6599 14.3299 15.6584C14.4752 14.9941 14.9941 14.4752 15.6584 14.3299C16.6599 14.1109 17.2561 13.0781 16.9451 12.1013C16.7387 11.4533 16.9287 10.7445 17.4314 10.2865C18.1891 9.5961 18.1891 8.4036 17.4314 7.71319C16.9287 7.25519 16.7387 6.54637 16.9451 5.89838C17.2561 4.92157 16.6599 3.88884 15.6584 3.66981C14.9941 3.52452 14.4752 3.00562 14.3299 2.34128C14.1109 1.33981 13.0781 0.743561 12.1013 1.05461C11.4533 1.26096 10.7445 1.07103 10.2865 0.568338ZM13.4146 7.50853C13.6782 7.24494 13.6782 6.81756 13.4146 6.55397C13.151 6.29037 12.7237 6.29037 12.4601 6.55397L8.01548 10.9986L6.03182 9.0149C5.76823 8.7513 5.34086 8.7513 5.07726 9.0149C4.81366 9.2785 4.81366 9.70587 5.07726 9.96946L7.53819 12.4304C7.80179 12.694 8.22916 12.694 8.49276 12.4304L13.4146 7.50853Z" fill="#FDB54A"/>
</svg>
