<svg width="24" height="24" viewBox="0 0 24 24" fill="none" xmlns="http://www.w3.org/2000/svg">
<path fill-rule="evenodd" clip-rule="evenodd" d="M12 5.99971C11.0055 5.99971 10.0516 6.39479 9.34836 7.09805C8.6451 7.80132 8.25001 8.75514 8.25001 9.74971C8.25001 10.7443 8.6451 11.6981 9.34836 12.4014C10.0516 13.1046 11.0055 13.4997 12 13.4997C12.9946 13.4997 13.9484 13.1046 14.6517 12.4014C15.3549 11.6981 15.75 10.7443 15.75 9.74971C15.75 8.75514 15.3549 7.80132 14.6517 7.09805C13.9484 6.39479 12.9946 5.99971 12 5.99971ZM12 7.49971C11.4033 7.49971 10.831 7.73676 10.409 8.15871C9.98707 8.58067 9.75001 9.15297 9.75001 9.74971C9.75001 10.3464 9.98707 10.9187 10.409 11.3407C10.831 11.7627 11.4033 11.9997 12 11.9997C12.5968 11.9997 13.169 11.7627 13.591 11.3407C14.013 10.9187 14.25 10.3464 14.25 9.74971C14.25 9.15297 14.013 8.58067 13.591 8.15871C13.169 7.73676 12.5968 7.49971 12 7.49971Z" fill="#245B99"/>
<path fill-rule="evenodd" clip-rule="evenodd" d="M11.9995 2.25C10.0226 2.25 8.0924 2.85095 6.46488 3.97315C4.83735 5.09536 3.58941 6.68579 2.88655 8.53353C2.18369 10.3813 2.05912 12.399 2.52936 14.3192C2.99952 16.239 4.04206 17.9706 5.51878 19.2844C7.30244 20.8754 9.60995 21.7531 12.0001 21.7497C14.3897 21.7528 16.6978 20.8752 18.4813 19.2844C19.9582 17.9704 20.9996 16.2388 21.4697 14.3192C21.9399 12.399 21.8153 10.3813 21.1125 8.53353C20.4096 6.68579 19.1617 5.09536 17.5342 3.97315C15.9066 2.85095 13.9764 2.25 11.9995 2.25ZM16.9185 18.6251C16.3721 18.0433 15.7253 17.5617 15.0072 17.2046C14.0731 16.7401 13.0439 16.4988 12.0007 16.4997H11.9993C10.9561 16.4988 9.9269 16.7401 8.9928 17.2046C8.27472 17.5617 7.62792 18.0433 7.08152 18.6251C8.49737 19.6787 10.2211 20.2524 11.9989 20.2497H12.0011C13.7786 20.2522 15.5027 19.6785 16.9185 18.6251ZM7.31636 5.20805C8.69349 4.2585 10.3267 3.75 11.9995 3.75C13.6723 3.75 15.3055 4.2585 16.6827 5.20805C18.0598 6.15761 19.1158 7.50336 19.7105 9.06683C20.3052 10.6303 20.4106 12.3376 20.0127 13.9624C19.6763 15.3362 18.9942 16.5959 18.0362 17.6242C17.3631 16.9012 16.5638 16.3035 15.6752 15.8615C14.5335 15.2938 13.2757 14.9988 12.0007 14.9997C10.7252 14.9985 9.4669 15.2936 8.32486 15.8615C7.43624 16.3035 6.63691 16.9013 5.96378 17.6243C5.00544 16.5958 4.32271 15.3361 3.98631 13.9624C3.58841 12.3376 3.69382 10.6303 4.28855 9.06683C4.88327 7.50336 5.93922 6.15761 7.31636 5.20805Z" fill="#245B99"/>
</svg>
