<svg width="61" height="60" viewBox="0 0 61 60" fill="none" xmlns="http://www.w3.org/2000/svg">
<rect x="0.5" width="60" height="60" rx="30" fill="#EBF0F5"/>
<path d="M40.5 22.5V27.5M40.5 27.5V32.5M40.5 27.5H45.5M40.5 27.5H35.5M31.75 20.625C31.75 22.1168 31.1574 23.5476 30.1025 24.6025C29.0476 25.6574 27.6168 26.25 26.125 26.25C24.6332 26.25 23.2024 25.6574 22.1475 24.6025C21.0926 23.5476 20.5 22.1168 20.5 20.625C20.5 19.1332 21.0926 17.7024 22.1475 16.6475C23.2024 15.5926 24.6332 15 26.125 15C27.6168 15 29.0476 15.5926 30.1025 16.6475C31.1574 17.7024 31.75 19.1332 31.75 20.625ZM15.5 42.0583V41.875C15.5 39.0571 16.6194 36.3546 18.612 34.362C20.6046 32.3694 23.3071 31.25 26.125 31.25C28.9429 31.25 31.6454 32.3694 33.638 34.362C35.6306 36.3546 36.75 39.0571 36.75 41.875V42.0567C33.5425 43.9885 29.8677 45.0063 26.1233 45C22.2383 45 18.6033 43.925 15.5 42.0567V42.0583Z" stroke="#425366" stroke-width="2" stroke-linecap="round" stroke-linejoin="round"/>
</svg>
