<svg width="20" height="18" viewBox="0 0 20 18" fill="none" xmlns="http://www.w3.org/2000/svg">
<path d="M10 4.5H11.5M10 7.5H11.5M4 10.5H11.5M4 13.5H11.5M14.5 4.5H17.875C18.496 4.5 19 5.004 19 5.625V15C19 15.5967 18.7629 16.169 18.341 16.591C17.919 17.0129 17.3467 17.25 16.75 17.25M14.5 4.5V15C14.5 15.5967 14.7371 16.169 15.159 16.591C15.581 17.0129 16.1533 17.25 16.75 17.25M14.5 4.5V1.875C14.5 1.254 13.996 0.75 13.375 0.75H2.125C1.504 0.75 1 1.254 1 1.875V15C1 15.5967 1.23705 16.169 1.65901 16.591C2.08097 17.0129 2.65326 17.25 3.25 17.25H16.75M4 4.5H7V7.5H4V4.5Z" stroke="#425366" stroke-width="1.5" stroke-linecap="round" stroke-linejoin="round"/>
</svg>
