<svg width="40" height="40" viewBox="0 0 40 40" fill="none" xmlns="http://www.w3.org/2000/svg">
<path d="M16.465 12.5317C18.4167 10.8233 21.5833 10.8233 23.535 12.5317C25.4883 14.24 25.4883 17.01 23.535 18.7183C23.1967 19.0167 22.8183 19.2617 22.4183 19.455C21.1767 20.0567 20.0017 21.12 20.0017 22.5V23.75M35 20C35 21.9698 34.612 23.9204 33.8582 25.7403C33.1044 27.5601 31.9995 29.2137 30.6066 30.6066C29.2137 31.9995 27.5601 33.1044 25.7403 33.8582C23.9204 34.612 21.9698 35 20 35C18.0302 35 16.0796 34.612 14.2597 33.8582C12.4399 33.1044 10.7863 31.9995 9.3934 30.6066C8.00052 29.2137 6.89563 27.5601 6.14181 25.7403C5.38799 23.9204 5 21.9698 5 20C5 16.0218 6.58035 12.2064 9.3934 9.3934C12.2064 6.58035 16.0218 5 20 5C23.9782 5 27.7936 6.58035 30.6066 9.3934C33.4196 12.2064 35 16.0218 35 20ZM20 28.75H20.0133V28.7633H20V28.75Z" stroke="#425366" stroke-width="2.5" stroke-linecap="round" stroke-linejoin="round"/>
</svg>
