<svg width="25" height="24" viewBox="0 0 25 24" fill="none" xmlns="http://www.w3.org/2000/svg">
<path fill-rule="evenodd" clip-rule="evenodd" d="M14.1836 1.52689C13.0616 1.49104 11.9387 1.49104 10.8166 1.52689C9.21211 1.57745 8.00012 2.91379 8.00012 4.47752V4.70429C7.05056 4.7914 6.1037 4.9063 5.16076 5.04883C4.81291 5.10071 4.46729 5.15663 4.12189 5.21656C3.71378 5.28738 3.44035 5.67564 3.51117 6.08375C3.58199 6.49187 3.97024 6.7653 4.37835 6.69448C4.44781 6.68243 4.51725 6.67054 4.58671 6.65883L5.59233 19.731C5.65045 20.4847 5.99092 21.1887 6.54565 21.7022C8.7866 23.0012 16.4629 22.7396 18.4546 21.7022C19.0093 21.1887 19.3498 20.4848 19.4079 19.7312L20.4135 6.65981C20.483 6.67154 20.5524 6.68343 20.6219 6.69548C21.03 6.7663 21.4183 6.49287 21.4891 6.08475C21.5599 5.67664 21.2865 5.28838 20.8784 5.21756C20.5327 5.15759 20.1875 5.10175 19.8409 5.04904C18.8977 4.90645 17.9499 4.79142 17.0001 4.70429V4.47752C17.0001 2.91257 15.7879 1.57744 14.1836 1.52689ZM16.1923 6.14129C17.1064 6.21206 18.0182 6.30935 18.9265 6.43303L17.9123 19.6159C17.8833 19.9927 17.7131 20.3446 17.4357 20.6014C17.1583 20.8581 16.7943 21.0006 16.4163 21.0005H8.58412C8.20619 21.0006 7.84192 20.8581 7.56456 20.6014C7.28723 20.3447 7.117 19.9928 7.08791 19.616L6.07377 6.43303C6.98208 6.30935 7.89385 6.21206 8.80791 6.14129C11.2657 5.95135 13.7346 5.95135 16.1923 6.14129ZM9.50012 4.58998C11.4983 4.46845 13.502 4.46845 15.5001 4.58998V4.47752C15.5001 3.68262 14.8921 3.04984 14.1366 3.02615C13.0462 2.9913 11.9545 2.99129 10.8641 3.02614C10.1088 3.04982 9.50012 3.6834 9.50012 4.47752V4.58998Z" fill="#245B99"/>
<path d="M10.5096 8.97171C10.4937 8.5578 10.1452 8.23516 9.73131 8.25107C9.3174 8.26699 8.99476 8.61543 9.01068 9.02933L9.35668 18.0293C9.37259 18.4432 9.72103 18.7659 10.1349 18.75C10.5488 18.7341 10.8715 18.3856 10.8556 17.9717L10.5096 8.97171Z" fill="#245B99"/>
<path d="M15.9896 9.02933C16.0055 8.61543 15.6828 8.26699 15.2689 8.25107C14.855 8.23516 14.5066 8.5578 14.4907 8.97171L14.1447 17.9717C14.1288 18.3856 14.4514 18.7341 14.8653 18.75C15.2792 18.7659 15.6277 18.4432 15.6436 18.0293L15.9896 9.02933Z" fill="#245B99"/>
</svg>
