<svg width="40" height="40" viewBox="0 0 40 40" fill="none" xmlns="http://www.w3.org/2000/svg">
<path fill-rule="evenodd" clip-rule="evenodd" d="M22.8059 2.54482C20.9358 2.48506 19.0643 2.48506 17.1942 2.54482C14.52 2.62908 12.5 4.85631 12.5 7.46254V7.84049C10.9174 7.98567 9.33931 8.17716 7.76775 8.41472C7.18801 8.50119 6.61196 8.59438 6.0363 8.69427C5.35611 8.81231 4.90039 9.4594 5.01843 10.1396C5.13646 10.8198 5.78355 11.2755 6.46374 11.1575C6.5795 11.1374 6.69524 11.1176 6.81099 11.0981L8.48704 32.8851C8.5839 34.1411 9.15136 35.3146 10.0759 36.1703C13.8108 38.3353 26.6047 37.8994 29.9241 36.1703C30.8487 35.3146 31.4161 34.1414 31.513 32.8853L33.1889 11.0997C33.3048 11.1192 33.4206 11.139 33.5363 11.1591C34.2165 11.2772 34.8636 10.8214 34.9816 10.1413C35.0996 9.46106 34.6439 8.81397 33.9637 8.69594C33.3877 8.59598 32.8124 8.50292 32.2346 8.41507C30.6626 8.17742 29.083 7.98571 27.5 7.84049V7.46254C27.5 4.85428 25.4797 2.62906 22.8059 2.54482ZM26.1537 10.2355C27.6771 10.3534 29.1968 10.5156 30.7106 10.7217L29.0204 32.6931C28.972 33.3211 28.6882 33.9077 28.226 34.3356C27.7637 34.7635 27.1569 35.0011 26.5271 35.0009H13.4734C12.8435 35.0011 12.2363 34.7635 11.7741 34.3356C11.3119 33.9078 11.0282 33.3213 10.9797 32.6933L9.28943 10.7217C10.8033 10.5156 12.3229 10.3534 13.8463 10.2355C17.9426 9.91892 22.0575 9.91892 26.1537 10.2355ZM15 7.64996C18.3303 7.44741 21.6698 7.44741 25 7.64996V7.46254C25 6.13771 23.9866 5.08307 22.7275 5.04359C20.9102 4.9855 19.0906 4.98548 17.2733 5.04356C16.0145 5.08303 15 6.139 15 7.46254V7.64996Z" fill="#425366"/>
<path d="M16.6824 14.9528C16.6559 14.263 16.0752 13.7253 15.3853 13.7518C14.6955 13.7783 14.1578 14.359 14.1843 15.0489L14.7609 30.0489C14.7875 30.7387 15.3682 31.2765 16.058 31.2499C16.7479 31.2234 17.2856 30.6427 17.2591 29.9528L16.6824 14.9528Z" fill="#425366"/>
<path d="M25.8158 15.0489C25.8423 14.359 25.3046 13.7783 24.6147 13.7518C23.9249 13.7253 23.3441 14.263 23.3176 14.9528L22.7409 29.9528C22.7144 30.6427 23.2522 31.2234 23.942 31.2499C24.6318 31.2765 25.2126 30.7387 25.2391 30.0489L25.8158 15.0489Z" fill="#425366"/>
</svg>
