<svg width="24" height="24" viewBox="0 0 24 24" fill="none" xmlns="http://www.w3.org/2000/svg">
<path fill-rule="evenodd" clip-rule="evenodd" d="M13.6835 1.52689C12.5615 1.49104 11.4385 1.49104 10.3165 1.52689C8.71198 1.57745 7.5 2.91379 7.5 4.47752V4.70429C6.55044 4.7914 5.60357 4.9063 4.66064 5.04883C4.31279 5.10071 3.96716 5.15663 3.62177 5.21656C3.21366 5.28738 2.94022 5.67564 3.01104 6.08375C3.08186 6.49187 3.47012 6.7653 3.87823 6.69448C3.94769 6.68243 4.01713 6.67054 4.08658 6.65883L5.09221 19.731C5.15033 20.4847 5.4908 21.1887 6.04553 21.7022C8.28648 23.0012 15.9628 22.7396 17.9545 21.7022C18.5092 21.1887 18.8497 20.4848 18.9078 19.7312L19.9133 6.65981C19.9828 6.67154 20.0523 6.68343 20.1218 6.69548C20.5299 6.7663 20.9181 6.49287 20.989 6.08475C21.0598 5.67664 20.7863 5.28838 20.3782 5.21756C20.0326 5.15759 19.6874 5.10175 19.3407 5.04904C18.3976 4.90645 17.4498 4.79142 16.5 4.70429V4.47752C16.5 2.91257 15.2878 1.57744 13.6835 1.52689ZM15.6922 6.14129C16.6063 6.21206 17.518 6.30935 18.4264 6.43303L17.4122 19.6159C17.3832 19.9927 17.2129 20.3446 16.9356 20.6014C16.6582 20.8581 16.2942 21.0006 15.9162 21.0005H8.084C7.70606 21.0006 7.3418 20.8581 7.06443 20.6014C6.78711 20.3447 6.61688 19.9928 6.58779 19.616L5.57364 6.43303C6.48196 6.30935 7.39373 6.21206 8.30779 6.14129C10.7655 5.95135 13.2345 5.95135 15.6922 6.14129ZM9 4.58998C10.9982 4.46845 13.0018 4.46845 15 4.58998V4.47752C15 3.68262 14.392 3.04984 13.6365 3.02615C12.5461 2.9913 11.4544 2.99129 10.364 3.02614C9.6087 3.04982 9 3.6834 9 4.47752V4.58998Z" fill="#245B99"/>
<path d="M10.0094 8.97171C9.99354 8.5578 9.6451 8.23516 9.23119 8.25107C8.81728 8.26699 8.49464 8.61543 8.51055 9.02933L8.85655 18.0293C8.87247 18.4432 9.22091 18.7659 9.63481 18.75C10.0487 18.7341 10.3714 18.3856 10.3554 17.9717L10.0094 8.97171Z" fill="#245B99"/>
<path d="M15.4894 9.02933C15.5054 8.61543 15.1827 8.26699 14.7688 8.25107C14.3549 8.23516 14.0065 8.5578 13.9906 8.97171L13.6446 17.9717C13.6286 18.3856 13.9513 18.7341 14.3652 18.75C14.7791 18.7659 15.1275 18.4432 15.1434 18.0293L15.4894 9.02933Z" fill="#245B99"/>
</svg>
