<svg width="25" height="24" viewBox="0 0 25 24" fill="none" xmlns="http://www.w3.org/2000/svg">
<path fill-rule="evenodd" clip-rule="evenodd" d="M5.348 2.771C7.71613 2.4234 10.1065 2.24927 12.5 2.25C14.93 2.25 17.317 2.428 19.652 2.77C21.63 3.062 23 4.794 23 6.74V12.76C23 14.706 21.63 16.438 19.652 16.73C18.4983 16.8991 17.3389 17.0268 16.176 17.113C16.1168 17.1169 16.0593 17.1342 16.0079 17.1637C15.9564 17.1931 15.9123 17.234 15.879 17.283L13.124 21.416C13.0555 21.5187 12.9627 21.6029 12.8539 21.6612C12.745 21.7194 12.6235 21.7499 12.5 21.7499C12.3765 21.7499 12.255 21.7194 12.1461 21.6612C12.0373 21.6029 11.9445 21.5187 11.876 21.416L9.121 17.283C9.08768 17.234 9.04361 17.1931 8.99214 17.1637C8.94068 17.1342 8.88317 17.1169 8.824 17.113C7.66113 17.0265 6.50172 16.8984 5.348 16.729C3.37 16.439 2 14.705 2 12.759V6.741C2 4.795 3.37 3.061 5.348 2.771ZM7.25 8.25C7.25 8.05109 7.32902 7.86032 7.46967 7.71967C7.61032 7.57902 7.80109 7.5 8 7.5H17C17.1989 7.5 17.3897 7.57902 17.5303 7.71967C17.671 7.86032 17.75 8.05109 17.75 8.25C17.75 8.44891 17.671 8.63968 17.5303 8.78033C17.3897 8.92098 17.1989 9 17 9H8C7.80109 9 7.61032 8.92098 7.46967 8.78033C7.32902 8.63968 7.25 8.44891 7.25 8.25ZM8 10.5C7.80109 10.5 7.61032 10.579 7.46967 10.7197C7.32902 10.8603 7.25 11.0511 7.25 11.25C7.25 11.4489 7.32902 11.6397 7.46967 11.7803C7.61032 11.921 7.80109 12 8 12H12.5C12.6989 12 12.8897 11.921 13.0303 11.7803C13.171 11.6397 13.25 11.4489 13.25 11.25C13.25 11.0511 13.171 10.8603 13.0303 10.7197C12.8897 10.579 12.6989 10.5 12.5 10.5H8Z" fill="#245B99"/>
</svg>
