<svg width="14" height="14" viewBox="0 0 14 14" fill="none" xmlns="http://www.w3.org/2000/svg">
<path fill-rule="evenodd" clip-rule="evenodd" d="M9.32728 4.28968L7.8563 0.595999C7.53978 -0.198666 6.46022 -0.198666 6.1437 0.595999L4.67272 4.28968L0.85469 4.60991C0.0323002 4.67853 -0.301177 5.74989 0.325506 6.31066L3.23425 8.91306L2.34615 12.8037C2.15469 13.6412 3.02724 14.3038 3.73093 13.8552L7 11.77L10.2691 13.8552C10.9728 14.3038 11.8453 13.6419 11.6538 12.8037L10.7658 8.91306L13.6745 6.31066C14.3012 5.74989 13.9677 4.67853 13.1453 4.60991L9.32728 4.28968ZM9.89464 11.8372L9.10658 8.38477L11.7721 6L8.27709 5.70687L7 2.50005L5.72291 5.70687L2.22792 6L4.89342 8.38477L4.10536 11.8372L7 9.99086L9.89464 11.8372Z" fill="#425366"/>
</svg>
