<svg width="18" height="22" viewBox="0 0 18 22" fill="none" xmlns="http://www.w3.org/2000/svg">
<path fill-rule="evenodd" clip-rule="evenodd" d="M10.6834 0.52689C9.56133 0.491037 8.43842 0.491037 7.31637 0.52689C5.71186 0.577445 4.49988 1.91379 4.49988 3.47752V3.70429C3.55031 3.7914 2.60345 3.9063 1.66051 4.04883C1.31267 4.10071 0.967043 4.15663 0.621648 4.21656C0.213534 4.28738 -0.0598976 4.67564 0.0109222 5.08375C0.0817421 5.49187 0.469995 5.7653 0.87811 5.69448C0.947564 5.68243 1.01701 5.67054 1.08646 5.65883L2.09209 18.731C2.15021 19.4847 2.49068 20.1887 3.0454 20.7022C5.28636 22.0012 12.9627 21.7396 14.9544 20.7022C15.5091 20.1887 15.8495 19.4848 15.9077 18.7312L16.9132 5.65981C16.9827 5.67154 17.0522 5.68343 17.1216 5.69548C17.5298 5.7663 17.918 5.49287 17.9888 5.08475C18.0597 4.67664 17.7862 4.28838 17.3781 4.21756C17.0325 4.15759 16.6873 4.10175 16.3406 4.04904C15.3974 3.90645 14.4497 3.79142 13.4999 3.70429V3.47752C13.4999 1.91257 12.2877 0.577438 10.6834 0.52689ZM12.6921 5.14129C13.6062 5.21206 14.5179 5.30935 15.4262 5.43303L14.4121 18.6159C14.383 18.9927 14.2128 19.3446 13.9354 19.6014C13.6581 19.8581 13.294 20.0006 12.9161 20.0005H5.08388C4.70594 20.0006 4.34167 19.8581 4.06431 19.6014C3.78698 19.3447 3.61676 18.9928 3.58767 18.616L2.57352 5.43303C3.48184 5.30935 4.39361 5.21206 5.30767 5.14129C7.76541 4.95135 10.2343 4.95135 12.6921 5.14129ZM5.99988 3.58998C7.99803 3.46845 10.0017 3.46845 11.9999 3.58998V3.47752C11.9999 2.68262 11.3919 2.04984 10.6364 2.02615C9.54596 1.9913 8.45425 1.99129 7.36384 2.02614C6.60858 2.04982 5.99988 2.6834 5.99988 3.47752V3.58998Z" fill="#245B99"/>
<path d="M7.00933 7.97171C6.99341 7.5578 6.64497 7.23516 6.23107 7.25107C5.81716 7.26699 5.49452 7.61543 5.51043 8.02933L5.85643 17.0293C5.87234 17.4432 6.22078 17.7659 6.63469 17.75C7.0486 17.7341 7.37124 17.3856 7.35533 16.9717L7.00933 7.97171Z" fill="#245B99"/>
<path d="M12.4893 8.02933C12.5052 7.61543 12.1826 7.26699 11.7687 7.25107C11.3548 7.23516 11.0063 7.5578 10.9904 7.97171L10.6444 16.9717C10.6285 17.3856 10.9512 17.7341 11.3651 17.75C11.779 17.7659 12.1274 17.4432 12.1433 17.0293L12.4893 8.02933Z" fill="#245B99"/>
</svg>
