<svg width="12" height="12" viewBox="0 0 12 12" fill="none" xmlns="http://www.w3.org/2000/svg">
<path d="M6.00062 6C6.79627 6 7.55933 5.68393 8.12194 5.12132C8.68455 4.55871 9.00062 3.79565 9.00062 3C9.00062 2.20435 8.68455 1.44129 8.12194 0.87868C7.55933 0.316071 6.79627 0 6.00062 0C5.20497 0 4.44191 0.316071 3.8793 0.87868C3.31669 1.44129 3.00062 2.20435 3.00062 3C3.00062 3.79565 3.31669 4.55871 3.8793 5.12132C4.44191 5.68393 5.20497 6 6.00062 6ZM10.7356 12C11.3536 12 11.8286 11.439 11.6076 10.861C11.1741 9.72507 10.4058 8.74759 9.40448 8.05797C8.40314 7.36834 7.21596 6.99908 6.00012 6.99908C4.78428 6.99908 3.59711 7.36834 2.59577 8.05797C1.59443 8.74759 0.826145 9.72507 0.392623 10.861C0.172623 11.439 0.646623 12 1.26462 12H10.7356Z" fill="#425366"/>
</svg>
