<svg width="64" height="64" viewBox="0 0 64 64" fill="none" xmlns="http://www.w3.org/2000/svg">
<rect width="64" height="64" rx="32" fill="#EBF0F5"/>
<path d="M49.4802 26.6025L42.8327 33.25L39.0827 29.5M34.916 22.625C34.916 23.3637 34.7705 24.0951 34.4878 24.7776C34.2052 25.4601 33.7908 26.0801 33.2685 26.6025C32.7462 27.1248 32.1261 27.5391 31.4436 27.8218C30.7612 28.1045 30.0297 28.25 29.291 28.25C28.5523 28.25 27.8209 28.1045 27.1384 27.8218C26.456 27.5391 25.8359 27.1248 25.3135 26.6025C24.7912 26.0801 24.3769 25.4601 24.0942 24.7776C23.8115 24.0951 23.666 23.3637 23.666 22.625C23.666 21.1332 24.2586 19.7024 25.3135 18.6475C26.3684 17.5926 27.7992 17 29.291 17C30.7829 17 32.2136 17.5926 33.2685 18.6475C34.3234 19.7024 34.916 21.1332 34.916 22.625ZM18.666 44.0583V43.875C18.666 41.0571 19.7854 38.3546 21.778 36.362C23.7706 34.3694 26.4731 33.25 29.291 33.25C32.1089 33.25 34.8115 34.3694 36.804 36.362C38.7966 38.3546 39.916 41.0571 39.916 43.875V44.0567C36.7085 45.9885 33.0337 47.0063 29.2893 47C25.4043 47 21.7693 45.925 18.666 44.0567V44.0583Z" stroke="#245B99" stroke-width="2.5" stroke-linecap="round" stroke-linejoin="round"/>
</svg>
