<svg width="24" height="24" viewBox="0 0 24 24" fill="none" xmlns="http://www.w3.org/2000/svg">
<path d="M10.6929 3.43463C11.3943 2.66482 12.6057 2.66482 13.3071 3.43463C13.7724 3.94531 14.4924 4.13825 15.1507 3.92863C16.143 3.61264 17.1922 4.21836 17.4147 5.23572C17.5623 5.91061 18.0894 6.43774 18.7643 6.58535C19.7817 6.80785 20.3874 7.85698 20.0714 8.84929C19.8618 9.50757 20.0547 10.2276 20.5654 10.6929C21.3352 11.3943 21.3352 12.6057 20.5654 13.3071C20.0547 13.7724 19.8618 14.4924 20.0714 15.1507C20.3874 16.143 19.7817 17.1922 18.7643 17.4147C18.0894 17.5623 17.5623 18.0894 17.4147 18.7643C17.1922 19.7817 16.143 20.3874 15.1507 20.0714C14.4924 19.8618 13.7724 20.0547 13.3071 20.5654C12.6057 21.3352 11.3943 21.3352 10.6929 20.5654C10.2276 20.0547 9.50757 19.8618 8.84929 20.0714C7.85698 20.3874 6.80785 19.7817 6.58535 18.7643C6.43774 18.0894 5.91061 17.5623 5.23572 17.4147C4.21836 17.1922 3.61264 16.143 3.92863 15.1507C4.13825 14.4924 3.94531 13.7724 3.43463 13.3071C2.66482 12.6057 2.66482 11.3943 3.43463 10.6929C3.94531 10.2276 4.13825 9.50757 3.92863 8.84929C3.61264 7.85698 4.21836 6.80785 5.23572 6.58535C5.91061 6.43774 6.43774 5.91061 6.58535 5.23572C6.80785 4.21836 7.85698 3.61264 8.84929 3.92863C9.50757 4.13825 10.2276 3.94531 10.6929 3.43463Z" fill="#B4D3A3" fill-opacity="0.1"/>
<path d="M8.5 12.5L11 15L16 10" stroke="#B4D3A3" stroke-width="1.37139" stroke-linecap="round" stroke-linejoin="round"/>
</svg>
