<svg width="78" height="72" viewBox="0 0 78 72" fill="none" xmlns="http://www.w3.org/2000/svg">
<path d="M8.03362 47.2032L54.4577 49.3635L56.6179 2.93942L10.1939 0.779164L8.03362 47.2032Z" fill="#1A2633"/>
<circle cx="54" cy="48" r="24" fill="white"/>
<path d="M51.141 29.2633C52.6753 27.5793 55.3253 27.5793 56.8596 29.2633C57.8774 30.3804 59.4526 30.8025 60.8926 30.3439C63.0633 29.6527 65.3583 30.9777 65.845 33.2032C66.1679 34.6796 67.321 35.8327 68.7974 36.1556C71.0229 36.6423 72.3479 38.9373 71.6567 41.108C71.1981 42.548 71.6202 44.1232 72.7373 45.141C74.4213 46.6753 74.4213 49.3253 72.7373 50.8596C71.6202 51.8774 71.1981 53.4526 71.6567 54.8926C72.3479 57.0633 71.0229 59.3583 68.7974 59.845C67.321 60.1679 66.1679 61.321 65.845 62.7974C65.3583 65.0229 63.0633 66.3479 60.8926 65.6567C59.4526 65.1981 57.8774 65.6202 56.8596 66.7373C55.3253 68.4213 52.6753 68.4213 51.141 66.7373C50.1232 65.6202 48.548 65.1981 47.108 65.6567C44.9373 66.3479 42.6423 65.0229 42.1556 62.7974C41.8327 61.321 40.6796 60.1679 39.2032 59.845C36.9777 59.3583 35.6527 57.0633 36.3439 54.8926C36.8025 53.4526 36.3804 51.8774 35.2633 50.8596C33.5793 49.3253 33.5793 46.6753 35.2633 45.141C36.3804 44.1232 36.8025 42.548 36.3439 41.108C35.6527 38.9373 36.9777 36.6423 39.2032 36.1556C40.6796 35.8327 41.8327 34.6796 42.1556 33.2032C42.6423 30.9777 44.9373 29.6527 47.108 30.3439C48.548 30.8025 50.1232 30.3804 51.141 29.2633Z" fill="#004A99"/>
<path d="M46.3437 49.0938L51.8126 54.5627L62.7502 43.625" stroke="white" stroke-width="2.99986" stroke-linecap="round" stroke-linejoin="round"/>
</svg>
