<?xml version="1.0" encoding="UTF-8"?>
<svg version="1.1" xmlns="http://www.w3.org/2000/svg" width="100" height="64">
<path d="M0 0 C0.66894287 -0.01023193 1.33788574 -0.02046387 2.02709961 -0.03100586 C9.62818133 0.10297105 14.7930764 2.90407289 20.25 8 C21.10335937 8.78503906 21.95671875 9.57007813 22.8359375 10.37890625 C24.875 12.4375 24.875 12.4375 25.875 14.4375 C28.64729377 15.3155345 28.64729377 15.3155345 31.875 16 C37.78187023 17.34437023 37.78187023 17.34437023 38.875 18.4375 C40.20729593 28.30959445 38.37399695 43.43950611 33.875 52.4375 C32.39 52.35048828 32.39 52.35048828 30.875 52.26171875 C21.01529136 51.83936079 21.01529136 51.83936079 12.390625 56.24609375 C7.34274017 60.21414754 -1.99568544 59.13055122 -8.125 58.4375 C-15.96001868 56.1859418 -21.83555972 51.15203903 -26.44140625 44.55078125 C-30.33063128 37.43634523 -30.02369765 29.27351281 -29.125 21.4375 C-26.644186 12.98516912 -20.89275916 6.21220834 -13.1875 2 C-8.87587208 0.27831725 -4.59496399 0.05433145 0 0 Z " fill="#FEE39E" transform="translate(29.125,5.5625)"/>
<path d="M0 0 C6.07570472 1.15018909 10.75781524 5.24023825 14.25 10.1875 C17.92976004 13.95089095 21.3906182 14.4383561 26.453125 15.45703125 C29 16 29 16 30 17 C31.33229593 26.87209445 29.49899695 42.00200611 25 51 C17.52334863 51.47498726 10.81724473 50.24285525 3.51953125 48.66796875 C-0.46706761 47.91135565 -3.96622783 47.75303436 -8 48 C-8 47.34 -8 46.68 -8 46 C-9.7015625 45.814375 -9.7015625 45.814375 -11.4375 45.625 C-16.03337785 45.05770917 -20.49901249 44.07315212 -25 43 C-25 41.02 -25 39.04 -25 37 C-20.05 37.66 -15.1 38.32 -10 39 C-9.34 40.98 -8.68 42.96 -8 45 C-7.01 45 -6.02 45 -5 45 C-4.92652344 44.1325415 -4.92652344 44.1325415 -4.8515625 43.24755859 C-4.21650968 36.3126176 -3.17065703 29.48776475 -2 22.625 C-1.82210937 21.55894531 -1.64421875 20.49289063 -1.4609375 19.39453125 C-0.02559599 10.87888571 -0.02559599 10.87888571 1 7 C-0.32 7.33 -1.64 7.66 -3 8 C-2.67 6.35 -2.34 4.7 -2 3 C-1.34 3 -0.68 3 0 3 C0 2.01 0 1.02 0 0 Z " fill="#E17481" transform="translate(38,7)"/>
<path d="M0 0 C0.99 0 1.98 0 3 0 C3.05896868 3.14575207 3.09391603 6.2913586 3.125 9.4375 C3.14175781 10.31599609 3.15851562 11.19449219 3.17578125 12.09960938 C3.21967784 18.04759738 2.48881322 23.2381756 1 29 C2.65 28.34 4.3 27.68 6 27 C5.67 28.32 5.34 29.64 5 31 C3.68 31.33 2.36 31.66 1 32 C0.67 34.97 0.34 37.94 0 41 C11.88 42.98 11.88 42.98 24 45 C25.32 35.43 26.64 25.86 28 16 C28.66 16.33 29.32 16.66 30 17 C30.8623809 27.22879566 29.66380113 41.67239775 25 51 C17.52334863 51.47498726 10.81724473 50.24285525 3.51953125 48.66796875 C-0.46706761 47.91135565 -3.96622783 47.75303436 -8 48 C-8 47.34 -8 46.68 -8 46 C-9.7015625 45.814375 -9.7015625 45.814375 -11.4375 45.625 C-16.03337785 45.05770917 -20.49901249 44.07315212 -25 43 C-25 41.02 -25 39.04 -25 37 C-20.05 37.66 -15.1 38.32 -10 39 C-9.34 40.98 -8.68 42.96 -8 45 C-7.01 45 -6.02 45 -5 45 C-4.92652344 44.1325415 -4.92652344 44.1325415 -4.8515625 43.24755859 C-4.21650968 36.3126176 -3.17065703 29.48776475 -2 22.625 C-1.82210937 21.55894531 -1.64421875 20.49289063 -1.4609375 19.39453125 C-0.02559599 10.87888571 -0.02559599 10.87888571 1 7 C-0.32 7.33 -1.64 7.66 -3 8 C-2.67 6.35 -2.34 4.7 -2 3 C-1.34 3 -0.68 3 0 3 C0 2.01 0 1.02 0 0 Z " fill="#9B4B50" transform="translate(38,7)"/>
<path d="M0 0 C1.05445313 0.10699219 2.10890625 0.21398437 3.1953125 0.32421875 C4.24460937 0.42347656 5.29390625 0.52273437 6.375 0.625 C8.77192505 0.93971562 10.99894423 1.35567989 13.3203125 2.01171875 C12.86081664 12.89701734 11.39994537 23.32580646 9.3203125 34.01171875 C8.6603125 33.02171875 8.0003125 32.03171875 7.3203125 31.01171875 C3.98181195 30.20456055 3.98181195 30.20456055 0.1953125 29.82421875 C-1.72667969 29.58638672 -1.72667969 29.58638672 -3.6875 29.34375 C-5.16863281 29.17939453 -5.16863281 29.17939453 -6.6796875 29.01171875 C-7.3396875 30.33171875 -7.9996875 31.65171875 -8.6796875 33.01171875 C-8.24947243 25.57938262 -7.35802238 18.24288626 -6.2421875 10.88671875 C-6.11996826 10.04520264 -5.99774902 9.20368652 -5.87182617 8.33666992 C-5.68583862 7.1510144 -5.68583862 7.1510144 -5.49609375 5.94140625 C-5.38724854 5.23226074 -5.27840332 4.52311523 -5.16625977 3.79248047 C-4.30243627 0.63105119 -3.20488235 0.01401552 0 0 Z " fill="#E98792" transform="translate(20.6796875,15.98828125)"/>
<path d="M0 0 C0.99 0 1.98 0 3 0 C3.05896868 3.14575207 3.09391603 6.2913586 3.125 9.4375 C3.14175781 10.31599609 3.15851562 11.19449219 3.17578125 12.09960938 C3.21967784 18.04759738 2.48881322 23.2381756 1 29 C2.65 28.34 4.3 27.68 6 27 C5.67 28.32 5.34 29.64 5 31 C3.68 31.33 2.36 31.66 1 32 C0.67 34.97 0.34 37.94 0 41 C5.94 41.99 11.88 42.98 18 44 C18 44.33 18 44.66 18 45 C15.10410348 45.02706445 12.20846205 45.04687029 9.3125 45.0625 C8.08756836 45.07506836 8.08756836 45.07506836 6.83789062 45.08789062 C2.75500916 45.10442051 -1.01651707 45.03035098 -5 44 C-4.28030826 36.8405665 -3.20037123 29.78099811 -2 22.6875 C-1.82210937 21.61693359 -1.64421875 20.54636719 -1.4609375 19.44335938 C-0.01805966 10.84531496 -0.01805966 10.84531496 1 7 C-0.32 7.33 -1.64 7.66 -3 8 C-2.67 6.35 -2.34 4.7 -2 3 C-1.34 3 -0.68 3 0 3 C0 2.01 0 1.02 0 0 Z " fill="#A45358" transform="translate(38,7)"/>
<path d="M0 0 C0.99 0 1.98 0 3 0 C1.60772462 12.78695018 -0.59998579 25.36761082 -3 38 C-3.99 38 -4.98 38 -6 38 C-5.50142602 26.49841411 -3.94076714 15.33945075 -2 4 C-3.32 3.67 -4.64 3.34 -6 3 C-4.35 3 -2.7 3 -1 3 C-0.67 2.01 -0.34 1.02 0 0 Z " fill="#F0C589" transform="translate(36,14)"/>
<path d="M0 0 C7.425 0.99 7.425 0.99 15 2 C15.66 3.98 16.32 5.96 17 8 C19.03243548 8.96877057 19.03243548 8.96877057 21 9 C19.02 9.99 19.02 9.99 17 11 C17 10.34 17 9.68 17 9 C15.865625 8.87625 14.73125 8.7525 13.5625 8.625 C8.96662215 8.05770917 4.50098751 7.07315212 0 6 C0 4.02 0 2.04 0 0 Z " fill="#C76068" transform="translate(13,44)"/>
<path d="M0 0 C6.08589811 2.98084806 9.78971649 6.7275477 14 12 C8.88693122 13.74087818 4.15886631 12.04405628 -1 11 C-0.67 7.37 -0.34 3.74 0 0 Z " fill="#FCE09D" transform="translate(41,8)"/>
<path d="M0 0 C0.99 0.33 1.98 0.66 3 1 C2.690625 1.6496875 2.38125 2.299375 2.0625 2.96875 C0.7189689 6.8017652 0.37553769 10.47340142 0 14.5 C-0.45080635 19.33364585 -0.88206804 23.55234289 -3 28 C-3.66 28 -4.32 28 -5 28 C-5 29.65 -5 31.3 -5 33 C-5.33 33 -5.66 33 -6 33 C-5.56978493 25.56766387 -4.67833488 18.23116751 -3.5625 10.875 C-3.44028076 10.03348389 -3.31806152 9.19196777 -3.19213867 8.32495117 C-3.00615112 7.13929565 -3.00615112 7.13929565 -2.81640625 5.9296875 C-2.70756104 5.22054199 -2.59871582 4.51139648 -2.48657227 3.78076172 C-2 2 -2 2 0 0 Z " fill="#EFA8A8" transform="translate(18,16)"/>
<path d="M0 0 C0.99 0 1.98 0 3 0 C3.24634328 6.88575081 2.62528658 13.09954369 1.125 19.8125 C0.75266286 21.55414526 0.38287405 23.29633725 0.015625 25.0390625 C-0.16162109 25.87985352 -0.33886719 26.72064453 -0.52148438 27.58691406 C-1.38680444 31.95059951 -1.95818136 36.34784422 -2.5078125 40.76171875 C-2.67023437 41.50035156 -2.83265625 42.23898438 -3 43 C-3.99 43.495 -3.99 43.495 -5 44 C-4.28030826 36.8405665 -3.20037123 29.78099811 -2 22.6875 C-1.82210937 21.61693359 -1.64421875 20.54636719 -1.4609375 19.44335938 C-0.01805966 10.84531496 -0.01805966 10.84531496 1 7 C-0.32 7.33 -1.64 7.66 -3 8 C-2.67 6.35 -2.34 4.7 -2 3 C-1.34 3 -0.68 3 0 3 C0 2.01 0 1.02 0 0 Z " fill="#D18E51" transform="translate(38,7)"/>
<path d="M0 0 C4.62 0.66 9.24 1.32 14 2 C14.33 3.32 14.66 4.64 15 6 C16.32 6.33 17.64 6.66 19 7 C17.02 7.99 17.02 7.99 15 9 C15 8.34 15 7.68 15 7 C13.8553125 6.814375 13.8553125 6.814375 12.6875 6.625 C10 6 10 6 7 4 C5.78285872 3.43182698 4.55309144 2.88996248 3.3125 2.375 C2.219375 1.92125 1.12625 1.4675 0 1 C0 0.67 0 0.34 0 0 Z " fill="#9E6868" transform="translate(15,46)"/>
<path d="M0 0 C0.33 0 0.66 0 1 0 C0.62658947 10.03057937 -0.35231944 19.27518586 -3 29 C-3.66 28.67 -4.32 28.34 -5 28 C-4.35521649 24.27065103 -3.70898862 20.54155374 -3.0625 16.8125 C-2.78889648 15.22985352 -2.78889648 15.22985352 -2.50976562 13.61523438 C-2.33251953 12.59365234 -2.15527344 11.57207031 -1.97265625 10.51953125 C-1.72914429 9.11344604 -1.72914429 9.11344604 -1.48071289 7.67895508 C-1.02006641 5.11182768 -0.52083305 2.55552716 0 0 Z " fill="#D95D68" transform="translate(65,23)"/>
<path d="M0 0 C0.33 0 0.66 0 1 0 C1.21824777 6.0018137 0.5056904 11.19233704 -1 17 C0.65 16.34 2.3 15.68 4 15 C3.67 16.32 3.34 17.64 3 19 C1.02 18.67 -0.96 18.34 -3 18 C-2.57045059 11.74892565 -1.98598493 5.95795479 0 0 Z " fill="#C04F50" transform="translate(40,19)"/>
<path d="M0 0 C0.66 0 1.32 0 2 0 C2.33 0.99 2.66 1.98 3 3 C2.67 3.66 2.34 4.32 2 5 C0.41705218 5.05437607 -1.16644256 5.09296271 -2.75 5.125 C-3.63171875 5.14820313 -4.5134375 5.17140625 -5.421875 5.1953125 C-8.1135858 4.99139502 -9.69904974 4.36551721 -12 3 C-10 1 -10 1 -7.87109375 0.83984375 C-6.66646484 0.88818359 -6.66646484 0.88818359 -5.4375 0.9375 C-3.95918728 0.99190191 -2.47917459 1.02026267 -1 1 C-0.67 0.67 -0.34 0.34 0 0 Z " fill="#842F35" transform="translate(61,53)"/>
<path d="M0 0 C0.66 0.33 1.32 0.66 2 1 C2.02725341 2.7290774 2.04650987 4.45828176 2.0625 6.1875 C2.07410156 7.15042969 2.08570312 8.11335938 2.09765625 9.10546875 C2.00486622 11.85576513 1.62111685 14.32479591 1 17 C0.34 17 -0.32 17 -1 17 C-1.33 18.32 -1.66 19.64 -2 21 C-1.03644647 6.21867882 -1.03644647 6.21867882 0 0 Z " fill="#B64A52" transform="translate(66,23)"/>
<path d="M0 0 C0.99 0 1.98 0 3 0 C3 2.97 3 5.94 3 9 C0.03 8.505 0.03 8.505 -3 8 C-2.67 6.35 -2.34 4.7 -2 3 C-1.34 3 -0.68 3 0 3 C0 2.01 0 1.02 0 0 Z " fill="#A27373" transform="translate(38,7)"/>
<path d="M0 0 C5.28 0 10.56 0 16 0 C16.33 0.99 16.66 1.98 17 3 C11.72 3 6.44 3 1 3 C0.67 2.01 0.34 1.02 0 0 Z " fill="#8A373C" transform="translate(33,51)"/>
<path d="M0 0 C4.05606165 0.46800711 7.46588679 0.87953208 11 3 C6.47907032 4.45606519 3.48351204 3.27032841 -1 2 C-0.67 1.34 -0.34 0.68 0 0 Z " fill="#B64B4D" transform="translate(15,48)"/>
<path d="M0 0 C1.32 0.33 2.64 0.66 4 1 C3.67 2.98 3.34 4.96 3 7 C2.01 7 1.02 7 0 7 C0 4.69 0 2.38 0 0 Z " fill="#E3DEE0" transform="translate(30,45)"/>
<path d="M0 0 C0.99 0.33 1.98 0.66 3 1 C2.690625 1.70125 2.38125 2.4025 2.0625 3.125 C0.96697322 6.08936657 0.43577008 8.87698108 0 12 C-0.33 12 -0.66 12 -1 12 C-1.02687279 10.18757948 -1.04633715 8.37504767 -1.0625 6.5625 C-1.07410156 5.55316406 -1.08570312 4.54382813 -1.09765625 3.50390625 C-1 1 -1 1 0 0 Z " fill="#F0A5B1" transform="translate(18,16)"/>
<path d="M0 0 C2.475 0.495 2.475 0.495 5 1 C4.01 1.33 3.02 1.66 2 2 C1.67 4.64 1.34 7.28 1 10 C0.67 10 0.34 10 0 10 C0 6.7 0 3.4 0 0 Z " fill="#CC5F69" transform="translate(37,37)"/>
</svg>
