<?xml version="1.0" encoding="UTF-8"?>
<svg version="1.1" xmlns="http://www.w3.org/2000/svg" width="101" height="68">
<path d="M0 0 C3.85365778 1.64137276 5.70256714 1.38372128 9.8125 0.9375 C15.36665717 0.36996844 19.61815446 0.28876063 24.375 3.4375 C28.0712869 6.92071773 30.25488184 10.02010574 30.6875 15.125 C30.6339562 21.01481834 27.56894676 24.64657986 24.375 29.4375 C24.375 30.7575 24.375 32.0775 24.375 33.4375 C22.065 33.1075 19.755 32.7775 17.375 32.4375 C17.33375 33.406875 17.2925 34.37625 17.25 35.375 C16.23428252 42.24848544 11.70521684 47.68039557 6.375 51.875 C-1.08241832 57.32823715 -9.73369106 57.44322363 -18.625 56.4375 C-26.03316402 54.06924734 -32.65996219 50.29097595 -36.625 43.4375 C-41.06204387 34.36807071 -42.12823589 26.38444078 -39 16.75 C-35.4274033 7.92431687 -30.19625877 3.38844214 -21.625 -0.5625 C-15.14825846 -2.72141385 -6.26260982 -2.69940078 0 0 Z " fill="#CCCFFE" transform="translate(40.625,8.5625)"/>
<path d="M0 0 C2.25 1.0390625 2.25 1.0390625 4.1875 3.1015625 C7.46590617 6.18127739 10.91049934 6.0390625 15.25 6.0390625 C15.62034447 10.66836842 15.73658988 14.06588274 13.625 18.2890625 C8.97922012 23.66838657 4.78607612 26.44657135 -1.703125 29.125 C-3.98565808 30.14429912 -5.77622403 31.52077329 -7.75 33.0390625 C-8.74 33.0390625 -9.73 33.0390625 -10.75 33.0390625 C-10.42 31.3890625 -10.09 29.7390625 -9.75 28.0390625 C-10.61625 27.7915625 -11.4825 27.5440625 -12.375 27.2890625 C-17.26005376 25.47978333 -20.69775928 23.61742357 -23.625 19.2265625 C-25.48913921 13.94483473 -25.4248511 10.54449957 -23.125 5.4140625 C-16.61229829 -4.48973562 -10.69753244 -3.73805821 0 0 Z " fill="#6E6DE0" transform="translate(39.75,26.9609375)"/>
<path d="M0 0 C4.33441598 3.72961375 6.45700381 6.49734251 7.1875 12.25 C6.90559795 17.90972577 3.75713525 21.70804713 0.6875 26.3125 C0.6875 27.6325 0.6875 28.9525 0.6875 30.3125 C-2.6125 29.6525 -5.9125 28.9925 -9.3125 28.3125 C-9.539375 26.930625 -9.76625 25.54875 -10 24.125 C-11.0608603 19.4891858 -12.40630832 17.22136615 -16.3125 14.3125 C-19.25300738 12.81264389 -22.23798417 11.51149419 -25.3125 10.3125 C-24.51178098 6.44923711 -22.9939791 4.23774993 -20.3125 1.3125 C-19.6525 1.3125 -18.9925 1.3125 -18.3125 1.3125 C-18.3125 0.6525 -18.3125 -0.0075 -18.3125 -0.6875 C-11.85911995 -3.50051182 -6.20662555 -3.16186585 0 0 Z " fill="#F4C9B7" transform="translate(64.3125,11.6875)"/>
<path d="M0 0 C0.845625 0.13277344 1.69125 0.26554687 2.5625 0.40234375 C8.700297 1.35788715 14.83070189 2.27420022 21 3 C21 6.21149268 20.56200363 8.33333753 18.46875 10.81640625 C14.31969544 14.62793851 10.19255821 17.07702147 4.9765625 19.15625 C2.70225233 20.12710177 0.95133458 21.4989734 -1 23 C-1.99 23 -2.98 23 -4 23 C-3.67 21.35 -3.34 19.7 -3 18 C-3.9075 17.7525 -4.815 17.505 -5.75 17.25 C-9.10351489 15.96018658 -10.67708236 14.68028958 -13 12 C-12.071875 11.7525 -11.14375 11.505 -10.1875 11.25 C-6.69439537 9.88015505 -6.10559082 8.92951767 -4 6 C-1.3125 4.75 -1.3125 4.75 1 4 C0.67 2.68 0.34 1.36 0 0 Z " fill="#1A1786" transform="translate(33,37)"/>
<path d="M0 0 C2.66916589 0.61009506 4.55724946 0.15756263 7.1875 -0.5 C7.1875 1.48 7.1875 3.46 7.1875 5.5 C14.78904046 5.17021516 21.16069219 3.37217429 28.1875 0.5 C28.7476337 8.48190528 26.59594635 11.88733047 22.1875 18.5 C22.1875 19.82 22.1875 21.14 22.1875 22.5 C18.8875 21.84 15.5875 21.18 12.1875 20.5 C11.960625 19.118125 11.73375 17.73625 11.5 16.3125 C10.4391397 11.6766858 9.09369168 9.40886615 5.1875 6.5 C2.24699262 5.00014389 -0.73798417 3.69899419 -3.8125 2.5 C-3.8125 1.84 -3.8125 1.18 -3.8125 0.5 C-1.8125 -0.5 -1.8125 -0.5 0 0 Z " fill="#E8BFA5" transform="translate(42.8125,19.5)"/>
<path d="M0 0 C1.89693861 0.28438952 3.79252027 0.57783792 5.6875 0.875 C6.74324219 1.03742187 7.79898438 1.19984375 8.88671875 1.3671875 C12.99129011 2.20149184 16.03638761 2.97421907 18.9375 6.0625 C22.21590617 9.14221489 25.66049934 9 30 9 C30 10.65 30 12.3 30 14 C19.7243079 14.36553845 13.04914257 11.68552441 4 7 C4 6.01 4 5.02 4 4 C3.01 3.67 2.02 3.34 1 3 C0.67 2.01 0.34 1.02 0 0 Z " fill="#4088EB" transform="translate(25,24)"/>
<path d="M0 0 C0.845625 0.13277344 1.69125 0.26554687 2.5625 0.40234375 C8.700297 1.35788715 14.83070189 2.27420022 21 3 C20.67 4.98 20.34 6.96 20 9 C19.01 8.89300781 18.02 8.78601562 17 8.67578125 C7.45301449 7.76205533 0.8586627 7.82533645 -7 14 C-9.25 14.6875 -9.25 14.6875 -11 15 C-11.66 14.01 -12.32 13.02 -13 12 C-12.071875 11.7525 -11.14375 11.505 -10.1875 11.25 C-6.69439537 9.88015505 -6.10559082 8.92951767 -4 6 C-1.3125 4.75 -1.3125 4.75 1 4 C0.67 2.68 0.34 1.36 0 0 Z " fill="#2E35C6" transform="translate(33,37)"/>
<path d="M0 0 C0.99 0.33 1.98 0.66 3 1 C2.01 2.485 2.01 2.485 1 4 C0.34 4 -0.32 4 -1 4 C-1.16777183 5.79156352 -1.33418294 7.5832545 -1.5 9.375 C-1.5928125 10.37273438 -1.685625 11.37046875 -1.78125 12.3984375 C-2.02792947 14.89703736 -2.02792947 14.89703736 -2 17 C-1.34 17 -0.68 17 0 17 C0 17.66 0 18.32 0 19 C1.32 19 2.64 19 4 19 C4.06058594 18.39671875 4.12117188 17.7934375 4.18359375 17.171875 C4.26738281 16.37265625 4.35117187 15.5734375 4.4375 14.75 C4.51871094 13.96109375 4.59992187 13.1721875 4.68359375 12.359375 C4.97634993 10.17635361 5.42064419 8.1226818 6 6 C9.79557881 6 11.62902617 6.50178941 15 8 C14.01 8.495 14.01 8.495 13 9 C13.66 10.32 14.32 11.64 15 13 C14.0925 13.391875 13.185 13.78375 12.25 14.1875 C8.89550852 15.77456269 8.89550852 15.77456269 7 18.625 C5 21 5 21 1.75 21.8125 C0.8425 21.874375 -0.065 21.93625 -1 22 C-4.18753597 17.11908555 -5.85757274 14.00300919 -5 8 C-3.71634415 5.11033525 -2.25848299 2.25848299 0 0 Z " fill="#4F4BD6" transform="translate(20,28)"/>
<path d="M0 0 C5.01476683 1.66928965 8.91145882 3.55928374 12.125 7.8125 C12.558125 8.8953125 12.558125 8.8953125 13 10 C12.34 10.66 11.68 11.32 11 12 C6.81703701 11.72719807 4.0467944 10.92961 1 8 C1 7.34 1 6.68 1 6 C0.41992188 5.87882812 -0.16015625 5.75765625 -0.7578125 5.6328125 C-5.28028442 4.66264526 -9.63750966 3.56602217 -14 2 C-9.48326651 -1.01115566 -5.29248916 -0.67622417 0 0 Z " fill="#92CAF5" transform="translate(41,22)"/>
<path d="M0 0 C2.28393283 1.46588958 3.89822453 2.6519178 5.125 5.10546875 C4.51921747 7.12474386 3.85580266 9.12800272 3.125 11.10546875 C0.8125 10.48046875 0.8125 10.48046875 -1.875 9.10546875 C-2.89122658 7.11366466 -3.89212992 5.1139424 -4.875 3.10546875 C-7.93641383 1.86238927 -10.21244983 2.16523849 -13.375 2.91796875 C-14.1278125 3.08941406 -14.880625 3.26085937 -15.65625 3.4375 C-17.89124052 4.11035806 -19.82357339 5.00049578 -21.875 6.10546875 C-20.5 4.10546875 -20.5 4.10546875 -18.875 2.10546875 C-18.215 2.10546875 -17.555 2.10546875 -16.875 2.10546875 C-16.875 1.44546875 -16.875 0.78546875 -16.875 0.10546875 C-11.27049576 -2.33752028 -5.59694188 -2.67020769 0 0 Z " fill="#FDC2CC" transform="translate(62.875,10.89453125)"/>
<path d="M0 0 C1.89492188 0.15275391 1.89492188 0.15275391 3.828125 0.30859375 C4.79234375 0.39238281 5.7565625 0.47617187 6.75 0.5625 C6.75 1.2225 6.75 1.8825 6.75 2.5625 C2.60714286 5.66964286 2.60714286 5.66964286 -0.25 5.3125 C-0.91 5.065 -1.57 4.8175 -2.25 4.5625 C-5.70041487 3.4728953 -6.97281656 3.45923558 -10.4375 4.75 C-13.24355341 6.55834553 -14.18363297 7.47003562 -15.25 10.5625 C-17.27045442 9.96066251 -19.27111039 9.28943904 -21.25 8.5625 C-21.58 7.9025 -21.91 7.2425 -22.25 6.5625 C-21.363125 6.129375 -20.47625 5.69625 -19.5625 5.25 C-16.31833951 3.65506111 -16.31833951 3.65506111 -13.625 1.9375 C-8.98884088 -0.74659212 -5.3037185 -0.44197654 0 0 Z " fill="#2229A9" transform="translate(45.25,44.4375)"/>
<path d="M0 0 C-0.33 0.598125 -0.66 1.19625 -1 1.8125 C-2.20787988 4.05386471 -2.20787988 4.05386471 -2 7 C-2.33 7.99 -2.66 8.98 -3 10 C-6.3 9.34 -9.6 8.68 -13 8 C-13 5.69 -13 3.38 -13 1 C-11.58366664 0.83052421 -10.16691467 0.66454493 -8.75 0.5 C-7.56664062 0.36078125 -7.56664062 0.36078125 -6.359375 0.21875 C-4 0 -4 0 0 0 Z " fill="#E5556E" transform="translate(68,32)"/>
<path d="M0 0 C1.26328125 0.01804687 2.5265625 0.03609375 3.828125 0.0546875 C4.79234375 0.07789062 5.7565625 0.10109375 6.75 0.125 C5.875 2.57421875 5.875 2.57421875 4.75 5.125 C0.22339891 6.96393169 -5.41714312 6.20945769 -10.25 6.125 C-10.58 4.805 -10.91 3.485 -11.25 2.125 C-7.54583874 -0.25090142 -4.32015427 -0.08000286 0 0 Z " fill="#F18B8F" transform="translate(64.25,26.875)"/>
<path d="M0 0 C1.89693861 0.28438952 3.79252027 0.57783792 5.6875 0.875 C6.74324219 1.03742187 7.79898438 1.19984375 8.88671875 1.3671875 C12.99129011 2.20149184 16.03638761 2.97421907 18.9375 6.0625 C22.21590617 9.14221489 25.66049934 9 30 9 C30 9.99 30 10.98 30 12 C25.58547846 13.05948517 23.65384171 13.3447529 19.5625 11.1875 C18.716875 10.465625 17.87125 9.74375 17 9 C17 8.34 17 7.68 17 7 C14.69 7 12.38 7 10 7 C10 6.34 10 5.68 10 5 C8.63875 4.5978125 8.63875 4.5978125 7.25 4.1875 C4.25433521 3.09293017 2.45876445 1.95097614 0 0 Z " fill="#61A2F2" transform="translate(25,24)"/>
<path d="M0 0 C0.845625 0.13277344 1.69125 0.26554687 2.5625 0.40234375 C8.700297 1.35788715 14.83070189 2.27420022 21 3 C20.67 4.32 20.34 5.64 20 7 C14.06 6.34 8.12 5.68 2 5 C1.34 3.35 0.68 1.7 0 0 Z " fill="#2855D1" transform="translate(33,37)"/>
<path d="M0 0 C2.68260404 1.02570155 5.17559371 2.09800579 7.6875 3.5 C11.39916564 5.18075425 14.87033254 5.7645264 18.875 6.1875 C19.56335938 6.26935547 20.25171875 6.35121094 20.9609375 6.43554688 C22.63947357 6.63370738 24.31960481 6.81827787 26 7 C25.67 8.32 25.34 9.64 25 11 C25 10.34 25 9.68 25 9 C19.06 8.67 13.12 8.34 7 8 C6.67 7.01 6.34 6.02 6 5 C2.99152582 3.77479736 2.99152582 3.77479736 0 3 C0 2.01 0 1.02 0 0 Z " fill="#326EE0" transform="translate(29,31)"/>
<path d="M0 0 C1.77119803 0.14133499 3.54195287 0.28823208 5.3125 0.4375 C6.29863281 0.51871094 7.28476562 0.59992187 8.30078125 0.68359375 C11 1 11 1 14 2 C14 2.66 14 3.32 14 4 C14.7425 4.268125 15.485 4.53625 16.25 4.8125 C18.86636554 5.94229421 20.80187111 7.20893202 23 9 C23.66 8.01 24.32 7.02 25 6 C25.99 7.485 25.99 7.485 27 9 C26.34 9.66 25.68 10.32 25 11 C20.81703701 10.72719807 18.0467944 9.92961 15 7 C15 6.34 15 5.68 15 5 C14.41992188 4.87882812 13.83984375 4.75765625 13.2421875 4.6328125 C8.71971558 3.66264526 4.36249034 2.56602217 0 1 C0 0.67 0 0.34 0 0 Z " fill="#81BAF4" transform="translate(27,23)"/>
<path d="M0 0 C0 2.31 0 4.62 0 7 C-3.12180401 7.96661363 -5.52083795 7.98988909 -8.75 7.5625 C-9.94882812 7.40974609 -9.94882812 7.40974609 -11.171875 7.25390625 C-11.77515625 7.17011719 -12.3784375 7.08632813 -13 7 C-9.97116564 3.34015848 -5.00003895 0 0 0 Z " fill="#FC9FAD" transform="translate(71,20)"/>
<path d="M0 0 C1.6875 1.1875 1.6875 1.1875 3 3 C2.9375 5.5625 2.9375 5.5625 2 8 C-0.0625 9.3125 -0.0625 9.3125 -2 10 C-2.33 9.01 -2.66 8.02 -3 7 C-4.98 7.99 -4.98 7.99 -7 9 C-7 8.34 -7 7.68 -7 7 C-6.34 7 -5.68 7 -5 7 C-5 5.68 -5 4.36 -5 3 C-2.64285714 0 -2.64285714 0 0 0 Z " fill="#5B70EA" transform="translate(26,25)"/>
<path d="M0 0 C-0.33 0.99 -0.66 1.98 -1 3 C-2.794375 3.185625 -2.794375 3.185625 -4.625 3.375 C-8.28342444 3.82178104 -11.51577328 4.78457207 -15 6 C-15.99 6 -16.98 6 -18 6 C-16.625 4.5 -16.625 4.5 -15 3 C-14.34 3 -13.68 3 -13 3 C-13 2.34 -13 1.68 -13 1 C-8.23947038 -0.97387813 -5.03511899 -1.0070238 0 0 Z " fill="#F8D5CF" transform="translate(59,10)"/>
<path d="M0 0 C0.99 0.33 1.98 0.66 3 1 C2.01 2.485 2.01 2.485 1 4 C0.34 4 -0.32 4 -1 4 C-1.19601608 5.74906659 -1.38147403 7.49931846 -1.5625 9.25 C-1.66691406 10.22453125 -1.77132813 11.1990625 -1.87890625 12.203125 C-1.98974468 14.7631352 -1.77738092 16.58148159 -1 19 C-1.99 18.67 -2.98 18.34 -4 18 C-5.36803789 13.89588633 -5.91631317 10.10752029 -4.140625 6.0234375 C-1.66607143 1.66607143 -1.66607143 1.66607143 0 0 Z " fill="#4C45E3" transform="translate(20,28)"/>
<path d="M0 0 C0.80244141 0.00966797 1.60488281 0.01933594 2.43164062 0.02929688 C3.26501953 0.05443359 4.09839844 0.07957031 4.95703125 0.10546875 C6.22450195 0.12577148 6.22450195 0.12577148 7.51757812 0.14648438 C9.60183509 0.18181076 11.68576402 0.23561736 13.76953125 0.29296875 C13.43953125 1.28296875 13.10953125 2.27296875 12.76953125 3.29296875 C11.82851563 3.20917969 10.8875 3.12539063 9.91796875 3.0390625 C8.67273437 2.93722656 7.4275 2.83539063 6.14453125 2.73046875 C4.91476563 2.62605469 3.685 2.52164063 2.41796875 2.4140625 C-0.98674337 2.30105814 -3.90605273 2.60251312 -7.23046875 3.29296875 C-4.91210376 0.51285471 -3.60077825 -0.0766123 0 0 Z " fill="#223ABC" transform="translate(39.23046875,42.70703125)"/>
<path d="M0 0 C-0.33 0.66 -0.66 1.32 -1 2 C-5.80603519 3.55033393 -11.00819059 3.0872355 -16 3 C-16 2.01 -16 1.02 -16 0 C-10.31302429 -0.91397824 -5.68697571 -0.91397824 0 0 Z " fill="#F36F80" transform="translate(70,30)"/>
<path d="M0 0 C4.455 1.98 4.455 1.98 9 4 C9 4.66 9 5.32 9 6 C11.31 6 13.62 6 16 6 C16 6.33 16 6.66 16 7 C14.39773045 7.22245393 12.79303233 7.42746669 11.1875 7.625 C10.29417969 7.74101563 9.40085937 7.85703125 8.48046875 7.9765625 C6 8 6 8 3 6 C3 5.01 3 4.02 3 3 C2.01 2.67 1.02 2.34 0 2 C0 1.34 0 0.68 0 0 Z " fill="#4F89F0" transform="translate(26,25)"/>
<path d="M0 0 C1.72880982 -0.05449838 3.45812712 -0.09301688 5.1875 -0.125 C6.15042969 -0.14820312 7.11335938 -0.17140625 8.10546875 -0.1953125 C11.12812778 0.0086456 13.26769985 0.73125368 16 2 C16 2.66 16 3.32 16 4 C14.08025553 3.76424191 12.16067403 3.52703475 10.2421875 3.28125 C8.18453017 3.02314664 6.12359802 2.79151089 4.0625 2.5625 C3.051875 2.376875 2.04125 2.19125 1 2 C0.67 1.34 0.34 0.68 0 0 Z " fill="#AACDF4" transform="translate(30,22)"/>
<path d="M0 0 C5.75 1.75 5.75 1.75 8 4 C5 5 2 6 -1 7 C-1.625 4.625 -1.625 4.625 -2 2 C-1.34 1.34 -0.68 0.68 0 0 Z " fill="#455EE0" transform="translate(27,33)"/>
<path d="M0 0 C2 3 2 3 1.6875 5.4375 C1.460625 6.283125 1.23375 7.12875 1 8 C0.814375 8.763125 0.62875 9.52625 0.4375 10.3125 C0.2209375 11.1478125 0.2209375 11.1478125 0 12 C-1.32 12 -2.64 12 -4 12 C-4 11.34 -4 10.68 -4 10 C-3.34 10 -2.68 10 -2 10 C-1.93941406 9.36191406 -1.87882812 8.72382812 -1.81640625 8.06640625 C-1.73261719 7.24011719 -1.64882813 6.41382813 -1.5625 5.5625 C-1.48128906 4.73878906 -1.40007813 3.91507813 -1.31640625 3.06640625 C-1 1 -1 1 0 0 Z " fill="#6060DB" transform="translate(24,35)"/>
<path d="M0 0 C0.66 0 1.32 0 2 0 C2.33 1.65 2.66 3.3 3 5 C1.68 5.33 0.36 5.66 -1 6 C-0.67 4.02 -0.34 2.04 0 0 Z M-6 4 C-3.525 4.99 -3.525 4.99 -1 6 C-4.26545761 7.88391785 -7.28111761 8.49287967 -11 9 C-9.625 7.5 -9.625 7.5 -8 6 C-7.34 6 -6.68 6 -6 6 C-6 5.34 -6 4.68 -6 4 Z " fill="#FBADB7" transform="translate(67,16)"/>
<path d="M0 0 C0.66 0.33 1.32 0.66 2 1 C-0.31 2.65 -2.62 4.3 -5 6 C-4.67 7.32 -4.34 8.64 -4 10 C-6.02045442 9.39816251 -8.02111039 8.72693904 -10 8 C-10.33 7.34 -10.66 6.68 -11 6 C-10.113125 5.566875 -9.22625 5.13375 -8.3125 4.6875 C-5.03865593 3.08604236 -5.03865593 3.08604236 -2.25 1.25 C-1.5075 0.8375 -0.765 0.425 0 0 Z " fill="#2C28B3" transform="translate(34,45)"/>
<path d="M0 0 C1.65 0.99 3.3 1.98 5 3 C2.82575883 5.50037734 1.26954202 6.43628586 -2 7 C-2.6875 5.1875 -2.6875 5.1875 -3 3 C-1.5625 1.25 -1.5625 1.25 0 0 Z " fill="#3848D6" transform="translate(30,37)"/>
<path d="M0 0 C0.33 1.32 0.66 2.64 1 4 C-2.57644848 5.2380014 -5.33694766 4.74926071 -9 4 C-8 2 -8 2 -6.15234375 1.3671875 C-5.05599609 1.12355469 -5.05599609 1.12355469 -3.9375 0.875 C-3.20402344 0.70742188 -2.47054687 0.53984375 -1.71484375 0.3671875 C-1.14894531 0.24601562 -0.58304688 0.12484375 0 0 Z " fill="#FE90A6" transform="translate(70,23)"/>
<path d="M0 0 C0.66 0.33 1.32 0.66 2 1 C-4.63358779 6.87977099 -4.63358779 6.87977099 -8 7 C-8.66 6.34 -9.32 5.68 -10 5 C-9.01 5 -8.02 5 -7 5 C-7 4.34 -7 3.68 -7 3 C-5.5459375 2.5359375 -5.5459375 2.5359375 -4.0625 2.0625 C-1.15934208 1.30476658 -1.15934208 1.30476658 0 0 Z " fill="#242480" transform="translate(49,47)"/>
<path d="M0 0 C0 0.33 0 0.66 0 1 C-5.94 1.495 -5.94 1.495 -12 2 C-11 0 -11 0 -8.8125 -1.25 C-5.24165073 -2.20222647 -3.35201065 -1.40316725 0 0 Z " fill="#1E1E9D" transform="translate(44,49)"/>
<path d="M0 0 C5 2 5 2 10 4 C10 4.33 10 4.66 10 5 C8.54054712 4.91291331 7.08234132 4.80473093 5.625 4.6875 C4.81289063 4.62949219 4.00078125 4.57148437 3.1640625 4.51171875 C1 4 1 4 -1 1 C-0.67 0.67 -0.34 0.34 0 0 Z " fill="#3E71E7" transform="translate(29,31)"/>
<path d="M0 0 C2.31 0.33 4.62 0.66 7 1 C6.67 1.99 6.34 2.98 6 4 C3.36 3.67 0.72 3.34 -2 3 C-1.34 2.01 -0.68 1.02 0 0 Z " fill="#FCD8DA" transform="translate(52,9)"/>
<path d="M0 0 C0.66 0.33 1.32 0.66 2 1 C1.26418258 2.1549921 0.51069961 3.29874185 -0.25 4.4375 C-0.66765625 5.07558594 -1.0853125 5.71367188 -1.515625 6.37109375 C-3.27248877 8.29902057 -4.46089803 8.61479436 -7 9 C-7.66 8.01 -8.32 7.02 -9 6 C-8.071875 5.7525 -7.14375 5.505 -6.1875 5.25 C-2.83541675 3.93545755 -1.8122197 3.02036616 0 0 Z " fill="#3833CB" transform="translate(29,43)"/>
<path d="M0 0 C0.99 0.33 1.98 0.66 3 1 C2.01 2.485 2.01 2.485 1 4 C0.34 4 -0.32 4 -1 4 C-1.33 5.65 -1.66 7.3 -2 9 C-2.66 7.68 -3.32 6.36 -4 5 C-2.68 3.35 -1.36 1.7 0 0 Z " fill="#5252E7" transform="translate(20,28)"/>
<path d="M0 0 C2.05078125 0.03255208 4.1015625 0.06510417 6.15234375 0.09765625 C3.93300211 3.42666872 2.80551046 3.84788869 -0.84765625 5.09765625 C-1.50765625 3.77765625 -2.16765625 2.45765625 -2.84765625 1.09765625 C-1.84765625 0.09765625 -1.84765625 0.09765625 0 0 Z " fill="#EAA598" transform="translate(52.84765625,24.90234375)"/>
<path d="M0 0 C3.3 0 6.6 0 10 0 C9.67 0.99 9.34 1.98 9 3 C6.69 3 4.38 3 2 3 C2 2.34 2 1.68 2 1 C1.34 0.67 0.68 0.34 0 0 Z " fill="#FD7F97" transform="translate(61,27)"/>
<path d="M0 0 C2.475 0.495 2.475 0.495 5 1 C5 1.99 5 2.98 5 4 C5.66 4.33 6.32 4.66 7 5 C2.25 4.125 2.25 4.125 0 3 C0 2.01 0 1.02 0 0 Z " fill="#C43041" transform="translate(56,36)"/>
<path d="M0 0 C1.9375 0.375 1.9375 0.375 4 1 C4.33 1.66 4.66 2.32 5 3 C2 5 2 5 -1 5 C-0.67 3.35 -0.34 1.7 0 0 Z " fill="#4642B8" transform="translate(30,55)"/>
</svg>
