<?xml version="1.0" encoding="UTF-8"?>
<svg version="1.1" xmlns="http://www.w3.org/2000/svg" width="100" height="70">
<path d="M0 0 C9.30686925 0.102049 9.30686925 0.102049 13.875 2.1875 C14.4628125 3.43080078 14.4628125 3.43080078 15.0625 4.69921875 C16.73859959 7.57369346 16.73859959 7.57369346 20.4921875 8.0078125 C21.9096284 8.13233535 23.32931438 8.23314639 24.75 8.3125 C29.7487523 8.64939223 33.80433162 8.97885551 37.875 12.1875 C37.875 12.8475 37.875 13.5075 37.875 14.1875 C38.535 14.1875 39.195 14.1875 39.875 14.1875 C43.14222249 21.15757464 43.07457686 28.87402896 43.125 36.4375 C43.145625 37.22640625 43.16625 38.0153125 43.1875 38.828125 C43.21064909 42.25419032 43.15428904 44.60935391 41.6484375 47.7265625 C39.34601275 49.62327363 38.19203099 49.47127628 35.25 49.3125 C31.62398782 49.50722054 30.25570256 49.83984674 27.53515625 52.32421875 C26.04070125 54.12334296 24.54987022 55.92548302 23.0625 57.73046875 C18.69187623 62.6396158 14.54150775 63.90318292 8.1015625 64.58984375 C-1.43759938 65.11187053 -8.52470948 63.55291022 -16.14453125 57.61328125 C-22.46962977 51.90071859 -25.20103272 45.86722836 -25.64648438 37.35302734 C-25.84056389 27.4018313 -23.44071635 20.43630991 -16.5625 13.1875 C-14.73000605 11.42695154 -13.30770425 10.26985027 -10.984375 9.22265625 C-8.69032547 8.219547 -8.69032547 8.219547 -7.9375 4.625 C-7.669375 3.490625 -7.40125 2.35625 -7.125 1.1875 C-5.29299239 -0.64450761 -2.45938305 0.0140056 0 0 Z " fill="#DCA35F" transform="translate(25.125,5.8125)"/>
<path d="M0 0 C0.01981934 0.85118408 0.03963867 1.70236816 0.06005859 2.5793457 C0.1389777 5.79083024 0.22568955 9.00199147 0.31738281 12.21313477 C0.35525157 13.59293755 0.3901708 14.97282502 0.421875 16.3527832 C-0.19864372 29.90669217 -0.19864372 29.90669217 4 42 C6.45060745 42.01694275 8.86920983 41.97122182 11.31640625 41.87890625 C12.04746078 41.85529526 12.77851532 41.83168427 13.53172302 41.80735779 C15.87550456 41.73054916 18.21896982 41.64659969 20.5625 41.5625 C22.14777078 41.50929648 23.73305718 41.45655598 25.31835938 41.40429688 C29.21244132 41.27491096 33.1062541 41.13911869 37 41 C32.59792536 47.70773424 32.59792536 47.70773424 29.6875 50.1875 C29.15511719 50.65542969 28.62273438 51.12335938 28.07421875 51.60546875 C20.21424317 56.88985911 12.0842858 56.94253953 3 56 C-4.83866533 53.7154149 -10.69984171 48.72990046 -15.31640625 42.11328125 C-19.20563128 34.99884523 -18.89869765 26.83601281 -18 19 C-15.79342593 11.4820264 -10.78131093 4.71685705 -3.91015625 0.8125 C-2 0 -2 0 0 0 Z " fill="#E1CAFD" transform="translate(18,14)"/>
<path d="M0 0 C6.5693819 -0.85447904 13.91210327 -0.7792572 20 2 C20.38671875 2.82757813 20.7734375 3.65515625 21.171875 4.5078125 C22.87763646 7.40357844 22.87763646 7.40357844 26.7578125 7.85546875 C28.21160537 7.98919651 29.66774579 8.09914276 31.125 8.1875 C33.77221834 8.38776782 36.36433849 8.65506443 39 9 C39.495 9.99 39.495 9.99 40 11 C25.6056162 11.17273261 25.6056162 11.17273261 19.75 10.5 C14.52621607 9.95012801 9.25264484 10 4 10 C3.67 21.55 3.34 33.1 3 45 C17.85 45.33 32.7 45.66 48 46 C47.34 46.99 46.68 47.98 46 49 C43.41103853 49.40961682 41.03442907 49.62964248 38.4296875 49.73046875 C37.67462921 49.770616 36.91957092 49.81076324 36.14163208 49.85212708 C33.71987978 49.97737936 31.29770301 50.08242644 28.875 50.1875 C27.26556018 50.26891072 25.65618342 50.35157869 24.046875 50.43554688 C19.69859832 50.65433284 15.35168387 50.86250144 11 51 C9.89534393 51.04478989 9.89534393 51.04478989 8.76837158 51.09048462 C6.84596777 51.13944085 4.9214513 51.07783325 3 51 C-1.96368421 45.87619694 -1.1675447 36.48425779 -1.38671875 29.66796875 C-1.41224319 28.90954178 -1.43776764 28.15111481 -1.46406555 27.3697052 C-1.51565089 25.78242538 -1.5651224 24.19507554 -1.61254883 22.60766602 C-1.68785195 20.17613563 -1.77837886 17.74544945 -1.86914062 15.31445312 C-1.91760218 13.76565399 -1.96516061 12.21682627 -2.01171875 10.66796875 C-2.04077805 9.94296677 -2.06983734 9.21796478 -2.09977722 8.47099304 C-2.19409562 4.71543886 -2.1448287 3.21724305 0 0 Z " fill="#BE713B" transform="translate(19,6)"/>
<path d="M0 0 C7.7144628 0.02746864 15.36253599 0.47911339 23.05297852 1.06811523 C24.88505859 1.19863281 24.88505859 1.19863281 26.75415039 1.33178711 C28.49728516 1.46230469 28.49728516 1.46230469 30.27563477 1.59545898 C31.85163452 1.71328735 31.85163452 1.71328735 33.45947266 1.83349609 C35.99047852 2.13061523 35.99047852 2.13061523 37.99047852 3.13061523 C37.99047852 3.79061523 37.99047852 4.45061523 37.99047852 5.13061523 C38.65047852 5.13061523 39.31047852 5.13061523 39.99047852 5.13061523 C39.99047852 6.45061523 39.99047852 7.77061523 39.99047852 9.13061523 C38.92087891 9.10032227 37.8512793 9.0700293 36.74926758 9.03881836 C32.77597611 8.92643604 28.80266419 8.81479185 24.8293457 8.70336914 C23.11059004 8.65506763 21.39183997 8.60656671 19.6730957 8.55786133 C17.20077947 8.48783619 14.72844392 8.41853127 12.25610352 8.34936523 C11.4892926 8.32749146 10.72248169 8.30561768 9.93243408 8.28308105 C6.6162972 8.19092751 3.30825774 8.13061523 -0.00952148 8.13061523 C0.15418945 9.40807617 0.31790039 10.68553711 0.48657227 12.00170898 C1.05085991 17.0802978 1.10445945 22.08858259 1.05297852 27.19311523 C1.0484668 28.0587207 1.04395508 28.92432617 1.03930664 29.81616211 C1.02767764 31.92101062 1.00974925 34.02582281 0.99047852 36.13061523 C0.00047852 36.62561523 0.00047852 36.62561523 -1.00952148 37.13061523 C-1.66952148 36.80061523 -2.32952148 36.47061523 -3.00952148 36.13061523 C-3.03417246 31.16439174 -3.05235797 26.19820357 -3.06445312 21.23193359 C-3.06949338 19.54117208 -3.07632553 17.85041494 -3.08496094 16.15966797 C-3.09704005 13.73460817 -3.10275271 11.30960579 -3.10717773 8.88452148 C-3.11233902 8.12410049 -3.11750031 7.3636795 -3.12281799 6.58021545 C-3.12301386 4.76328953 -3.07149425 2.94648396 -3.00952148 1.13061523 C-2.00952148 0.13061523 -2.00952148 0.13061523 0 0 Z " fill="#DBD6D2" transform="translate(25.009521484375,14.869384765625)"/>
<path d="M0 0 C14.74481174 -0.39910769 14.74481174 -0.39910769 20 2 C20.38671875 2.82757813 20.7734375 3.65515625 21.171875 4.5078125 C22.87763646 7.40357844 22.87763646 7.40357844 26.7578125 7.85546875 C28.21160537 7.98919651 29.66774579 8.09914276 31.125 8.1875 C33.77221834 8.38776782 36.36433849 8.65506443 39 9 C39.495 9.99 39.495 9.99 40 11 C32.43767822 11.09074786 25.00597243 11.12845381 17.48828125 10.21875 C13.48258632 9.866601 9.48575175 9.97967522 5.46875 10.0625 C3 10 3 10 1 9 C0.5859375 6.93359375 0.5859375 6.93359375 0.375 4.4375 C0.30023437 3.61121094 0.22546875 2.78492188 0.1484375 1.93359375 C0.09945313 1.29550781 0.05046875 0.65742187 0 0 Z " fill="#DDA761" transform="translate(19,6)"/>
<path d="M0 0 C0.99 0.33 1.98 0.66 3 1 C3 9.25 3 17.5 3 26 C8.0539389 26.0459449 13.10715137 26.08575997 18.16113281 26.10986328 C19.87990781 26.1199127 21.59866575 26.13355445 23.31738281 26.15087891 C25.78975641 26.17517391 28.26190369 26.18649368 30.734375 26.1953125 C31.50118591 26.20563507 32.26799683 26.21595764 33.05804443 26.22659302 C36.85956767 26.22739012 39.77864518 26.14509572 43 24 C42.505 26.475 42.505 26.475 42 29 C36.32169922 29.02464705 30.64342931 29.04283462 24.96508789 29.05493164 C23.03181415 29.05997256 21.09854424 29.06680519 19.1652832 29.07543945 C16.39273128 29.08751565 13.62022959 29.09323057 10.84765625 29.09765625 C9.54297142 29.10539818 9.54297142 29.10539818 8.21192932 29.11329651 C6.14094186 29.11349185 4.07005676 29.06208168 2 29 C0.16780354 27.16780354 0.76098672 24.24286259 0.68359375 21.77734375 C0.64169922 20.51728516 0.59980469 19.25722656 0.55664062 17.95898438 C0.51682404 16.61849264 0.47711186 15.2779978 0.4375 13.9375 C0.39431958 12.59308477 0.35070544 11.2486834 0.30664062 9.90429688 C0.20014642 6.6029766 0.0981354 3.30157764 0 0 Z " fill="#D08846" transform="translate(25,23)"/>
<path d="M0 0 C0.99 0.33 1.98 0.66 3 1 C3 2.65 3 4.3 3 6 C4.32 6.33 5.64 6.66 7 7 C5.68 7 4.36 7 3 7 C3.16371094 8.27746094 3.32742187 9.55492187 3.49609375 10.87109375 C4.0603814 15.94968256 4.11398093 20.95796735 4.0625 26.0625 C4.05798828 26.92810547 4.05347656 27.79371094 4.04882812 28.68554688 C4.03719913 30.79039539 4.01927073 32.89520758 4 35 C3.01 35.495 3.01 35.495 2 36 C1.34 35.67 0.68 35.34 0 35 C0 23.45 0 11.9 0 0 Z " fill="#BEB6B0" transform="translate(22,16)"/>
<path d="M0 0 C13.2 0 26.4 0 40 0 C40 0.33 40 0.66 40 1 C35.28620997 1.28751481 30.572263 1.57225047 25.8581543 1.85449219 C24.25687202 1.95074678 22.65563397 2.04774021 21.05444336 2.14550781 C18.74344129 2.28648397 16.43228946 2.42473927 14.12109375 2.5625 C13.0597245 2.62812134 13.0597245 2.62812134 11.97691345 2.69506836 C7.63997969 2.95038042 3.34161361 3.03967208 -1 3 C-0.67 2.01 -0.34 1.02 0 0 Z " fill="#CB782D" transform="translate(27,52)"/>
<path d="M0 0 C0.33 0 0.66 0 1 0 C1.96953382 7.72785134 2.12131488 15.34333901 2.0625 23.125 C2.05798828 24.27226563 2.05347656 25.41953125 2.04882812 26.6015625 C2.03716339 29.40109813 2.02079614 32.20051986 2 35 C2.99 35.33 3.98 35.66 5 36 C5 36.66 5 37.32 5 38 C3.0625 37.625 3.0625 37.625 1 37 C-0.55977064 33.88045872 -0.12104126 30.57040616 -0.09765625 27.1484375 C-0.0962413 26.37440582 -0.09482635 25.60037415 -0.09336853 24.80288696 C-0.08776403 22.32688558 -0.07521083 19.85097412 -0.0625 17.375 C-0.05748558 15.69791797 -0.05292257 14.02083453 -0.04882812 12.34375 C-0.03779315 8.22913194 -0.02052554 4.11458122 0 0 Z " fill="#A6532C" transform="translate(20,16)"/>
<path d="M0 0 C0.495 1.98 0.495 1.98 1 4 C-12.2 4 -25.4 4 -39 4 C-39 3.34 -39 2.68 -39 2 C-37.92516357 2.01047363 -36.85032715 2.02094727 -35.74291992 2.03173828 C-31.75662565 2.06792779 -27.77034592 2.09089663 -23.78393555 2.10986328 C-22.05832477 2.11992326 -20.33273105 2.13357276 -18.60717773 2.15087891 C-16.1273986 2.17512754 -13.64784477 2.18648301 -11.16796875 2.1953125 C-10.39599655 2.20563507 -9.62402435 2.21595764 -8.82865906 2.22659302 C-5.00718524 2.22739422 -3.25863893 2.17242595 0 0 Z " fill="#D7904C" transform="translate(67,47)"/>
<path d="M0 0 C0.66 0.33 1.32 0.66 2 1 C2 3.31 2 5.62 2 8 C2.66 8 3.32 8 4 8 C4 11.63 4 15.26 4 19 C2.02 19.99 2.02 19.99 0 21 C-0.19645093 17.87549468 -0.38063489 14.75038555 -0.5625 11.625 C-0.61857422 10.73554688 -0.67464844 9.84609375 -0.73242188 8.9296875 C-0.78076172 8.07890625 -0.82910156 7.228125 -0.87890625 6.3515625 C-0.9260376 5.56604004 -0.97316895 4.78051758 -1.02172852 3.97119141 C-1 2 -1 2 0 0 Z " fill="#C5814E" transform="translate(18,7)"/>
<path d="M0 0 C2.51887427 0.03825393 4.98950444 0.14436589 7.5 0.3125 C8.20253906 0.34794922 8.90507813 0.38339844 9.62890625 0.41992188 C11.42594233 0.53591553 13.21525847 0.76022748 15 1 C15.33 1.66 15.66 2.32 16 3 C13.54137599 3.05383848 11.0839245 3.09359038 8.625 3.125 C7.57699219 3.15013672 7.57699219 3.15013672 6.5078125 3.17578125 C4.67102514 3.19344267 2.83398037 3.10303261 1 3 C0.34 2.34 -0.32 1.68 -1 1 C-0.67 0.67 -0.34 0.34 0 0 Z " fill="#E5BC66" transform="translate(43,14)"/>
<path d="M0 0 C0.33 1.32 0.66 2.64 1 4 C-1.29141286 4.05384521 -3.58318188 4.09272087 -5.875 4.125 C-7.78925781 4.15980469 -7.78925781 4.15980469 -9.7421875 4.1953125 C-13 4 -13 4 -15 2 C-13.75283203 2.03480469 -13.75283203 2.03480469 -12.48046875 2.0703125 C-11.39378906 2.08835938 -10.30710937 2.10640625 -9.1875 2.125 C-8.10855469 2.14820313 -7.02960937 2.17140625 -5.91796875 2.1953125 C-2.80597132 2.23023717 -2.80597132 2.23023717 0 0 Z " fill="#DA9943" transform="translate(67,47)"/>
<path d="M0 0 C0.33 0 0.66 0 1 0 C1 4.29 1 8.58 1 13 C1.99 13.33 2.98 13.66 4 14 C4 14.66 4 15.32 4 16 C2.68 15.67 1.36 15.34 0 15 C0 10.05 0 5.1 0 0 Z " fill="#A24521" transform="translate(21,38)"/>
<path d="M0 0 C0.66 0.33 1.32 0.66 2 1 C2 3.31 2 5.62 2 8 C1.01 7.67 0.02 7.34 -1 7 C-0.67 4.69 -0.34 2.38 0 0 Z " fill="#CF853B" transform="translate(18,7)"/>
</svg>
