<?xml version="1.0" encoding="UTF-8"?>
<svg version="1.1" xmlns="http://www.w3.org/2000/svg" width="100" height="64">
<path d="M0 0 C0.87205078 0.556875 0.87205078 0.556875 1.76171875 1.125 C4.09706261 2.37835017 6.19555949 2.63217234 8.8125 3 C12.6093288 3.67550942 13.54314214 4.05185042 16.5625 6.75 C22.1142274 15.83464484 22.88629181 24.29590038 21.19140625 34.81640625 C19.31602922 41.70055421 14.99813602 44.96273332 9.1875 48.6875 C8.341875 49.161875 7.49625 49.63625 6.625 50.125 C4.57594351 51.42233162 2.53300365 52.72881089 0.4921875 54.0390625 C-5.45343867 57.49697897 -13.69123002 56.88074437 -20.375 56.125 C-28.21001868 53.8734418 -34.08555972 48.83953903 -38.69140625 42.23828125 C-42.58063128 35.12384523 -42.27369765 26.96101281 -41.375 19.125 C-38.894186 10.67266912 -33.14275916 3.89970834 -25.4375 -0.3125 C-18.16768659 -3.19794141 -7.02349403 -3.80498862 0 0 Z " fill="#8FD8FD" transform="translate(41.375,7.875)"/>
<path d="M0 0 C3.91419565 -0.46597567 5.70412296 -0.17752622 9.125 1.875 C13.89401929 6.38046822 15.70093454 12.03622768 16.34765625 18.4453125 C16.54129721 26.241466 16.31808994 33.51293528 11.55859375 39.94921875 C9.1089678 42.47841491 7.30141219 43.9264613 3.71875 44.12890625 C-2.11993943 43.18498479 -4.48757723 40.74651725 -8 36 C-9.92828305 34.48689751 -11.89694204 33.27161644 -14 32 C-14.35329805 36.94617272 -13.22587303 39.64503103 -11 44 C-11.33 44.99 -11.66 45.98 -12 47 C-17.95703125 47.48828125 -17.95703125 47.48828125 -20 47 C-23.04037338 43.30811804 -23.34191735 40.37149307 -23.1875 35.6875 C-23.14689453 34.08455078 -23.14689453 34.08455078 -23.10546875 32.44921875 C-23.05326172 31.23685547 -23.05326172 31.23685547 -23 30 C-23.63421875 29.86980469 -24.2684375 29.73960938 -24.921875 29.60546875 C-27 29 -27 29 -28.25 27.3125 C-29.61927868 23.0905574 -29.5856507 20.19792188 -27.625 16.1875 C-24.21005369 13.34171141 -21.86124924 13.58405831 -17.54296875 13.3671875 C-13.33412934 12.75945954 -11.16902091 10.7728933 -8 8 C-7.34 7.01 -6.68 6.02 -6 5 C-4.34051852 3.98812105 -2.67419438 2.9873454 -1 2 C-0.67 1.34 -0.34 0.68 0 0 Z " fill="#D6515A" transform="translate(47,11)"/>
<path d="M0 0 C3.83834601 1.8181639 5.64232977 4.61501654 7.46484375 8.37109375 C9.66159638 15.01792037 9.64429046 23.45999706 6.5625 29.8125 C4.89348549 32.33986484 3.63385211 34.19798957 1.375 36.125 C-1.0625 36.125 -1.0625 36.125 -3.625 35.125 C-6.75317658 31.99682342 -8.12286665 29.51866678 -8.625 25.125 C-9.285 25.125 -9.945 25.125 -10.625 25.125 C-12.66227541 19.01317377 -12.12440069 12.8146073 -9.671875 6.9609375 C-7.46834755 3.09654235 -4.64743486 0.22130642 0 0 Z " fill="#ED995F" transform="translate(50.625,14.875)"/>
<path d="M0 0 C3.91419565 -0.46597567 5.70412296 -0.17752622 9.125 1.875 C13.89401929 6.38046822 15.70093454 12.03622768 16.34765625 18.4453125 C16.54129721 26.241466 16.31808994 33.51293528 11.55859375 39.94921875 C9.1089678 42.47841491 7.30141219 43.9264613 3.71875 44.12890625 C-0.30754114 43.47798918 -3.1855258 42.30233717 -5.9375 39.25 C-10.9491087 31.35291963 -10.72419359 23.01218687 -10 14 C-8.80816762 9.15536245 -7.39096487 6.00278863 -3.3125 3.0625 C-2.549375 2.711875 -1.78625 2.36125 -1 2 C-0.67 1.34 -0.34 0.68 0 0 Z M-4.44921875 8.23046875 C-8.60462643 12.97202965 -8.29183022 19.06611877 -8 25 C-7.58268982 27.35529281 -7.58268982 27.35529281 -7 29 C-6.34 29 -5.68 29 -5 29 C-4.62875 30.60875 -4.62875 30.60875 -4.25 32.25 C-2.99212087 36.02363738 -2.2579613 37.76596939 1 40 C3.56900326 40.23684105 3.56900326 40.23684105 6 39 C12.0107734 32.81749022 12.43741532 26.7678241 12.32421875 18.4609375 C11.81791921 13.05634245 10.05079289 9.52449717 6.61328125 5.29296875 C2.22720504 1.77773576 -1.17136856 5.2333766 -4.44921875 8.23046875 Z " fill="#363338" transform="translate(47,11)"/>
<path d="M0 0 C0.33 0.66 0.66 1.32 1 2 C0.67 2.99 0.34 3.98 0 5 C-0.09679233 7.63616763 -0.13924509 10.23965907 -0.125 12.875 C-0.12886719 13.58269531 -0.13273437 14.29039063 -0.13671875 15.01953125 C-0.12966857 18.80548044 0.09092047 22.32039237 1 26 C-3.60705199 24.50948318 -6.46396484 22.21457741 -10 19 C-11.98384711 15.03230578 -11.32630565 10.14470514 -10 6 C-11.98 6 -13.96 6 -16 6 C-16 5.67 -16 5.34 -16 5 C-15.02160156 4.96132813 -15.02160156 4.96132813 -14.0234375 4.921875 C-8.11925307 4.53871259 -4.60333137 3.75534928 0 0 Z " fill="#E38A50" transform="translate(38,20)"/>
<path d="M0 0 C1.32 0 2.64 0 4 0 C4.67260351 1.76858691 5.33788395 3.53996016 6 5.3125 C6.37125 6.29863281 6.7425 7.28476562 7.125 8.30078125 C8 11 8 11 8 14 C8.99 13.67 9.98 13.34 11 13 C10.67 13.99 10.34 14.98 10 16 C7.14581246 16.2339498 4.79657225 16.41921004 2 16 C-1.01344395 13.08072618 -1.17226086 10.32902202 -1.25 6.3125 C-1.19841264 3.75462681 -1.14938555 2.29877109 0 0 Z " fill="#D05263" transform="translate(25,42)"/>
<path d="M0 0 C0.33 0 0.66 0 1 0 C1.33 3.96 1.66 7.92 2 12 C2.66 12 3.32 12 4 12 C4.26554687 12.55429687 4.53109375 13.10859375 4.8046875 13.6796875 C5.15789063 14.40414062 5.51109375 15.12859375 5.875 15.875 C6.22304688 16.59429687 6.57109375 17.31359375 6.9296875 18.0546875 C7.96557543 20.15135019 7.96557543 20.15135019 10 22 C14.14509433 22.28602162 14.14509433 22.28602162 18 21 C18.66 21.66 19.32 22.32 20 23 C18.0625 25.125 18.0625 25.125 15 27 C9.99702795 27.07237573 6.73525566 25.64334871 3 22.375 C-1.03905415 15.55909612 -0.12744052 7.70307115 0 0 Z " fill="#2A2A30" transform="translate(38,28)"/>
<path d="M0 0 C1.32 0.33 2.64 0.66 4 1 C2.88266271 2.50571657 1.75589965 4.00444292 0.625 5.5 C-0.00148438 6.3353125 -0.62796875 7.170625 -1.2734375 8.03125 C-1.84320313 8.6809375 -2.41296875 9.330625 -3 10 C-3.66 10 -4.32 10 -5 10 C-5.66 12.31 -6.32 14.62 -7 17 C-7.66 17 -8.32 17 -9 17 C-8.67 22.28 -8.34 27.56 -8 33 C-11.52639051 27.71041424 -10.64147844 20.21559672 -10 14 C-8.81287939 9.15526454 -7.38971207 6.00188544 -3.3125 3.0625 C-2.549375 2.711875 -1.78625 2.36125 -1 2 C-0.67 1.34 -0.34 0.68 0 0 Z " fill="#3B3636" transform="translate(47,11)"/>
<path d="M0 0 C7.25853659 -0.60487805 7.25853659 -0.60487805 10.375 1.9375 C12.46295993 5.8725014 13.25076973 9.63869119 14 14 C14.20625 15.010625 14.4125 16.02125 14.625 17.0625 C14.74875 17.701875 14.8725 18.34125 15 19 C14.34 19 13.68 19 13 19 C12.32471777 17.42032193 11.66010306 15.83608097 11 14.25 C10.62875 13.36828125 10.2575 12.4865625 9.875 11.578125 C9 9 9 9 9 5 C7.68 5 6.36 5 5 5 C4.67 5.66 4.34 6.32 4 7 C4 6.01 4 5.02 4 4 C2.68 3.67 1.36 3.34 0 3 C0 2.01 0 1.02 0 0 Z " fill="#AA2C36" transform="translate(20,37)"/>
<path d="M0 0 C0.33 0 0.66 0 1 0 C1.08144943 2.70894767 1.14070614 5.41541263 1.1875 8.125 C1.22520508 9.26582031 1.22520508 9.26582031 1.26367188 10.4296875 C1.32711926 15.33628555 0.87364001 18.82015998 -2 23 C-5.6875 23.875 -5.6875 23.875 -9 24 C-8.20890398 22.72881136 -7.41709922 21.45806377 -6.625 20.1875 C-6.18414062 19.47980469 -5.74328125 18.77210937 -5.2890625 18.04296875 C-4.21811524 16.34567961 -3.11323761 14.66985642 -2 13 C-1.67 13 -1.34 13 -1 13 C-0.67 8.71 -0.34 4.42 0 0 Z " fill="#6C5857" transform="translate(61,27)"/>
<path d="M0 0 C0.33 1.32 0.66 2.64 1 4 C2.2375 4.433125 2.2375 4.433125 3.5 4.875 C4.325 5.24625 5.15 5.6175 6 6 C6.8125 9.125 6.8125 9.125 7 12 C5.02 12 3.04 12 1 12 C0.67 12.99 0.34 13.98 0 15 C0 10.05 0 5.1 0 0 Z " fill="#F27146" transform="translate(41,25)"/>
<path d="M0 0 C1.890625 0.30078125 1.890625 0.30078125 4 1 C7.77137853 7.86929661 7.75290719 15.30470184 7 23 C6.34 23.99 5.68 24.98 5 26 C4.97421875 24.87722656 4.9484375 23.75445312 4.921875 22.59765625 C4.63596086 14.19740515 4.21706071 7.48188191 0 0 Z " fill="#401E1B" transform="translate(54,17)"/>
<path d="M0 0 C1.670625 0.061875 1.670625 0.061875 3.375 0.125 C3.375 1.445 3.375 2.765 3.375 4.125 C-1.08 5.61 -1.08 5.61 -5.625 7.125 C-5.75 4.75 -5.75 4.75 -5.625 2.125 C-3.625 0.125 -3.625 0.125 0 0 Z " fill="#DB3546" transform="translate(24.625,25.875)"/>
<path d="M0 0 C0.33 0 0.66 0 1 0 C1.20496094 1.10859375 1.40992188 2.2171875 1.62109375 3.359375 C1.89316462 4.82292867 2.16530362 6.28646967 2.4375 7.75 C2.57220703 8.47960938 2.70691406 9.20921875 2.84570312 9.9609375 C3.47459267 13.33546675 4.14322173 16.67634694 5 20 C3.68 19.67 2.36 19.34 1 19 C0.03794912 12.62641289 -0.10655578 6.44070471 0 0 Z " fill="#1D1C1E" transform="translate(38,28)"/>
<path d="M0 0 C1.32 0.33 2.64 0.66 4 1 C1.69 3.97 -0.62 6.94 -3 10 C-4.33333333 8.66666667 -5.66666667 7.33333333 -7 6 C-6.030625 5.38125 -5.06125 4.7625 -4.0625 4.125 C-0.97164638 2.34321154 -0.97164638 2.34321154 0 0 Z " fill="#4D4749" transform="translate(47,11)"/>
<path d="M0 0 C5 9.61538462 5 9.61538462 5 15 C4.01 15 3.02 15 2 15 C1.66048381 13.43883181 1.32867456 11.87598662 1 10.3125 C0.814375 9.44238281 0.62875 8.57226562 0.4375 7.67578125 C0.01027953 5.06287036 -0.07616201 2.64186962 0 0 Z " fill="#D88890" transform="translate(28,42)"/>
<path d="M0 0 C0.66 0 1.32 0 2 0 C2.26554687 0.54269531 2.53109375 1.08539063 2.8046875 1.64453125 C3.15789063 2.35996094 3.51109375 3.07539062 3.875 3.8125 C4.22304688 4.52019531 4.57109375 5.22789063 4.9296875 5.95703125 C6.0656486 8.21246418 6.0656486 8.21246418 8 11 C5.69 10.67 3.38 10.34 1 10 C1 9.34 1 8.68 1 8 C1.66 8 2.32 8 3 8 C2.01 5.36 1.02 2.72 0 0 Z " fill="#4A3E3D" transform="translate(40,40)"/>
<path d="M0 0 C3.81538462 2.46153846 3.81538462 2.46153846 4.75 5.1875 C4.8325 5.785625 4.915 6.38375 5 7 C3.68 7.33 2.36 7.66 1 8 C-0.35439668 5.29120665 -0.06501451 2.99066732 0 0 Z " fill="#D1475C" transform="translate(18,30)"/>
<path d="M0 0 C1.9375 0.375 1.9375 0.375 4 1 C5.35439668 3.70879335 5.06501451 6.00933268 5 9 C3.05731159 6.08596738 1.53604696 3.14191424 0 0 Z " fill="#521F18" transform="translate(54,17)"/>
</svg>
