<?xml version="1.0" encoding="UTF-8"?>
<svg version="1.1" xmlns="http://www.w3.org/2000/svg" width="101" height="67">
<path d="M0 0 C6.34137166 3.72262003 9.83545681 8.4527969 11.94140625 15.46875 C13.11097925 21.29759754 12.15991935 26.06962951 9.171875 31.17578125 C6.9662039 34.39264826 4.49875719 36.46181222 1.421875 38.86328125 C0.43672583 40.15577501 -0.51934443 41.47070123 -1.453125 42.80078125 C-5.76590421 48.73914647 -10.5057532 51.89397675 -17.578125 53.86328125 C-27.89083335 55.07929221 -35.99206605 53.83503786 -44.578125 47.86328125 C-50.87295565 42.75111575 -53.77410462 35.20427378 -54.9609375 27.3203125 C-55.34487447 19.27043408 -52.85228015 11.35965457 -47.890625 4.98828125 C-36.077567 -7.5480252 -14.8047699 -6.52755764 0 0 Z " fill="#F28EB8" transform="translate(54.578125,10.13671875)"/>
<path d="M0 0 C1.30710937 -0.01417969 2.61421875 -0.02835937 3.9609375 -0.04296875 C7.36298963 0.1710196 9.59183747 0.70605189 12.625 2.1875 C10.625 4.1875 10.625 4.1875 7.3125 5.5625 C1.30101613 8.07457538 -1.85530306 11.13163748 -4.375 17.1875 C-4.7720695 20.67473514 -4.7720695 20.67473514 -4.625 24.25 C-4.60953125 25.43722656 -4.5940625 26.62445313 -4.578125 27.84765625 C-4.40245752 30.73603495 -4.03399873 33.3761264 -3.375 36.1875 C-4.695 35.8575 -6.015 35.5275 -7.375 35.1875 C-7.375 33.5375 -7.375 31.8875 -7.375 30.1875 C-12.86652094 35.0989442 -12.86652094 35.0989442 -15.9296875 41.578125 C-15.70507184 45.98059195 -14.40910815 48.68444175 -11.25 51.75 C-8.66537632 53.62398376 -7.12662875 54.24620593 -3.9375 55 C1.18094293 53.83263582 4.01150381 50.85914441 7.625 47.1875 C10.17150762 44.64099238 11.40231829 44.84983564 14.9375 44.625 C18.58701964 44.38103484 22.05071915 43.9752741 25.625 43.1875 C24.02467074 49.23318831 19.6914411 52.17418008 14.69140625 55.45703125 C7.75828454 59.16605477 0.28839745 59.22032414 -7.375 58.1875 C-14.78441246 55.79381995 -21.40335936 52.05238879 -25.375 45.1875 C-29.81204387 36.11807071 -30.87823589 28.13444078 -27.75 18.5 C-24.1774033 9.67431687 -18.94625877 5.13844214 -10.375 1.1875 C-6.77617994 -0.01210669 -3.79362018 0.01863271 0 0 Z " fill="#CDD0FE" transform="translate(29.375,5.8125)"/>
<path d="M0 0 C4 0 4 0 5.66796875 1.07421875 C10.151861 5.83475217 11.09175548 10.29699107 11.29296875 16.765625 C10.84162792 21.7484278 9.33951933 25.27739366 6 29 C0.11672041 32.9622087 -6.09701258 32.30604378 -13 32 C-13 31.67 -13 31.34 -13 31 C-11.35 31 -9.7 31 -8 31 C-8 30.01 -8 29.02 -8 28 C-10.64 27.67 -13.28 27.34 -16 27 C-16.33 27.99 -16.66 28.98 -17 30 C-20.42898584 29.16180346 -22.50882269 28.55666761 -24.875 25.875 C-26.42742563 21.90769005 -26.41210896 19.25845926 -26 15 C-24.5 13 -24.5 13 -23 12 C-22.731875 13.134375 -22.46375 14.26875 -22.1875 15.4375 C-21.5996875 17.2009375 -21.5996875 17.2009375 -21 19 C-20.01 19.33 -19.02 19.66 -18 20 C-18.33 19.01 -18.66 18.02 -19 17 C-19.25029686 12.49465654 -19.2536247 8.97067209 -17 5 C-13.98175416 1.80928297 -12.6260345 1.04105144 -8.1875 0.75 C-7.135625 0.8325 -6.08375 0.915 -5 1 C-5 1.66 -5 2.32 -5 3 C-3.35 3 -1.7 3 0 3 C0 2.01 0 1.02 0 0 Z " fill="#F2A689" transform="translate(53,18)"/>
<path d="M0 0 C1.36421031 2.72842061 0.87807211 4.60953318 0.5625 7.625 C0.46066406 8.62789062 0.35882813 9.63078125 0.25390625 10.6640625 C0.17011719 11.43492188 0.08632813 12.20578125 0 13 C-0.99 13 -1.98 13 -3 13 C-3.33 13.99 -3.66 14.98 -4 16 C-4.66 16 -5.32 16 -6 16 C-5.67 16.99 -5.34 17.98 -5 19 C-3.00016466 18.20882096 -3.00016466 18.20882096 -1 17 C-0.67 16.01 -0.34 15.02 0 14 C0.66 14 1.32 14 2 14 C1.67 12.68 1.34 11.36 1 10 C2.65 11.65 4.3 13.3 6 15 C5.67 15.99 5.34 16.98 5 18 C4.34 18 3.68 18 3 18 C3 18.99 3 19.98 3 21 C4.65 21 6.3 21 8 21 C8.33 19.68 8.66 18.36 9 17 C12.96 16.505 12.96 16.505 17 16 C9.11514393 25.59324155 9.11514393 25.59324155 3.75 26.625 C-1.64355983 25.72607336 -4.68142107 23.29276798 -8 19 C-9.58598252 15.78051489 -9.94292366 13.4798373 -9 10 C-6.36668859 6.25902585 -3.33833784 3.11708348 0 0 Z " fill="#353538" transform="translate(22,35)"/>
<path d="M0 0 C3.13100851 2.1974218 5.62249787 4.44151822 7.625 7.75 C7.295 8.74 6.965 9.73 6.625 10.75 C6.109375 9.80125 5.59375 8.8525 5.0625 7.875 C2.14567674 4.135483 0.19256196 3.6283773 -4.375 2.75 C-4.375 2.09 -4.375 1.43 -4.375 0.75 C-5.035 0.75 -5.695 0.75 -6.375 0.75 C-6.375 1.41 -6.375 2.07 -6.375 2.75 C-8.72770593 3.92635297 -10.195752 3.88359359 -12.8125 3.875 C-13.98619141 3.87886719 -13.98619141 3.87886719 -15.18359375 3.8828125 C-17.375 3.75 -17.375 3.75 -20.375 2.75 C-22.72688447 3.34793673 -25.06425595 4.00881795 -27.375 4.75 C-20.06823065 -3.69845206 -9.90004054 -5.8148937 0 0 Z " fill="#E774E4" transform="translate(56.375,11.25)"/>
<path d="M0 0 C0.66 0 1.32 0 2 0 C2 0.66 2 1.32 2 2 C3.60875 2.061875 3.60875 2.061875 5.25 2.125 C9 3 9 3 11.25 5.875 C11.8275 6.90625 12.405 7.9375 13 9 C13.76570313 9.69802734 13.76570313 9.69802734 14.546875 10.41015625 C16.95411219 13.04388081 16.939215 15.76645029 17.203125 19.22265625 C16.85013394 24.04913022 14.74951559 28.07212059 12 32 C11.01 32.66 10.02 33.32 9 34 C11 30 11 30 12.07421875 28.26171875 C14.03146761 23.48008546 13.00501709 17.94970916 12 13 C10.53507276 10.66768164 9.24384395 9.66849935 7 8 C7 7.34 7 6.68 7 6 C4.36 5.67 1.72 5.34 -1 5 C-1.33 4.01 -1.66 3.02 -2 2 C-1.34 2 -0.68 2 0 2 C0 1.34 0 0.68 0 0 Z " fill="#F182CB" transform="translate(50,12)"/>
<path d="M0 0 C1.9375 0.125 1.9375 0.125 4 1 C5.25 3.5625 5.25 3.5625 6 6 C6.66 6 7.32 6 8 6 C8.33 6.99 8.66 7.98 9 9 C8.01 10.485 8.01 10.485 7 12 C7.99 13.485 7.99 13.485 9 15 C5.25 16.125 5.25 16.125 3 15 C3 14.01 3 13.02 3 12 C3.66 12 4.32 12 5 12 C4.42655063 9.13275314 4.1385485 8.1385485 2 6 C2 6.66 2 7.32 2 8 C0.36739286 9.37482707 -1.30225062 10.70647667 -3 12 C-3.66 12.66 -4.32 13.32 -5 14 C-6.0625 12.1875 -6.0625 12.1875 -7 10 C-6.67 9.01 -6.34 8.02 -6 7 C-6 7.66 -6 8.32 -6 9 C-5.34 9 -4.68 9 -4 9 C-4 7.35 -4 5.7 -4 4 C-3.67 4.66 -3.34 5.32 -3 6 C-2.34 6 -1.68 6 -1 6 C-1.020625 5.195625 -1.04125 4.39125 -1.0625 3.5625 C-1 1 -1 1 0 0 Z " fill="#E978BE" transform="translate(22,41)"/>
<path d="M0 0 C5.75 -0.125 5.75 -0.125 8 1 C8 1.99 8 2.98 8 4 C10.475 4.495 10.475 4.495 13 5 C13 5.33 13 5.66 13 6 C11.55367187 6.07347656 11.55367187 6.07347656 10.078125 6.1484375 C8.81484375 6.22320312 7.5515625 6.29796875 6.25 6.375 C4.37054688 6.47941406 4.37054688 6.47941406 2.453125 6.5859375 C-0.66364615 6.95966798 -2.32679429 7.51488572 -5 9 C-7.25 8.625 -7.25 8.625 -9 8 C-8.67 7.01 -8.34 6.02 -8 5 C-7.34 5 -6.68 5 -6 5 C-6 4.34 -6 3.68 -6 3 C-5.195625 2.87625 -4.39125 2.7525 -3.5625 2.625 C-2.716875 2.41875 -1.87125 2.2125 -1 2 C-0.67 1.34 -0.34 0.68 0 0 Z " fill="#F0A29B" transform="translate(37,45)"/>
<path d="M0 0 C0.99 0.99 1.98 1.98 3 3 C2.67 3.66 2.34 4.32 2 5 C1.34 5 0.68 5 0 5 C0 5.99 0 6.98 0 8 C1.65 8 3.3 8 5 8 C5.33 6.68 5.66 5.36 6 4 C8.64 3.67 11.28 3.34 14 3 C13.04270084 4.12588014 12.08412105 5.2506715 11.125 6.375 C10.59132813 7.00148438 10.05765625 7.62796875 9.5078125 8.2734375 C8.38567993 9.55836651 7.20628025 10.79371975 6 12 C3.33794254 11.11264751 0.8687528 10.0859614 -1.6875 8.9375 C-2.89986328 8.39416016 -2.89986328 8.39416016 -4.13671875 7.83984375 C-5.05904297 7.42412109 -5.05904297 7.42412109 -6 7 C-5.67 6.34 -5.34 5.68 -5 5 C-4.34 5 -3.68 5 -3 5 C-2.67 4.01 -2.34 3.02 -2 2 C-1.34 2 -0.68 2 0 2 C0 1.34 0 0.68 0 0 Z " fill="#333034" transform="translate(25,48)"/>
<path d="M0 0 C0.33 1.32 0.66 2.64 1 4 C-0.65 4 -2.3 4 -4 4 C-4 3.34 -4 2.68 -4 2 C-5.44010481 2.25662245 -6.8770687 2.53090821 -8.3125 2.8125 C-9.51326172 3.03873047 -9.51326172 3.03873047 -10.73828125 3.26953125 C-14.13290433 4.36589483 -15.51699376 6.11025167 -17.1875 9.1875 C-17.455625 9.785625 -17.72375 10.38375 -18 11 C-18 9.35 -18 7.7 -18 6 C-18.99 6.33 -19.98 6.66 -21 7 C-21 6.34 -21 5.68 -21 5 C-14.53785082 -1.44583062 -8.61826115 -1.60407568 0 0 Z " fill="#F293AD" transform="translate(52,17)"/>
<path d="M0 0 C0.99 0.99 1.98 1.98 3 3 C-0.75 7.875 -0.75 7.875 -3 9 C1.455 10.98 1.455 10.98 6 13 C6 13.99 6 14.98 6 16 C2.07387404 16.57256004 0.08011914 16.74950876 -3.24609375 14.44140625 C-5.23043203 12.68344524 -7.14261973 10.89115082 -9 9 C-8.34 8.01 -7.68 7.02 -7 6 C-6.67 6.99 -6.34 7.98 -6 9 C-4.00016466 8.20882096 -4.00016466 8.20882096 -2 7 C-1.67 6.01 -1.34 5.02 -1 4 C-0.34 4 0.32 4 1 4 C0.67 2.68 0.34 1.36 0 0 Z " fill="#555155" transform="translate(23,45)"/>
<path d="M0 0 C1.32 0 2.64 0 4 0 C6 3 6 3 5.6875 5.625 C5 8 5 8 4 9 C1.5 9.125 1.5 9.125 -1 9 C-1.33 8.67 -1.66 8.34 -2 8 C-1.28 1.28 -1.28 1.28 0 0 Z " fill="#F8E1DC" transform="translate(52,25)"/>
<path d="M0 0 C0.66 0 1.32 0 2 0 C2.33 4.95 2.66 9.9 3 15 C1.68 14.67 0.36 14.34 -1 14 C-2.41933513 9.74199462 -2.72651677 5.77088462 -1 1.5625 C-0.67 1.046875 -0.34 0.53125 0 0 Z " fill="#F5CAC5" transform="translate(32,23)"/>
<path d="M0 0 C-1.299375 0.5878125 -1.299375 0.5878125 -2.625 1.1875 C-6.63243403 3.3396405 -10.904531 5.809062 -13 10 C-13.66 10 -14.32 10 -15 10 C-12.44997435 1.80348897 -12.44997435 1.80348897 -9.16015625 -0.01953125 C-8.46792969 -0.28121094 -7.77570312 -0.54289063 -7.0625 -0.8125 C-6.37285156 -1.08707031 -5.68320312 -1.36164062 -4.97265625 -1.64453125 C-3 -2 -3 -2 0 0 Z " fill="#EE81D9" transform="translate(39,15)"/>
<path d="M0 0 C0.33 0.99 0.66 1.98 1 3 C0.525625 3.886875 0.05125 4.77375 -0.4375 5.6875 C-2.46314176 9.98186054 -2.44972901 12.27784534 -2 17 C-0.6038245 19.91927604 0.72202996 21.72202996 3 24 C2.01 24.33 1.02 24.66 0 25 C0 24.34 0 23.68 0 23 C-0.66 23 -1.32 23 -2 23 C-4.25033699 19.39045947 -4.33015925 16.2640783 -4.375 12.0625 C-4.40335938 10.85722656 -4.43171875 9.65195312 -4.4609375 8.41015625 C-3.92686791 4.45894646 -2.72477453 2.83785805 0 0 Z " fill="#F395AA" transform="translate(30,24)"/>
<path d="M0 0 C0.91007812 0.00902344 1.82015625 0.01804687 2.7578125 0.02734375 C3.45648438 0.03894531 4.15515625 0.05054688 4.875 0.0625 C5.205 1.0525 5.535 2.0425 5.875 3.0625 C3.50886544 4.24556728 2.00719264 4.19604608 -0.625 4.1875 C-1.4190625 4.19007812 -2.213125 4.19265625 -3.03125 4.1953125 C-5.125 4.0625 -5.125 4.0625 -7.125 3.0625 C-7.125 2.4025 -7.125 1.7425 -7.125 1.0625 C-4.60024538 -0.19987731 -2.81299534 -0.03606404 0 0 Z " fill="#F5D5E8" transform="translate(44.125,10.9375)"/>
<path d="M0 0 C0 0.99 0 1.98 0 3 C-0.556875 3.02578125 -1.11375 3.0515625 -1.6875 3.078125 C-6.98316382 3.47172163 -10.7834679 4.57011251 -15.37109375 7.2578125 C-15.90863281 7.50273437 -16.44617188 7.74765625 -17 8 C-17.66 7.67 -18.32 7.34 -19 7 C-12.78245152 2.27466316 -8.05201088 -0.38342909 0 0 Z " fill="#EA85E7" transform="translate(48,8)"/>
<path d="M0 0 C0.66 0 1.32 0 2 0 C2.8125 3.25 2.8125 3.25 3 7 C0.6875 9.3125 0.6875 9.3125 -2 11 C-2.66 11.66 -3.32 12.32 -4 13 C-5.0625 11.1875 -5.0625 11.1875 -6 9 C-5.67 8.01 -5.34 7.02 -5 6 C-5 6.66 -5 7.32 -5 8 C-4.34 8 -3.68 8 -3 8 C-3 6.35 -3 4.7 -3 3 C-2.67 3.66 -2.34 4.32 -2 5 C-1.34 5 -0.68 5 0 5 C0 3.35 0 1.7 0 0 Z " fill="#989396" transform="translate(21,42)"/>
<path d="M0 0 C0.66 0.33 1.32 0.66 2 1 C1.48050781 1.36351563 0.96101563 1.72703125 0.42578125 2.1015625 C-7.31348873 7.37666041 -7.31348873 7.37666041 -11.5234375 15.37890625 C-11.77997431 17.5941363 -11.9455231 19.77139959 -12 22 C-12.33 22 -12.66 22 -13 22 C-13 18.04 -13 14.08 -13 10 C-12.34 10 -11.68 10 -11 10 C-10.67 9.01 -10.34 8.02 -10 7 C-8.4765625 5.4296875 -8.4765625 5.4296875 -6.625 3.875 C-6.01914062 3.35679688 -5.41328125 2.83859375 -4.7890625 2.3046875 C-3 1 -3 1 0 0 Z " fill="#F189BF" transform="translate(37,15)"/>
<path d="M0 0 C2.585396 3.80205294 1.70275658 6.62729242 1 11 C1.34659295 13.32158065 1.34659295 13.32158065 2 15 C2.66 15 3.32 15 4 15 C4 15.66 4 16.32 4 17 C1.71216703 16.08486681 0.26550272 15.34515354 -1.25 13.375 C-2.38747712 9.77298912 -2.24015574 6.78245286 -2 3 C-1.34 2.01 -0.68 1.02 0 0 Z " fill="#F49C9B" transform="translate(29,30)"/>
<path d="M0 0 C2.71696853 3.26614302 3.57674773 5.47741439 3.4296875 9.83203125 C2.65288976 13.75132894 0.51516377 16.94369493 -2 20 C-2.66 20.33 -3.32 20.66 -4 21 C-2 17 -2 17 -0.9375 15.28125 C0.33278998 12.19021106 0.19155723 9.5778614 0.125 6.25 C0.10695313 5.07953125 0.08890625 3.9090625 0.0703125 2.703125 C0.04710937 1.81109375 0.02390625 0.9190625 0 0 Z " fill="#F592B7" transform="translate(63,25)"/>
<path d="M0 0 C1.36421031 2.72842061 0.87807211 4.60953318 0.5625 7.625 C0.46066406 8.62789062 0.35882812 9.63078125 0.25390625 10.6640625 C0.17011719 11.43492188 0.08632813 12.20578125 0 13 C-0.99 12.67 -1.98 12.34 -3 12 C-4.42041821 9.15916359 -4.31452272 7.14522722 -4 4 C-2 1.625 -2 1.625 0 0 Z " fill="#4B4B4E" transform="translate(22,35)"/>
<path d="M0 0 C0.99 0.99 1.98 1.98 3 3 C2.67 3.66 2.34 4.32 2 5 C1.34 5 0.68 5 0 5 C-0.33 5.99 -0.66 6.98 -1 8 C-2.65 7.67 -4.3 7.34 -6 7 C-5.67 6.34 -5.34 5.68 -5 5 C-4.34 5 -3.68 5 -3 5 C-2.67 4.01 -2.34 3.02 -2 2 C-1.34 2 -0.68 2 0 2 C0 1.34 0 0.68 0 0 Z " fill="#252323" transform="translate(25,48)"/>
<path d="M0 0 C2.86724686 0.57344937 3.8614515 0.8614515 6 3 C3.34771188 4.07525194 0.71631546 5.09456151 -2 6 C-2 5.01 -2 4.02 -2 3 C-1.34 2.67 -0.68 2.34 0 2 C0 1.34 0 0.68 0 0 Z " fill="#E3AFCA" transform="translate(31,48)"/>
<path d="M0 0 C0.33 0 0.66 0 1 0 C1.06058594 0.73605469 1.12117188 1.47210937 1.18359375 2.23046875 C1.26738281 3.20628906 1.35117187 4.18210937 1.4375 5.1875 C1.51871094 6.15042969 1.59992187 7.11335938 1.68359375 8.10546875 C1.97666151 10.78649602 2.42703754 13.3662986 3 16 C1.68 15.67 0.36 15.34 -1 15 C-0.67 10.05 -0.34 5.1 0 0 Z " fill="#E9BAE7" transform="translate(23,26)"/>
<path d="M0 0 C2.31 0.33 4.62 0.66 7 1 C7 1.99 7 2.98 7 4 C4.69 3.67 2.38 3.34 0 3 C0 2.01 0 1.02 0 0 Z " fill="#F4C7B5" transform="translate(38,45)"/>
<path d="M0 0 C2.62343217 2.62343217 2 3.3360952 2 7 C0.35 6.67 -1.3 6.34 -3 6 C-3 5.01 -3 4.02 -3 3 C-2.34 3 -1.68 3 -1 3 C-0.67 2.01 -0.34 1.02 0 0 Z " fill="#898888" transform="translate(28,50)"/>
<path d="M0 0 C0.66 0 1.32 0 2 0 C2 0.66 2 1.32 2 2 C4.31 2.33 6.62 2.66 9 3 C9 3.99 9 4.98 9 6 C7.68277821 5.57692877 6.37127336 5.13602514 5.0625 4.6875 C4.33160156 4.44386719 3.60070313 4.20023438 2.84765625 3.94921875 C1 3 1 3 0 0 Z " fill="#EF7BD6" transform="translate(50,12)"/>
<path d="M0 0 C0.33 0 0.66 0 1 0 C1.50423019 5.29441695 0.18923033 7.81413519 -3 12 C-3.33 11.01 -3.66 10.02 -4 9 C-3.67 8.34 -3.34 7.68 -3 7 C-2.34 7 -1.68 7 -1 7 C-0.67 4.69 -0.34 2.38 0 0 Z " fill="#F69C9E" transform="translate(63,32)"/>
<path d="M0 0 C0.5625 1.9375 0.5625 1.9375 1 4 C0.67 4.33 0.34 4.66 0 5 C-0.23192865 6.51469448 -0.41215238 8.03754562 -0.5625 9.5625 C-0.64628906 10.38878906 -0.73007812 11.21507812 -0.81640625 12.06640625 C-0.87699219 12.70449219 -0.93757813 13.34257813 -1 14 C-1.33 14 -1.66 14 -2 14 C-2 10.04 -2 6.08 -2 2 C-1.34 2 -0.68 2 0 2 C0 1.34 0 0.68 0 0 Z " fill="#F485C9" transform="translate(26,23)"/>
<path d="M0 0 C0.99 0.66 1.98 1.32 3 2 C2.071875 2.45375 1.14375 2.9075 0.1875 3.375 C-3.03921389 4.9421633 -3.03921389 4.9421633 -6 7 C-4.60667426 3.63279613 -3.0210714 2.0140476 0 0 Z " fill="#F082CA" transform="translate(36,13)"/>
<path d="M0 0 C3 1 3 1 4.0625 2.9375 C4.371875 3.618125 4.68125 4.29875 5 5 C5.66 5.66 6.32 6.32 7 7 C6.01 7.33 5.02 7.66 4 8 C4 7.34 4 6.68 4 6 C3.34 6 2.68 6 2 6 C1.34 4.02 0.68 2.04 0 0 Z " fill="#F69DC1" transform="translate(26,41)"/>
<path d="M0 0 C0.33 0.66 0.66 1.32 1 2 C-0.175625 2.86625 -0.175625 2.86625 -1.375 3.75 C-3.80047244 5.82897637 -4.85694417 7.09040333 -6 10 C-6.375 7.25 -6.375 7.25 -6 4 C-3 1.625 -3 1.625 0 0 Z " fill="#F29DA4" transform="translate(40,18)"/>
</svg>
