<?xml version="1.0" encoding="UTF-8"?>
<svg version="1.1" xmlns="http://www.w3.org/2000/svg" width="102" height="101">
<path d="M0 0 C8.415 1.485 8.415 1.485 17 3 C18 6 18 6 17.109375 7.90234375 C16.66078125 8.57394531 16.2121875 9.24554688 15.75 9.9375 C15.28722656 10.63746094 14.82445313 11.33742188 14.34765625 12.05859375 C12.94564001 14.0783099 11.52636437 16.07196079 10 18 C10.928125 18.680625 11.85625 19.36125 12.8125 20.0625 C16.3412907 22.99898777 17.57791533 25.65474129 19 30 C19 31.32 19 32.64 19 34 C20.96756452 33.96877057 20.96756452 33.96877057 23 33 C24.3045656 30.00384054 24.3045656 30.00384054 25 27 C27.1385485 29.1385485 27.42655063 30.13275314 28 33 C30.47266765 32.65555119 30.47266765 32.65555119 33 32 C33.33 31.34 33.66 30.68 34 30 C31.68118495 27.32098068 29.68185532 26.33795597 26.3125 25.3125 C25.50425781 25.06113281 24.69601563 24.80976563 23.86328125 24.55078125 C23.24839844 24.36902344 22.63351563 24.18726562 22 24 C22 23.67 22 23.34 22 23 C22.92232422 22.92652344 22.92232422 22.92652344 23.86328125 22.8515625 C24.67152344 22.77679687 25.47976562 22.70203125 26.3125 22.625 C27.11300781 22.55539063 27.91351563 22.48578125 28.73828125 22.4140625 C31.27224441 22.10435574 31.27224441 22.10435574 34 20 C35.0241328 16.89823654 35.0241328 16.89823654 35.6875 13.375 C36.06455078 11.59222656 36.06455078 11.59222656 36.44921875 9.7734375 C36.63097656 8.85820312 36.81273437 7.94296875 37 7 C37.33 7 37.66 7 38 7 C38.19916016 8.26457031 38.19916016 8.26457031 38.40234375 9.5546875 C38.57894531 10.65039062 38.75554688 11.74609375 38.9375 12.875 C39.11152344 13.96554688 39.28554688 15.05609375 39.46484375 16.1796875 C39.85551159 18.93821546 39.85551159 18.93821546 41 21 C43.80980673 21.69227032 43.80980673 21.69227032 47.0625 22.125 C48.16722656 22.29257812 49.27195313 22.46015625 50.41015625 22.6328125 C51.69212891 22.81457031 51.69212891 22.81457031 53 23 C50.3144406 25.6855594 47.62378672 26.06049974 44 27 C44.92232422 27.29003906 44.92232422 27.29003906 45.86328125 27.5859375 C46.67152344 27.84632812 47.47976562 28.10671875 48.3125 28.375 C49.11300781 28.63023438 49.91351563 28.88546875 50.73828125 29.1484375 C53 30 53 30 56 32 C58.8232947 31.19334437 60.64666208 30.6288019 63 29 C64.06246527 27.03247172 65.07137808 25.03412421 66 23 C67.875 21.9375 67.875 21.9375 70 22 C72.75 23.4375 72.75 23.4375 75 25 C74.67 26.32 74.34 27.64 74 29 C74.99 29.66 75.98 30.32 77 31 C76.67 32.32 76.34 33.64 76 35 C75.11248047 35.00386719 75.11248047 35.00386719 74.20703125 35.0078125 C69.98362064 35.2145047 66.86951631 35.43537356 63.875 38.625 C61.56400664 42.78478806 62.19623446 44.41853642 63 49 C61.40980479 54.21230653 59.52824572 56.98116952 55 60 C51.21186943 61.89406528 47.11647151 61.6107176 43 61 C37.7472311 58.71972823 33.16145799 55.27601741 30.57421875 50.078125 C29.39184578 45.79906092 29.71410836 41.39161321 30 37 C29.01 37 28.02 37 27 37 C26.67 39.31 26.34 41.62 26 44 C25.67 44 25.34 44 25 44 C24.34 41.69 23.68 39.38 23 37 C21.68 37 20.36 37 19 37 C18.4740625 38.299375 18.4740625 38.299375 17.9375 39.625 C15.58053425 43.73068227 12.70447169 46.13791503 9 49 C9.62533375 51.52363988 9.62533375 51.52363988 11 54 C13.54775306 54.89386164 13.54775306 54.89386164 16 55 C15.505 52.525 15.505 52.525 15 50 C16.39417773 49.65980848 17.79044658 49.32818221 19.1875 49 C19.96480469 48.814375 20.74210937 48.62875 21.54296875 48.4375 C24.07990225 47.98577257 26.42879903 47.92692857 29 48 C28.88512252 49.58409994 28.75765492 51.16728963 28.625 52.75 C28.52058594 54.07257812 28.52058594 54.07257812 28.4140625 55.421875 C28.00149945 57.99066382 27.28839043 59.75841015 26 62 C26.886875 62.061875 27.77375 62.12375 28.6875 62.1875 C32.74081992 63.18171055 34.29831749 64.90101124 37 68 C37.66 66.35 38.32 64.7 39 63 C41 66.75 41 66.75 41 69 C41.99 69.33 42.98 69.66 44 70 C43.01 70.33 42.02 70.66 41 71 C40.67 72.98 40.34 74.96 40 77 C39.34 77 38.68 77 38 77 C37.95875 77.721875 37.9175 78.44375 37.875 79.1875 C36.60534887 83.2685215 34.42277215 84.48531026 31 87 C27.92805092 88.53597454 25.39755707 88.2265038 22 88 C17.40619737 86.46873246 14.85051071 84.41868643 12.62890625 80.03125 C11.45384134 76.2360093 11.88117607 72.76717931 13 69 C14.875 66.125 14.875 66.125 17 64 C17.5775 63.401875 18.155 62.80375 18.75 62.1875 C19.36875 61.5996875 19.36875 61.5996875 20 61 C19.34 59.68 18.68 58.36 18 57 C14.51400668 57.45913678 14.51400668 57.45913678 11 59 C9.57707802 62.35515584 9.57707802 62.35515584 9 66 C8.34 67.32 7.68 68.64 7 70 C5.515 64.555 5.515 64.555 4 59 C1.36 58.34 -1.28 57.68 -4 57 C-4 56.34 -4 55.68 -4 55 C0.455 54.505 0.455 54.505 5 54 C5.33 52.35 5.66 50.7 6 49 C2.87498361 49.37294434 -0.06418547 49.84070212 -3 51 C-4.69165301 53.98283157 -4.69165301 53.98283157 -5 57 C-5.268125 56.4225 -5.53625 55.845 -5.8125 55.25 C-7.01719859 52.9674132 -8.40798115 51.0262058 -10 49 C-9.01 48.505 -9.01 48.505 -8 48 C-8.268125 47.46375 -8.53625 46.9275 -8.8125 46.375 C-9.204375 45.59125 -9.59625 44.8075 -10 44 C-10.53625 43.113125 -11.0725 42.22625 -11.625 41.3125 C-13.85897475 35.93065174 -13.77402562 31.23607402 -11.875 25.75 C-8.65956841 21.03403366 -5.77853286 18.37291818 -0.125 17.1875 C1.421875 17.0946875 1.421875 17.0946875 3 17 C2.68289062 16.30519531 2.36578125 15.61039063 2.0390625 14.89453125 C0.29657514 10.04045931 0.33804415 5.12700291 0 0 Z " fill="#E6A404" transform="translate(24,3)"/>
<path d="M0 0 C-0.11487748 1.58409994 -0.24234508 3.16728963 -0.375 4.75 C-0.44460937 5.63171875 -0.51421875 6.5134375 -0.5859375 7.421875 C-0.99850055 9.99066382 -1.71160957 11.75841015 -3 14 C-1.6696875 14.0928125 -1.6696875 14.0928125 -0.3125 14.1875 C3.74081992 15.18171055 5.29831749 16.90101124 8 20 C8.66 18.35 9.32 16.7 10 15 C12 18.75 12 18.75 12 21 C12.99 21.33 13.98 21.66 15 22 C14.01 22.33 13.02 22.66 12 23 C11.67 24.98 11.34 26.96 11 29 C10.34 29 9.68 29 9 29 C8.95875 29.721875 8.9175 30.44375 8.875 31.1875 C7.60534887 35.2685215 5.42277215 36.48531026 2 39 C-1.07194908 40.53597454 -3.60244293 40.2265038 -7 40 C-11.59380263 38.46873246 -14.14948929 36.41868643 -16.37109375 32.03125 C-17.54615866 28.2360093 -17.11882393 24.76717931 -16 21 C-13.99019804 17.91830366 -11.58530276 15.58530276 -9 13 C-9.3609375 12.45730469 -9.721875 11.91460937 -10.09375 11.35546875 C-10.78984375 10.28232422 -10.78984375 10.28232422 -11.5 9.1875 C-12.19609375 8.12595703 -12.19609375 8.12595703 -12.90625 7.04296875 C-14 5 -14 5 -14 2 C-12.60582227 1.65980848 -11.20955342 1.32818221 -9.8125 1 C-8.64654297 0.7215625 -8.64654297 0.7215625 -7.45703125 0.4375 C-4.92009775 -0.01422743 -2.57120097 -0.07307143 0 0 Z " fill="#898989" transform="translate(53,51)"/>
<path d="M0 0 C2.94887797 0.50842724 5.37371875 1.59306362 8 3 C7.67 4.32 7.34 5.64 7 7 C7.99 7.66 8.98 8.32 10 9 C9.67 10.32 9.34 11.64 9 13 C8.40832031 13.01417969 7.81664062 13.02835938 7.20703125 13.04296875 C2.73283361 13.31302636 0.61093656 13.46875082 -2.875 16.5 C-3.57625 17.325 -4.2775 18.15 -5 19 C-5.99 19.33 -6.98 19.66 -8 20 C-7.938125 21.051875 -7.87625 22.10375 -7.8125 23.1875 C-8.01527909 27.31067478 -8.12662819 29.03955632 -11 32 C-15.61050246 33.54587435 -18.94056545 33.51972261 -23.3125 31.375 C-28.28115952 26.98409159 -30.72295732 23.83458743 -31.24609375 17.15625 C-31 15 -31 15 -28.625 12 C-27.75875 11.34 -26.8925 10.68 -26 10 C-25.67 9.67 -25.34 9.34 -25 9 C-23.00041636 8.95919217 -20.99954746 8.95745644 -19 9 C-19 8.34 -19 7.68 -19 7 C-15.62537285 7.54723683 -13.91765 8.0549 -11 10 C-6.35478422 8.67279549 -4.64043213 8.06738688 -2.125 3.875 C-1.75375 2.92625 -1.3825 1.9775 -1 1 C-0.67 0.67 -0.34 0.34 0 0 Z " fill="#C9383A" transform="translate(91,25)"/>
<path d="M0 0 C0.33 0 0.66 0 1 0 C1.19916016 1.26457031 1.19916016 1.26457031 1.40234375 2.5546875 C1.57894531 3.65039062 1.75554688 4.74609375 1.9375 5.875 C2.11152344 6.96554688 2.28554688 8.05609375 2.46484375 9.1796875 C2.85551159 11.93821546 2.85551159 11.93821546 4 14 C6.80980673 14.69227032 6.80980673 14.69227032 10.0625 15.125 C11.16722656 15.29257812 12.27195312 15.46015625 13.41015625 15.6328125 C14.26480469 15.75398438 15.11945313 15.87515625 16 16 C13.3144406 18.6855594 10.62378672 19.06049974 7 20 C8.32 20.33 9.64 20.66 11 21 C11 21.99 11 22.98 11 24 C9.9275 24.2475 8.855 24.495 7.75 24.75 C3.00297814 26.28708946 3.00297814 26.28708946 0 30 C-0.44071113 34.721905 0.34910394 38.691841 3.3125 42.4375 C6.23888809 45.22777701 8.19562254 46.90762573 12.2890625 47.1171875 C13.05992188 47.03726563 13.83078125 46.95734375 14.625 46.875 C15.78902344 46.77832031 15.78902344 46.77832031 16.9765625 46.6796875 C19.14077608 46.17412864 19.14077608 46.17412864 20.265625 44.2109375 C21.03381235 41.89820324 21.2058641 40.17592308 21.125 37.75 C21.08375 36.5125 21.0425 35.275 21 34 C22.32 34.33 23.64 34.66 25 35 C26.27657127 40.68654474 25.88032755 43.91142133 23 49 C18.2792535 53.37532602 15.06439487 54.4794901 8.73828125 54.40625 C3.24552963 53.59134819 -0.75094163 50.43698508 -4.44921875 46.4296875 C-7.84563838 41.49594109 -7.87862373 35.77019241 -7 30 C-5.92201286 27.30967864 -4.69494974 25.38352307 -3 23 C-5.31881505 20.32098068 -7.31814468 19.33795597 -10.6875 18.3125 C-11.49574219 18.06113281 -12.30398437 17.80976563 -13.13671875 17.55078125 C-13.75160156 17.36902344 -14.36648437 17.18726562 -15 17 C-15 16.67 -15 16.34 -15 16 C-14.38511719 15.95101563 -13.77023438 15.90203125 -13.13671875 15.8515625 C-12.32847656 15.77679688 -11.52023438 15.70203125 -10.6875 15.625 C-9.88699219 15.55539063 -9.08648437 15.48578125 -8.26171875 15.4140625 C-5.72775559 15.10435574 -5.72775559 15.10435574 -3 13 C-1.9758672 9.89823654 -1.9758672 9.89823654 -1.3125 6.375 C-1.06113281 5.18648437 -0.80976562 3.99796875 -0.55078125 2.7734375 C-0.36902344 1.85820312 -0.18726563 0.94296875 0 0 Z " fill="#BF1D1E" transform="translate(61,10)"/>
<path d="M0 0 C-0.47549934 2.62571335 -0.95522567 5.2505304 -1.4375 7.875 C-1.57220703 8.62136719 -1.70691406 9.36773437 -1.84570312 10.13671875 C-2.88671875 15.7734375 -2.88671875 15.7734375 -4 18 C-5.65 18 -7.3 18 -9 18 C-9.33 18.99 -9.66 19.98 -10 21 C-10.66 21 -11.32 21 -12 21 C-11.2236068 24.0745356 -11.2236068 24.0745356 -9 26 C-9.66 26.33 -10.32 26.66 -11 27 C-11.72693904 28.97888961 -12.39816251 30.97954558 -13 33 C-13.268125 32.4225 -13.53625 31.845 -13.8125 31.25 C-15.01719859 28.9674132 -16.40798115 27.0262058 -18 25 C-17.34 24.67 -16.68 24.34 -16 24 C-16.268125 23.46375 -16.53625 22.9275 -16.8125 22.375 C-17.204375 21.59125 -17.59625 20.8075 -18 20 C-18.804375 18.576875 -18.804375 18.576875 -19.625 17.125 C-21.09144223 13.79217675 -21.25684186 11.59578599 -21 8 C-20.01 8 -19.02 8 -18 8 C-16.89785156 7.98259766 -16.89785156 7.98259766 -15.7734375 7.96484375 C-14.98195313 7.95582031 -14.19046875 7.94679688 -13.375 7.9375 C-12.57835937 7.92589844 -11.78171875 7.91429687 -10.9609375 7.90234375 C-9 8 -9 8 -8 9 C-8 8.01 -8 7.02 -8 6 C-8.99 6 -9.98 6 -11 6 C-10.6875 4.125 -10.6875 4.125 -10 2 C-6.3558226 -0.4294516 -4.28758728 -0.16179575 0 0 Z " fill="#FACB0E" transform="translate(32,27)"/>
<path d="M0 0 C-0.3991055 5.40892978 -0.92449931 9.95949832 -3 15 C-2.71260075 17.24240782 -2.71260075 17.24240782 -2 19 C-2.78375 19.2475 -3.5675 19.495 -4.375 19.75 C-7.32317108 21.15389099 -7.9024777 22.00675737 -9 25 C-8.01 25.33 -7.02 25.66 -6 26 C-6.928125 26.12375 -6.928125 26.12375 -7.875 26.25 C-10.15354435 26.79278299 -10.15354435 26.79278299 -11.0625 28.875 C-11.371875 29.57625 -11.68125 30.2775 -12 31 C-13.625 32.75 -13.625 32.75 -15 34 C-17.60597757 29.54559647 -17.22804267 25.90339895 -16 21 C-13.99019804 17.91830366 -11.58530276 15.58530276 -9 13 C-9.3609375 12.45730469 -9.721875 11.91460937 -10.09375 11.35546875 C-10.78984375 10.28232422 -10.78984375 10.28232422 -11.5 9.1875 C-12.19609375 8.12595703 -12.19609375 8.12595703 -12.90625 7.04296875 C-14 5 -14 5 -14 2 C-12.60582227 1.65980848 -11.20955342 1.32818221 -9.8125 1 C-8.64654297 0.7215625 -8.64654297 0.7215625 -7.45703125 0.4375 C-4.92009775 -0.01422743 -2.57120097 -0.07307143 0 0 Z " fill="#898A8B" transform="translate(53,51)"/>
<path d="M0 0 C2.94887797 0.50842724 5.37371875 1.59306362 8 3 C7.67 4.32 7.34 5.64 7 7 C7.99 7.66 8.98 8.32 10 9 C9.67 10.32 9.34 11.64 9 13 C8.40832031 13.01417969 7.81664063 13.02835938 7.20703125 13.04296875 C1.18119815 13.40668135 -0.73040203 14.61500749 -5 19 C-8.3125 18.8125 -8.3125 18.8125 -11 18 C-11.33 15.69 -11.66 13.38 -12 11 C-11.45730469 10.78085937 -10.91460937 10.56171875 -10.35546875 10.3359375 C-6.38125532 8.57439425 -4.38246245 7.62921242 -2.0625 3.8125 C-1.711875 2.884375 -1.36125 1.95625 -1 1 C-0.67 0.67 -0.34 0.34 0 0 Z " fill="#61A9B0" transform="translate(91,25)"/>
<path d="M0 0 C5.52628901 1.19194469 8.17819158 2.5991297 12 7 C12.66 5.35 13.32 3.7 14 2 C16 5.75 16 5.75 16 8 C16.99 8.33 17.98 8.66 19 9 C18.01 9.33 17.02 9.66 16 10 C15.67 11.98 15.34 13.96 15 16 C14.34 15.34 13.68 14.68 13 14 C13 12.68 13 11.36 13 10 C10.69 9.67 8.38 9.34 6 9 C4.68 11.64 3.36 14.28 2 17 C3.32 17 4.64 17 6 17 C6 17.99 6 18.98 6 20 C1.05 20.495 1.05 20.495 -4 21 C-3.04475334 17.17901335 -2.24411464 15.99215285 0 13 C0.70514846 10.85266073 0.70514846 10.85266073 1 9 C0.566875 9.495 0.13375 9.99 -0.3125 10.5 C-2 12 -2 12 -5 12 C-4.8125 10.1875 -4.8125 10.1875 -4 8 C-1.4375 6.25 -1.4375 6.25 1 5 C0.67 3.35 0.34 1.7 0 0 Z " fill="#BFBFBE" transform="translate(49,64)"/>
<path d="M0 0 C1.0209375 0.804375 1.0209375 0.804375 2.0625 1.625 C1.7325 3.275 1.4025 4.925 1.0625 6.625 C-0.21625 6.8725 -1.495 7.12 -2.8125 7.375 C-6.20497318 8.14490586 -6.20497318 8.14490586 -8.4375 10.75 C-8.6025 11.36875 -8.7675 11.9875 -8.9375 12.625 C-7.6175 12.295 -6.2975 11.965 -4.9375 11.625 C-5.2675 14.265 -5.5975 16.905 -5.9375 19.625 C-6.2675 19.625 -6.5975 19.625 -6.9375 19.625 C-6.9375 17.975 -6.9375 16.325 -6.9375 14.625 C-8.39630109 14.76607747 -9.85453551 14.91302415 -11.3125 15.0625 C-12.12460937 15.14371094 -12.93671875 15.22492187 -13.7734375 15.30859375 C-15.98022805 15.51590114 -15.98022805 15.51590114 -17.9375 16.625 C-18.9818145 13.39711882 -19.02279053 11.86582032 -17.875 8.625 C-14.82069379 3.89575168 -11.55397993 1.30562313 -6.375 -0.875 C-2.9375 -1.375 -2.9375 -1.375 0 0 Z " fill="#E0A105" transform="translate(29.9375,20.375)"/>
<path d="M0 0 C0.33 0 0.66 0 1 0 C1.19916016 1.26457031 1.19916016 1.26457031 1.40234375 2.5546875 C1.57894531 3.65039062 1.75554688 4.74609375 1.9375 5.875 C2.11152344 6.96554688 2.28554688 8.05609375 2.46484375 9.1796875 C2.85551159 11.93821546 2.85551159 11.93821546 4 14 C6.80980673 14.69227032 6.80980673 14.69227032 10.0625 15.125 C11.16722656 15.29257812 12.27195312 15.46015625 13.41015625 15.6328125 C14.26480469 15.75398438 15.11945313 15.87515625 16 16 C13.80541184 18.19458816 12.54316278 18.60806985 9.625 19.5 C7.26209727 20.22704699 5.14227929 20.92368161 2.9609375 22.09375 C1 23 1 23 -3 23 C-4.02167244 22.02215265 -5.02004418 21.01965023 -6 20 C-8.2603044 19.00626561 -8.2603044 19.00626561 -10.6875 18.3125 C-11.49574219 18.06113281 -12.30398437 17.80976563 -13.13671875 17.55078125 C-13.75160156 17.36902344 -14.36648437 17.18726562 -15 17 C-15 16.67 -15 16.34 -15 16 C-14.38511719 15.95101563 -13.77023438 15.90203125 -13.13671875 15.8515625 C-12.32847656 15.77679688 -11.52023438 15.70203125 -10.6875 15.625 C-9.88699219 15.55539063 -9.08648437 15.48578125 -8.26171875 15.4140625 C-5.72775559 15.10435574 -5.72775559 15.10435574 -3 13 C-1.9758672 9.89823654 -1.9758672 9.89823654 -1.3125 6.375 C-1.06113281 5.18648437 -0.80976562 3.99796875 -0.55078125 2.7734375 C-0.36902344 1.85820312 -0.18726563 0.94296875 0 0 Z " fill="#FBD541" transform="translate(61,10)"/>
<path d="M0 0 C3 1.375 3 1.375 5 3 C5 3.66 5 4.32 5 5 C4.29875 4.67 3.5975 4.34 2.875 4 C-0.34160154 2.88118207 -2.61830655 2.63242462 -6 3 C-8.10242444 3.85219923 -8.10242444 3.85219923 -9 6 C-9.08360986 11.17450156 -9.08360986 11.17450156 -6.796875 15.6328125 C-4.21029544 18.01518841 -2.22110526 18.97023583 1.25 19.4375 C4.13738349 19.25410159 4.13738349 19.25410159 6 17 C6.45811675 15.02764667 6.45811675 15.02764667 6.625 12.875 C6.74875 11.59625 6.8725 10.3175 7 9 C7.99 9.33 8.98 9.66 10 10 C10.21053652 13.5791209 10.17894979 16.45122063 9.0625 19.875 C6.30303293 22.71808728 4.16404163 22.97860559 0.28125 23.19921875 C-4.42281534 22.78841852 -7.03545152 19.91241073 -10.3125 16.8125 C-12.62654718 12.9557547 -13.45524125 9.49550732 -13 5 C-9.65362346 -0.28943389 -5.84696136 -1.10809348 0 0 Z " fill="#F4E7E6" transform="translate(73,35)"/>
<path d="M0 0 C4.95 0.99 9.9 1.98 15 3 C9.25 14.75 9.25 14.75 7 17 C5 16.875 5 16.875 3 16 C-0.10401561 11.24348688 0.35811971 5.49116889 0 0 Z " fill="#9A3965" transform="translate(24,3)"/>
<path d="M0 0 C0.66 0 1.32 0 2 0 C2.66 3.3 3.32 6.6 4 10 C6.64 10.66 9.28 11.32 12 12 C8 14 8 14 5.9375 14.75 C3.77286368 15.86493784 3.77286368 15.86493784 3.171875 18.3828125 C3.03265625 19.28773437 2.8934375 20.19265625 2.75 21.125 C2.60046875 22.03507812 2.4509375 22.94515625 2.296875 23.8828125 C2.19890625 24.58148438 2.1009375 25.28015625 2 26 C1.34 25.67 0.68 25.34 0 25 C-0.60076256 22.72600246 -0.9563154 20.44869424 -1.33984375 18.12890625 C-1.86888679 15.63209975 -1.86888679 15.63209975 -5 14 C-6.65549531 13.61500109 -8.3222433 13.27206865 -10 13 C-7.4345406 10.4345406 -5.52313332 10.45953913 -2 10 C-1.34 6.7 -0.68 3.4 0 0 Z " fill="#FABE41" transform="translate(75,67)"/>
<path d="M0 0 C0.99 0.33 1.98 0.66 3 1 C3.268125 1.825 3.53625 2.65 3.8125 3.5 C4.204375 4.325 4.59625 5.15 5 6 C8.05272465 6.89830839 8.05272465 6.89830839 11 7 C11 7.66 11 8.32 11 9 C9.88625 9.28875 8.7725 9.5775 7.625 9.875 C5.63305895 10.58861643 5.63305895 10.58861643 4 12 C2.76989185 15.27852858 2.31960604 18.52346897 2 22 C-0.3129482 19.6870518 -0.49580975 18.52095125 -1.125 15.375 C-1.29257812 14.55773437 -1.46015625 13.74046875 -1.6328125 12.8984375 C-1.75398438 12.27195312 -1.87515625 11.64546875 -2 11 C-4.64 10.34 -7.28 9.68 -10 9 C-10 8.34 -10 7.68 -10 7 C-5.545 6.505 -5.545 6.505 -1 6 C-0.67 4.02 -0.34 2.04 0 0 Z " fill="#F7BA3B" transform="translate(30,51)"/>
<path d="M0 0 C-0.47549934 2.62571335 -0.95522567 5.2505304 -1.4375 7.875 C-1.57220703 8.62136719 -1.70691406 9.36773437 -1.84570312 10.13671875 C-2.88671875 15.7734375 -2.88671875 15.7734375 -4 18 C-5.65 18 -7.3 18 -9 18 C-8.67 14.04 -8.34 10.08 -8 6 C-8.99 6 -9.98 6 -11 6 C-10.6875 4.125 -10.6875 4.125 -10 2 C-6.3558226 -0.4294516 -4.28758728 -0.16179575 0 0 Z " fill="#FBE78C" transform="translate(32,27)"/>
<path d="M0 0 C2.5 0.25 2.5 0.25 4.5 2.25 C4.17582137 6.05909895 3.64418558 8.03372163 1.5 11.25 C2.82 11.25 4.14 11.25 5.5 11.25 C5.5 12.24 5.5 13.23 5.5 14.25 C2.2 14.58 -1.1 14.91 -4.5 15.25 C-3.54475334 11.42901335 -2.74411464 10.24215285 -0.5 7.25 C0.20514846 5.10266073 0.20514846 5.10266073 0.5 3.25 C0.066875 3.745 -0.36625 4.24 -0.8125 4.75 C-2.5 6.25 -2.5 6.25 -5.5 6.25 C-4.75451591 2.52257953 -4.15390859 0.41539086 0 0 Z " fill="#CFCFCF" transform="translate(49.5,69.75)"/>
<path d="M0 0 C1.55104893 2.32657339 2.82336701 4.51231096 4.0625 7 C4.40410156 7.680625 4.74570312 8.36125 5.09765625 9.0625 C6 11 6 11 7 14 C8.83284443 15.12516085 8.83284443 15.12516085 11 16 C11.57621094 16.34675781 12.15242188 16.69351563 12.74609375 17.05078125 C15.68751497 18.2895427 18.07102186 18.19410822 21.25 18.125 C22.86648437 18.09792969 22.86648437 18.09792969 24.515625 18.0703125 C25.33546875 18.04710938 26.1553125 18.02390625 27 18 C23.19562543 21.26462349 20.57598265 21.63605483 15.66796875 21.4765625 C10.24083859 20.50714833 6.1149386 17.4455759 2.55078125 13.32421875 C-0.37461372 8.85914221 -0.35879847 5.1128782 0 0 Z " fill="#681112" transform="translate(54,43)"/>
<path d="M0 0 C3.40136289 1.37912403 4.69605565 2.62611859 6.25 5.9375 C6.58515625 6.62714844 6.9203125 7.31679688 7.265625 8.02734375 C8 10 8 10 8 13 C6.35 13.33 4.7 13.66 3 14 C3 13.34 3 12.68 3 12 C2.34 12 1.68 12 1 12 C0.67 11.34 0.34 10.68 0 10 C-0.99 10.33 -1.98 10.66 -3 11 C-2.25 3.375 -2.25 3.375 0 0 Z " fill="#F7CB0F" transform="translate(35,23)"/>
<path d="M0 0 C0.33 0 0.66 0 1 0 C2.20568053 4.67201205 2.09382426 9.21496292 2 14 C1.34 14 0.68 14 0 14 C-1.63676257 15.9600281 -1.63676257 15.9600281 -3 18 C-2.67 18.66 -2.34 19.32 -2 20 C-6.48525648 19.343621 -10.66914029 18.29925791 -15 17 C-15 16.67 -15 16.34 -15 16 C-14.38511719 15.95101563 -13.77023438 15.90203125 -13.13671875 15.8515625 C-12.32847656 15.77679688 -11.52023438 15.70203125 -10.6875 15.625 C-9.88699219 15.55539063 -9.08648437 15.48578125 -8.26171875 15.4140625 C-5.72775559 15.10435574 -5.72775559 15.10435574 -3 13 C-1.9758672 9.89823654 -1.9758672 9.89823654 -1.3125 6.375 C-1.06113281 5.18648437 -0.80976562 3.99796875 -0.55078125 2.7734375 C-0.36902344 1.85820312 -0.18726563 0.94296875 0 0 Z " fill="#FED65F" transform="translate(61,10)"/>
<path d="M0 0 C-0.14095064 1.6254308 -0.28792087 3.25034051 -0.4375 4.875 C-0.51871094 5.77992187 -0.59992187 6.68484375 -0.68359375 7.6171875 C-1 10 -1 10 -2 12 C-5.1744176 10.90537324 -5.98914157 10.01822665 -7.75 7.0625 C-9 4 -9 4 -9 1 C-5.8035914 -0.06546953 -3.34252724 -0.07427838 0 0 Z " fill="#404BA7" transform="translate(48,52)"/>
<path d="M0 0 C0.33 0 0.66 0 1 0 C1.99 2.97 2.98 5.94 4 9 C6.31 9.33 8.62 9.66 11 10 C11.66 7.69 12.32 5.38 13 3 C13.66 3 14.32 3 15 3 C15.36180905 10.35678392 15.36180905 10.35678392 13.875 13 C10.9291657 14.57111163 9.30860376 14.57264296 6 14 C3.16086319 12.39229603 0.96531953 10.61285256 -1 8 C-1.5 4.1875 -1.5 4.1875 -1 1 C-0.67 0.67 -0.34 0.34 0 0 Z " fill="#B62124" transform="translate(65,41)"/>
<path d="M0 0 C1.010625 0.0825 2.02125 0.165 3.0625 0.25 C3.7225 1.24 4.3825 2.23 5.0625 3.25 C3.0825 3.25 1.1025 3.25 -0.9375 3.25 C-0.6075 4.9 -0.2775 6.55 0.0625 8.25 C1.3825 8.25 2.7025 8.25 4.0625 8.25 C4.3925 6.93 4.7225 5.61 5.0625 4.25 C5.7225 4.25 6.3825 4.25 7.0625 4.25 C7.1875 7.125 7.1875 7.125 7.0625 10.25 C6.4025 10.91 5.7425 11.57 5.0625 12.25 C1.625 12.1875 1.625 12.1875 -1.9375 11.25 C-3.9375 9 -3.9375 9 -4.9375 6.25 C-4.40338694 0.37475634 -4.40338694 0.37475634 0 0 Z " fill="#F6E8E8" transform="translate(70.9375,39.75)"/>
<path d="M0 0 C0.66 0.33 1.32 0.66 2 1 C2.625 4.0625 2.625 4.0625 3 7 C4.65 7.33 6.3 7.66 8 8 C7.67 8.66 7.34 9.32 7 10 C6.01 10.33 5.02 10.66 4 11 C3.19787372 12.87387216 3.19787372 12.87387216 2.8125 15.0625 C2.65394531 15.79597656 2.49539062 16.52945312 2.33203125 17.28515625 C2.22246094 17.85105469 2.11289062 18.41695312 2 19 C1.34 18.67 0.68 18.34 0 18 C-0.309375 16.845 -0.61875 15.69 -0.9375 14.5 C-1.288125 13.345 -1.63875 12.19 -2 11 C-2.99 10.67 -3.98 10.34 -5 10 C-5 9.34 -5 8.68 -5 8 C-3.68 8 -2.36 8 -1 8 C-0.67 5.36 -0.34 2.72 0 0 Z " fill="#FDC157" transform="translate(43,9)"/>
<path d="M0 0 C2 2 2 2 2.375 4 C2.82123176 6.20265017 2.82123176 6.20265017 5.0625 7.25 C5.701875 7.4975 6.34125 7.745 7 8 C5.35 8.66 3.7 9.32 2 10 C1.67 12.31 1.34 14.62 1 17 C0.67 17 0.34 17 0 17 C-0.66 14.69 -1.32 12.38 -2 10 C-3.32 9.67 -4.64 9.34 -6 9 C-6 8.34 -6 7.68 -6 7 C-5.38125 6.95875 -4.7625 6.9175 -4.125 6.875 C-3.42375 6.58625 -2.7225 6.2975 -2 6 C-0.6954344 3.00384054 -0.6954344 3.00384054 0 0 Z " fill="#FAB34A" transform="translate(49,30)"/>
<path d="M0 0 C0.66 0 1.32 0 2 0 C1.42365861 4.75481646 -0.55068521 7.97048212 -3 12 C0.465 11.505 0.465 11.505 4 11 C2.25 13 2.25 13 0 15 C-1.32 15 -2.64 15 -4 15 C-6.42857143 8.71428571 -6.42857143 8.71428571 -5 5 C-3.68 4.67 -2.36 4.34 -1 4 C-0.67 2.68 -0.34 1.36 0 0 Z " fill="#A4A4A4" transform="translate(48,73)"/>
<path d="M0 0 C1.32 0.33 2.64 0.66 4 1 C4 4.63 4 8.26 4 12 C4.99 12 5.98 12 7 12 C6.34 13.65 5.68 15.3 5 17 C1.2333001 13.39706966 0.82438694 11.07033897 0.4375 5.875 C0.35371094 4.77929688 0.26992188 3.68359375 0.18359375 2.5546875 C0.12300781 1.71164062 0.06242187 0.86859375 0 0 Z " fill="#404CA2" transform="translate(24,3)"/>
<path d="M0 0 C0.99 0.33 1.98 0.66 3 1 C3.3648 6.472 3.3648 6.472 1.8125 8.71875 C-0.70346774 10.49727892 -2.18249055 10.11678706 -5.1875 9.6875 C-6.08855469 9.56761719 -6.98960938 9.44773437 -7.91796875 9.32421875 C-8.60503906 9.21722656 -9.29210937 9.11023437 -10 9 C-10 8.34 -10 7.68 -10 7 C-5.545 6.505 -5.545 6.505 -1 6 C-0.67 4.02 -0.34 2.04 0 0 Z " fill="#FAC559" transform="translate(30,51)"/>
<path d="M0 0 C2.64 0.66 5.28 1.32 8 2 C7.67 2.99 7.34 3.98 7 5 C6.34 5.28875 5.68 5.5775 5 5.875 C2.70849401 6.8553382 2.70849401 6.8553382 2.25 9.625 C2.1675 10.40875 2.085 11.1925 2 12 C1.67 11.01 1.34 10.02 1 9 C-0.32 9 -1.64 9 -3 9 C-2.01 6.03 -1.02 3.06 0 0 Z " fill="#A0A0A0" transform="translate(54,72)"/>
<path d="M0 0 C1.32 0.33 2.64 0.66 4 1 C5.32854177 6.9180497 4.66464729 9.77729131 2 15 C-0.35119399 11.47320901 -0.21443452 9.97120515 -0.125 5.8125 C-0.10695313 4.72582031 -0.08890625 3.63914063 -0.0703125 2.51953125 C-0.04710938 1.68808594 -0.02390625 0.85664062 0 0 Z " fill="#902527" transform="translate(82,44)"/>
<path d="M0 0 C0.99 0.33 1.98 0.66 3 1 C1.63855967 6.19822672 -0.46730171 9.09543873 -4 13 C-4.99 12.67 -5.98 12.34 -7 12 C-4.69 8.04 -2.38 4.08 0 0 Z " fill="#FE4844" transform="translate(39,6)"/>
<path d="M0 0 C2 2 2 2 2 5 C3.32 5 4.64 5 6 5 C6 5.66 6 6.32 6 7 C5.01 7.33 4.02 7.66 3 8 C1.78130071 10.50447516 1.78130071 10.50447516 1 13 C-1 9.25 -1 9.25 -1 7 C-2.32 7 -3.64 7 -5 7 C-5 6.34 -5 5.68 -5 5 C-3.68 4.67 -2.36 4.34 -1 4 C-0.67 2.68 -0.34 1.36 0 0 Z " fill="#FCB955" transform="translate(22,61)"/>
<path d="M0 0 C0.33 0.66 0.66 1.32 1 2 C3.52733235 2.65555119 3.52733235 2.65555119 6 3 C5.67 3.99 5.34 4.98 5 6 C1.37 6 -2.26 6 -6 6 C-3.6 0 -3.6 0 0 0 Z " fill="#3C8E96" transform="translate(95,32)"/>
<path d="M0 0 C2 3 2 3 2 5 C3.32 5.66 4.64 6.32 6 7 C5.01 7.33 4.02 7.66 3 8 C1.78130071 10.50447516 1.78130071 10.50447516 1 13 C-1 10 -1 10 -2 8 C-2.99 7.34 -3.98 6.68 -5 6 C-4.360625 5.7525 -3.72125 5.505 -3.0625 5.25 C-0.81258459 4.18437567 -0.81258459 4.18437567 -0.25 1.875 C-0.1675 1.25625 -0.085 0.6375 0 0 Z " fill="#FCB856" transform="translate(67,81)"/>
<path d="M0 0 C2.92879371 0.62759865 5.36095629 1.58622659 8 3 C7.773125 3.598125 7.54625 4.19625 7.3125 4.8125 C7.1578125 5.8953125 7.1578125 5.8953125 7 7 C8.35444301 8.77190909 8.35444301 8.77190909 10 10 C7.69 10 5.38 10 3 10 C3 7.36 3 4.72 3 2 C1.68 2.33 0.36 2.66 -1 3 C-0.67 2.01 -0.34 1.02 0 0 Z " fill="#61B6BD" transform="translate(91,25)"/>
<path d="M0 0 C0.99 0.33 1.98 0.66 3 1 C4.61360916 6.32491024 3.15151188 10.50505759 0.875 15.4375 C0.58625 15.953125 0.2975 16.46875 0 17 C-1.29977971 14.40044058 -0.9002386 12.86869334 -0.5625 10 C-0.14614978 6.50760234 -0.14614978 6.50760234 0 3 C-0.66 2.34 -1.32 1.68 -2 1 C-1.34 0.67 -0.68 0.34 0 0 Z " fill="#EFAF28" transform="translate(31,19)"/>
<path d="M0 0 C2 3.75 2 3.75 2 6 C2.99 6.33 3.98 6.66 5 7 C4.01 7.33 3.02 7.66 2 8 C1.67 9.98 1.34 11.96 1 14 C-1.64751415 11.35248585 -1.71520084 9.70238904 -2 6 C-1.0625 2.625 -1.0625 2.625 0 0 Z " fill="#FCC554" transform="translate(63,66)"/>
<path d="M0 0 C2.0625 0.4375 2.0625 0.4375 4 1 C4 1.66 4 2.32 4 3 C4.66 3 5.32 3 6 3 C5.67 4.32 5.34 5.64 5 7 C3.35 6.67 1.7 6.34 0 6 C-0.38218767 4.34385343 -0.71395102 2.67542976 -1 1 C-0.67 0.67 -0.34 0.34 0 0 Z " fill="#B61D1B" transform="translate(70,42)"/>
<path d="M0 0 C0.99 0.33 1.98 0.66 3 1 C2.09755571 2.79887229 1.17748214 4.58890815 0.25 6.375 C-0.51570313 7.87160156 -0.51570313 7.87160156 -1.296875 9.3984375 C-3 12 -3 12 -7 14 C-4.69 9.38 -2.38 4.76 0 0 Z " fill="#E7E0E3" transform="translate(36,6)"/>
<path d="M0 0 C0.99 0 1.98 0 3 0 C2.93952782 1.58437117 2.85061054 3.16767058 2.75 4.75 C2.70359375 5.63171875 2.6571875 6.5134375 2.609375 7.421875 C2 10 2 10 -2 14 C-1.34 9.38 -0.68 4.76 0 0 Z " fill="#FB4F4C" transform="translate(50,51)"/>
<path d="M0 0 C1.55104893 2.32657339 2.82336701 4.51231096 4.0625 7 C4.40410156 7.680625 4.74570312 8.36125 5.09765625 9.0625 C6 11 6 11 7 14 C5.68 14 4.36 14 3 14 C-0.00559652 8.99067246 -0.29341888 5.67276511 0 0 Z " fill="#9F0303" transform="translate(54,43)"/>
<path d="M0 0 C-0.33 1.32 -0.66 2.64 -1 4 C-3.97 4.66 -6.94 5.32 -10 6 C-9.67 4.68 -9.34 3.36 -9 2 C-5.70173093 0.21715186 -3.8225249 0 0 0 Z " fill="#60D6DF" transform="translate(90,34)"/>
<path d="M0 0 C-4 3 -8 6 -12 9 C-12 5 -12 5 -9.375 2.25 C-6.25902018 -0.17601286 -3.96328 -0.47181905 0 0 Z " fill="#D78E00" transform="translate(26,21)"/>
<path d="M0 0 C1.65 1.32 3.3 2.64 5 4 C4.01 4.495 4.01 4.495 3 5 C2.27306096 6.97888961 1.60183749 8.97954558 1 11 C0.731875 10.4225 0.46375 9.845 0.1875 9.25 C-1.01719859 6.9674132 -2.40798115 5.0262058 -4 3 C-2.68 2.01 -1.36 1.02 0 0 Z " fill="#FAB64D" transform="translate(18,49)"/>
<path d="M0 0 C4.75 0.75 4.75 0.75 7 3 C7.125 5.625 7.125 5.625 7 8 C6.154375 7.360625 5.30875 6.72125 4.4375 6.0625 C1.09271435 3.8033727 -1.97396992 3.32208241 -6 3 C-6 2.67 -6 2.34 -6 2 C-4.02 2 -2.04 2 0 2 C0 1.34 0 0.68 0 0 Z " fill="#C13B3A" transform="translate(72,32)"/>
<path d="M0 0 C4 0 8 0 12 0 C11.67 0.99 11.34 1.98 11 3 C9.9275 2.938125 8.855 2.87625 7.75 2.8125 C3.89133813 3.00543309 2.71182212 3.39665076 0 6 C0 4.02 0 2.04 0 0 Z " fill="#F4BA07" transform="translate(11,35)"/>
<path d="M0 0 C0.66 0 1.32 0 2 0 C2.33 3.63 2.66 7.26 3 11 C2.01 10.67 1.02 10.34 0 10 C-0.33 10.66 -0.66 11.32 -1 12 C-0.67 8.04 -0.34 4.08 0 0 Z " fill="#FEC259" transform="translate(75,67)"/>
<path d="M0 0 C0.721875 0.268125 1.44375 0.53625 2.1875 0.8125 C2.1875 1.8025 2.1875 2.7925 2.1875 3.8125 C-1.1125 4.1425 -4.4125 4.4725 -7.8125 4.8125 C-3.50480769 -0.23365385 -3.50480769 -0.23365385 0 0 Z " fill="#C9C9C9" transform="translate(52.8125,80.1875)"/>
<path d="M0 0 C0.99 0.33 1.98 0.66 3 1 C3.25 7.625 3.25 7.625 1 11 C1 10.34 1 9.68 1 9 C0.34 8.67 -0.32 8.34 -1 8 C-0.67 5.36 -0.34 2.72 0 0 Z " fill="#BFACAB" transform="translate(80,44)"/>
<path d="M0 0 C0 0.33 0 0.66 0 1 C-0.969375 1.268125 -1.93875 1.53625 -2.9375 1.8125 C-3.948125 2.204375 -4.95875 2.59625 -6 3 C-6.33 3.99 -6.66 4.98 -7 6 C-8.32 6 -9.64 6 -11 6 C-10.6875 4.125 -10.6875 4.125 -10 2 C-6.3558226 -0.4294516 -4.28758728 -0.16179575 0 0 Z " fill="#F2D45E" transform="translate(32,27)"/>
<path d="M0 0 C0.66 0 1.32 0 2 0 C2.21192221 5.19209404 1.5912689 9.126739 0 14 C-0.33 14 -0.66 14 -1 14 C-1.08333357 9.1666528 -0.95261487 4.76307437 0 0 Z " fill="#E3DEE5" transform="translate(48,51)"/>
<path d="M0 0 C0.33 0 0.66 0 1 0 C1.33 2.97 1.66 5.94 2 9 C1.01 9.33 0.02 9.66 -1 10 C-1.33 10.99 -1.66 11.98 -2 13 C-1.85915204 11.20793453 -1.71216299 9.41635083 -1.5625 7.625 C-1.48128906 6.62726562 -1.40007813 5.62953125 -1.31640625 4.6015625 C-1 2 -1 2 0 0 Z " fill="#FCB850" transform="translate(61,10)"/>
<path d="M0 0 C2.0625 0.4375 2.0625 0.4375 4 1 C3.67 3.31 3.34 5.62 3 8 C1 7 1 7 -0.125 3.9375 C-0.41375 2.968125 -0.7025 1.99875 -1 1 C-0.67 0.67 -0.34 0.34 0 0 Z " fill="#EB8B8D" transform="translate(42,52)"/>
<path d="M0 0 C3.96 0.33 7.92 0.66 12 1 C8.99382731 4.00617269 6.17618402 3.59585316 2 4 C1.34 2.68 0.68 1.36 0 0 Z " fill="#FBA948" transform="translate(65,25)"/>
<path d="M0 0 C4.62609198 -0.3227506 7.28026121 0.15549386 11 3 C11 3.66 11 4.32 11 5 C10.319375 4.690625 9.63875 4.38125 8.9375 4.0625 C5.63034088 2.86629351 2.48454122 2.40994603 -1 2 C-0.67 1.34 -0.34 0.68 0 0 Z " fill="#F9F3F2" transform="translate(67,35)"/>
<path d="M0 0 C0 0.99 0 1.98 0 3 C-2.75 5.75 -2.75 5.75 -6 8 C-8.375 7.8125 -8.375 7.8125 -10 7 C-8.9171875 6.38125 -8.9171875 6.38125 -7.8125 5.75 C-5.02030138 4.01263197 -2.52987415 2.09618143 0 0 Z " fill="#D69000" transform="translate(40,43)"/>
<path d="M0 0 C1.32 0.33 2.64 0.66 4 1 C4.33 3.31 4.66 5.62 5 8 C2.21611025 6.29374499 1.14615794 5.52373261 0.25 2.3125 C0.1675 1.549375 0.085 0.78625 0 0 Z " fill="#AAAAAA" transform="translate(49,64)"/>
<path d="M0 0 C0.66 0 1.32 0 2 0 C2 1.98 2 3.96 2 6 C0.02 6.99 0.02 6.99 -2 8 C-2 7.34 -2 6.68 -2 6 C-2.66 5.67 -3.32 5.34 -4 5 C-3.01 4.67 -2.02 4.34 -1 4 C-0.26676204 1.98491642 -0.26676204 1.98491642 0 0 Z " fill="#D7C7C2" transform="translate(76,44)"/>
<path d="M0 0 C0.66 0 1.32 0 2 0 C2.33 2.97 2.66 5.94 3 9 C2.01 9.66 1.02 10.32 0 11 C0 7.37 0 3.74 0 0 Z " fill="#DDD0D5" transform="translate(28,4)"/>
<path d="M0 0 C0.66 0 1.32 0 2 0 C1.67 1.65 1.34 3.3 1 5 C-0.98 5.66 -2.96 6.32 -5 7 C-5 6.34 -5 5.68 -5 5 C-3.68 4.67 -2.36 4.34 -1 4 C-0.67 2.68 -0.34 1.36 0 0 Z " fill="#9C9C9C" transform="translate(48,73)"/>
<path d="M0 0 C0.61875 0.804375 1.2375 1.60875 1.875 2.4375 C3.74164041 5.03874519 3.74164041 5.03874519 6 6 C6 6.66 6 7.32 6 8 C3.625 7.75 3.625 7.75 1 7 C-0.375 5.125 -0.375 5.125 -1 3 C-0.67 2.01 -0.34 1.02 0 0 Z " fill="#EDD4D2" transform="translate(68,44)"/>
<path d="M0 0 C0.99 0.33 1.98 0.66 3 1 C2.773125 1.598125 2.54625 2.19625 2.3125 2.8125 C2.209375 3.534375 2.10625 4.25625 2 5 C3.35444301 6.77190909 3.35444301 6.77190909 5 8 C3.35 7.67 1.7 7.34 0 7 C-0.38133299 5.0085944 -0.71325582 3.00720923 -1 1 C-0.67 0.67 -0.34 0.34 0 0 Z " fill="#91C5CD" transform="translate(96,27)"/>
<path d="M0 0 C2.97 0 5.94 0 9 0 C9.66 1.32 10.32 2.64 11 4 C7.37 3.01 3.74 2.02 0 1 C0 0.67 0 0.34 0 0 Z " fill="#EFB34D" transform="translate(46,26)"/>
<path d="M0 0 C0.66 0.33 1.32 0.66 2 1 C-0.31 3.31 -2.62 5.62 -5 8 C-5.33 7.34 -5.66 6.68 -6 6 C-2.25 1.125 -2.25 1.125 0 0 Z " fill="#767676" transform="translate(43,66)"/>
<path d="M0 0 C2.38672669 2.96283313 4.7353371 5.94270509 7 9 C6.01 9 5.02 9 4 9 C0 3.85714286 0 3.85714286 0 0 Z " fill="#F4D807" transform="translate(12,40)"/>
<path d="M0 0 C1.32 0.33 2.64 0.66 4 1 C4 3.64 4 6.28 4 9 C2 8 2 8 1.3671875 6.15234375 C1.20476563 5.42144531 1.04234375 4.69054687 0.875 3.9375 C0.70742188 3.20402344 0.53984375 2.47054688 0.3671875 1.71484375 C0.24601562 1.14894531 0.12484375 0.58304688 0 0 Z " fill="#FAB13B" transform="translate(41,19)"/>
<path d="M0 0 C0.99 0.33 1.98 0.66 3 1 C3 1.66 3 2.32 3 3 C3.66 3.33 4.32 3.66 5 4 C2.36 4.33 -0.28 4.66 -3 5 C-3 4.34 -3 3.68 -3 3 C-2.01 3 -1.02 3 0 3 C0 2.01 0 1.02 0 0 Z " fill="#C99934" transform="translate(77,40)"/>
<path d="M0 0 C1.32 0 2.64 0 4 0 C3.67 1.32 3.34 2.64 3 4 C1.35 4 -0.3 4 -2 4 C-2 3.34 -2 2.68 -2 2 C-1.34 2 -0.68 2 0 2 C0 1.34 0 0.68 0 0 Z " fill="#5FE1E8" transform="translate(86,34)"/>
<path d="M0 0 C1.65 1.32 3.3 2.64 5 4 C3.35 4.33 1.7 4.66 0 5 C-0.5625 3.0625 -0.5625 3.0625 -1 1 C-0.67 0.67 -0.34 0.34 0 0 Z " fill="#FDCE54" transform="translate(18,49)"/>
<path d="M0 0 C1.32 0 2.64 0 4 0 C3.67 1.65 3.34 3.3 3 5 C2.01 5 1.02 5 0 5 C0 3.35 0 1.7 0 0 Z " fill="#7A77B6" transform="translate(32,5)"/>
</svg>
