<svg width="21" height="20" viewBox="0 0 21 20" fill="none" xmlns="http://www.w3.org/2000/svg">
<path fill-rule="evenodd" clip-rule="evenodd" d="M8.00004 3.75C8.13584 3.75003 8.26794 3.79429 8.37635 3.87608C8.48475 3.95788 8.56357 4.07275 8.60087 4.20333L9.27837 6.575C9.42425 7.08577 9.69791 7.55092 10.0735 7.92652C10.4491 8.30213 10.9143 8.57579 11.425 8.72167L13.7967 9.39917C13.9272 9.43655 14.042 9.5154 14.1237 9.6238C14.2054 9.7322 14.2496 9.86426 14.2496 10C14.2496 10.1357 14.2054 10.2678 14.1237 10.3762C14.042 10.4846 13.9272 10.5635 13.7967 10.6008L11.425 11.2783C10.9143 11.4242 10.4491 11.6979 10.0735 12.0735C9.69791 12.4491 9.42425 12.9142 9.27837 13.425L8.60087 15.7967C8.56349 15.9272 8.48464 16.0419 8.37624 16.1236C8.26784 16.2054 8.13578 16.2496 8.00004 16.2496C7.86429 16.2496 7.73224 16.2054 7.62384 16.1236C7.51544 16.0419 7.43659 15.9272 7.3992 15.7967L6.7217 13.425C6.57583 12.9142 6.30217 12.4491 5.92656 12.0735C5.55095 11.6979 5.0858 11.4242 4.57504 11.2783L2.20337 10.6008C2.07288 10.5635 1.9581 10.4846 1.87639 10.3762C1.79468 10.2678 1.75049 10.1357 1.75049 10C1.75049 9.86426 1.79468 9.7322 1.87639 9.6238C1.9581 9.5154 2.07288 9.43655 2.20337 9.39917L4.57504 8.72167C5.0858 8.57579 5.55095 8.30213 5.92656 7.92652C6.30217 7.55092 6.57583 7.08577 6.7217 6.575L7.3992 4.20333C7.43651 4.07275 7.51532 3.95788 7.62373 3.87608C7.73214 3.79429 7.86423 3.75003 8.00004 3.75ZM15.5 1.25C15.6395 1.24992 15.7749 1.29647 15.8848 1.38224C15.9948 1.46801 16.0729 1.58807 16.1067 1.72333L16.3217 2.58667C16.5184 3.37 17.13 3.98167 17.9134 4.17833L18.7767 4.39333C18.9122 4.4269 19.0326 4.50488 19.1186 4.61483C19.2047 4.72479 19.2514 4.86038 19.2514 5C19.2514 5.13962 19.2047 5.27521 19.1186 5.38517C19.0326 5.49512 18.9122 5.5731 18.7767 5.60667L17.9134 5.82167C17.13 6.01833 16.5184 6.63 16.3217 7.41333L16.1067 8.27667C16.0731 8.41219 15.9952 8.53257 15.8852 8.61861C15.7753 8.70465 15.6397 8.7514 15.5 8.7514C15.3604 8.7514 15.2248 8.70465 15.1149 8.61861C15.0049 8.53257 14.9269 8.41219 14.8934 8.27667L14.6784 7.41333C14.5822 7.02869 14.3833 6.67742 14.103 6.39706C13.8226 6.11671 13.4713 5.91782 13.0867 5.82167L12.2234 5.60667C12.0878 5.5731 11.9675 5.49512 11.8814 5.38517C11.7954 5.27521 11.7486 5.13962 11.7486 5C11.7486 4.86038 11.7954 4.72479 11.8814 4.61483C11.9675 4.50488 12.0878 4.4269 12.2234 4.39333L13.0867 4.17833C13.4713 4.08218 13.8226 3.88329 14.103 3.60294C14.3833 3.32258 14.5822 2.97131 14.6784 2.58667L14.8934 1.72333C14.9272 1.58807 15.0053 1.46801 15.1152 1.38224C15.2252 1.29647 15.3606 1.24992 15.5 1.25ZM14.25 12.5C14.3813 12.4999 14.5093 12.5412 14.6158 12.6179C14.7223 12.6946 14.8019 12.803 14.8434 12.9275L15.1717 13.9133C15.2967 14.2858 15.5884 14.5792 15.9617 14.7033L16.9475 15.0325C17.0717 15.0742 17.1796 15.1538 17.256 15.2601C17.3325 15.3664 17.3736 15.4941 17.3736 15.625C17.3736 15.7559 17.3325 15.8836 17.256 15.9899C17.1796 16.0962 17.0717 16.1758 16.9475 16.2175L15.9617 16.5467C15.5892 16.6717 15.2959 16.9633 15.1717 17.3367L14.8425 18.3225C14.8009 18.4466 14.7212 18.5546 14.6149 18.631C14.5086 18.7075 14.381 18.7486 14.25 18.7486C14.1191 18.7486 13.9915 18.7075 13.8851 18.631C13.7788 18.5546 13.6992 18.4466 13.6575 18.3225L13.3284 17.3367C13.267 17.1527 13.1637 16.9856 13.0265 16.8485C12.8894 16.7114 12.7223 16.6081 12.5384 16.5467L11.5525 16.2175C11.4284 16.1758 11.3205 16.0962 11.244 15.9899C11.1676 15.8836 11.1265 15.7559 11.1265 15.625C11.1265 15.4941 11.1676 15.3664 11.244 15.2601C11.3205 15.1538 11.4284 15.0742 11.5525 15.0325L12.5384 14.7033C12.9109 14.5783 13.2042 14.2867 13.3284 13.9133L13.6575 12.9275C13.699 12.8031 13.7785 12.6949 13.8848 12.6182C13.9911 12.5414 14.1189 12.5001 14.25 12.5Z" fill="#E5F2FF"/>
</svg>
