<svg width="40" height="40" viewBox="0 0 40 40" fill="none" xmlns="http://www.w3.org/2000/svg">
<g opacity="0.2">
<path d="M20 15C18.3424 15 16.7527 15.6585 15.5806 16.8306C14.4085 18.0027 13.75 19.5924 13.75 21.25C13.75 22.9076 14.4085 24.4973 15.5806 25.6694C16.7527 26.8415 18.3424 27.5 20 27.5C21.6576 27.5 23.2473 26.8415 24.4194 25.6694C25.5915 24.4973 26.25 22.9076 26.25 21.25C26.25 19.5924 25.5915 18.0027 24.4194 16.8306C23.2473 15.6585 21.6576 15 20 15Z" fill="#245B99"/>
<path fill-rule="evenodd" clip-rule="evenodd" d="M15.5733 5.1188C18.5223 4.9604 21.4777 4.9604 24.4267 5.1188C26.0383 5.20546 27.4767 6.0938 28.3133 7.43546L29.6817 9.63046C30.0817 10.2688 30.7567 10.7021 31.5317 10.8138C32.175 10.9038 32.815 11.0021 33.4517 11.1088C35.8383 11.5071 37.5 13.5971 37.5 15.9571V30.0005C37.5 31.3265 36.9732 32.5983 36.0355 33.536C35.0979 34.4737 33.8261 35.0005 32.5 35.0005H7.5C6.17392 35.0005 4.90215 34.4737 3.96447 33.536C3.02678 32.5983 2.5 31.3265 2.5 30.0005V15.9571C2.5 13.5971 4.16167 11.5071 6.54833 11.1088C7.185 11.0021 7.825 10.9038 8.46667 10.8121C8.84269 10.7618 9.20315 10.6298 9.52274 10.4254C9.84233 10.221 10.1133 9.94907 10.3167 9.6288L11.6867 7.43713C12.1008 6.76722 12.6703 6.20693 13.3468 5.80368C14.0233 5.40043 14.7871 5.16441 15.5733 5.1188ZM11.25 21.2505C11.25 18.9298 12.1719 16.7042 13.8128 15.0633C15.4538 13.4223 17.6794 12.5005 20 12.5005C22.3206 12.5005 24.5462 13.4223 26.1872 15.0633C27.8281 16.7042 28.75 18.9298 28.75 21.2505C28.75 23.5711 27.8281 25.7967 26.1872 27.4376C24.5462 29.0786 22.3206 30.0005 20 30.0005C17.6794 30.0005 15.4538 29.0786 13.8128 27.4376C12.1719 25.7967 11.25 23.5711 11.25 21.2505ZM31.25 18.7505C31.5815 18.7505 31.8995 18.6188 32.1339 18.3843C32.3683 18.1499 32.5 17.832 32.5 17.5005C32.5 17.1689 32.3683 16.851 32.1339 16.6166C31.8995 16.3822 31.5815 16.2505 31.25 16.2505C30.9185 16.2505 30.6005 16.3822 30.3661 16.6166C30.1317 16.851 30 17.1689 30 17.5005C30 17.832 30.1317 18.1499 30.3661 18.3843C30.6005 18.6188 30.9185 18.7505 31.25 18.7505Z" fill="#245B99"/>
</g>
</svg>
