<svg width="353" height="271" viewBox="0 0 353 271" fill="none" xmlns="http://www.w3.org/2000/svg">
<circle cx="176.5" cy="135.5" r="135.5" fill="#004A99" fill-opacity="0.05"/>
<rect x="177" y="41" width="39" height="39" rx="12" fill="#FEBB94"/>
<path d="M40.18 36H151.82C154.785 36 157.629 37.1864 159.725 39.2981C161.822 41.4098 163 44.274 163 47.2604V54H29V47.2604C29 44.274 30.1779 41.4098 32.2745 39.2981C34.3711 37.1864 37.2149 36 40.18 36Z" fill="#1C85E8"/>
<path d="M29 54H163V180.136C163 182.487 162.064 184.741 160.399 186.404C158.733 188.066 156.474 189 154.119 189H37.8815C35.5259 189 33.2669 188.066 31.6014 186.404C29.9356 184.741 29 182.487 29 180.136V54Z" fill="url(#paint0_linear_1319_70169)"/>
<path opacity="0.6" d="M97 165C122.405 165 143 144.181 143 118.5C143 92.8189 122.405 72 97 72C71.5947 72 51 92.8189 51 118.5C51 144.181 71.5947 165 97 165Z" stroke="white" stroke-width="30" stroke-miterlimit="10"/>
<path d="M41.5 48C42.8808 48 44 46.8807 44 45.4999C44 44.1193 42.8808 43 41.5 43C40.1192 43 39 44.1193 39 45.4999C39 46.8807 40.1192 48 41.5 48Z" fill="white"/>
<path d="M52.5 48C53.8808 48 55 46.8807 55 45.4999C55 44.1193 53.8808 43 52.5 43C51.1192 43 50 44.1193 50 45.4999C50 46.8807 51.1192 48 52.5 48Z" fill="white"/>
<path d="M63.0002 48C64.6568 48 66 46.8807 66 45.4999C66 44.1193 64.6568 43 63.0002 43C61.3432 43 60 44.1193 60 45.4999C60 46.8807 61.3432 48 63.0002 48Z" fill="white"/>
<path d="M185.264 91H297.739C300.724 91 303.589 92.1864 305.702 94.2981C307.815 96.4098 309 99.274 309 102.26V109H174V102.26C174 99.274 175.187 96.4098 177.299 94.2981C179.412 92.1864 182.276 91 185.264 91Z" fill="#1C85E8"/>
<path d="M174 109H309V236.07C309 238.438 308.059 240.71 306.381 242.384C304.704 244.059 302.427 245 300.054 245H182.948C180.575 245 178.299 244.059 176.621 242.384C174.943 240.71 174 238.438 174 236.07V109Z" fill="url(#paint1_linear_1319_70169)"/>
<path opacity="0.6" d="M248.5 223C274.183 223 295 202.181 295 176.5C295 150.819 274.183 130 248.5 130C222.819 130 202 150.819 202 176.5C202 202.181 222.819 223 248.5 223Z" stroke="white" stroke-width="30" stroke-miterlimit="10"/>
<path d="M186.5 103C187.881 103 189 101.657 189 99.9998C189 98.3432 187.881 97 186.5 97C185.119 97 184 98.3432 184 99.9998C184 101.657 185.119 103 186.5 103Z" fill="white"/>
<path d="M198 103C199.657 103 201 101.657 201 99.9998C201 98.3432 199.657 97 198 97C196.343 97 195 98.3432 195 99.9998C195 101.657 196.343 103 198 103Z" fill="white"/>
<path d="M208.5 103C209.881 103 211 101.657 211 99.9998C211 98.3432 209.881 97 208.5 97C207.119 97 206 98.3432 206 99.9998C206 101.657 207.119 103 208.5 103Z" fill="white"/>
<path d="M227.655 189L221 245H247.74L263 189.333L227.655 189Z" fill="#1F2D49"/>
<path d="M248.166 241L245 223.79L251.276 205H261L248.166 241Z" fill="#0D1B33"/>
<path d="M276.834 189C276.644 192.381 276.644 195.77 276.834 199.151C277.616 210.08 275.38 240.801 275.399 245H251.583C251.483 239.183 250 189.239 250 189.239L276.834 189Z" fill="#1F2D49"/>
<path d="M228 192.85L277 199V189.319L228.496 189L228 192.85Z" fill="#0D1B33"/>
<path d="M237.26 131.276C238.69 124.463 235.326 124.638 234.207 123.555C234.207 123.555 230.007 120.213 226.806 123.328C223.419 126.623 204 152.218 204 152.218L216.15 163L218.434 160.37L224.35 153.563L230.678 146.287L231.464 145.459L240 136.131C240 136.131 236.451 134.863 237.26 131.276Z" fill="#FEBB94"/>
<path d="M241.558 132.199C243.048 127.749 240.649 122.933 236.199 121.442C231.749 119.952 226.933 122.351 225.442 126.801C223.952 131.251 226.351 136.067 230.801 137.558C235.251 139.048 240.067 136.649 241.558 132.199Z" fill="#FEBB94"/>
<path d="M231.182 145.793C231.412 144.343 231.873 141.441 232.367 138.797L235 126C235 126 227.93 136.936 224.673 144.553C222.261 150.261 219.463 156.078 219 161L224.555 154.066L230.496 146.655L231.182 145.793Z" fill="#FF967C"/>
<path d="M207.83 119.244C207.194 113.331 208.83 113.044 208.852 109.838C208.864 106.706 213.674 100.906 211.38 101.023C209.085 101.14 207.474 103.296 207.474 103.296C207.134 100.486 207.709 95.8092 204.784 94.0443C201.86 92.2798 201.171 93.1339 198.79 93.8358C192.432 95.7557 195.981 104.029 196.046 106.65C196.103 108.3 199.055 114.472 199.188 115.611L200.128 120L207.83 119.244Z" fill="#FFCCB3"/>
<path d="M204 102V94" stroke="#E56441" stroke-width="1.20133" stroke-linecap="round"/>
<path d="M201 102L200 95" stroke="#E56441" stroke-width="1.20133" stroke-linecap="round"/>
<path d="M198 102L197 97" stroke="#E56441" stroke-width="1.20133" stroke-linecap="round"/>
<path d="M203 109C203.835 106.452 206 104 206 104L203 109Z" fill="#E56441"/>
<path d="M203 109C203.835 106.452 206 104 206 104" stroke="#E56441" stroke-width="1.20133" stroke-linecap="round"/>
<path d="M219 154.191L208.934 115.698C208.863 115.467 208.707 115.27 208.495 115.144C208.284 115.018 208.031 114.972 207.787 115.016L200.196 116.418C199.833 116.489 199.511 116.688 199.291 116.976C199.072 117.265 198.97 117.622 199.007 117.978L203.19 158L219 154.191Z" fill="#FEBB94"/>
<path d="M211 166C215.418 166 219 162.194 219 157.5C219 152.805 215.418 149 211 149C206.582 149 203 152.805 203 157.5C203 162.194 206.582 166 211 166Z" fill="#FEBB94"/>
<path d="M243.738 117C243.738 117 234.598 119.717 232.298 120.687C229.998 121.656 229.844 125.534 229.691 128.28C229.584 130.204 229.222 159.314 229.364 177.615C229.394 181.525 228.671 184.005 228.206 186.178C228.079 186.757 228.01 187.348 228 187.941C227.997 188.149 228.035 188.356 228.111 188.55C228.188 188.743 228.302 188.92 228.446 189.069C228.591 189.218 228.763 189.337 228.953 189.419C229.143 189.501 229.348 189.544 229.554 189.547L276.347 189.987C276.347 189.987 278.422 190.291 277.922 187.906C277.425 185.297 277.153 182.649 277.11 179.993C276.641 160.985 276.553 129.151 276.35 127.644C276.044 125.383 278.454 123.435 275.841 122.296L263.223 117.671L243.738 117Z" fill="#FEBB94"/>
<path d="M266.569 138.343C266.569 138.343 267.255 164.442 267.11 173.141C267.022 178.562 261.018 180.858 261 183.997C260.991 185.854 265.853 184.699 267.998 183.977C272.824 182.354 276 184.559 276 184.559L274.713 137L266.569 138.343Z" fill="#FF967C"/>
<path d="M245 107.676L248.025 121.889L249.094 122.906C249.094 122.906 248.671 123.362 249.886 122.265C252.753 119.68 260.302 116.53 259.991 115.515C259.543 114.06 258.245 105 258.245 105L245 107.676Z" fill="#FFCCB3"/>
<path d="M245.717 109H253L245 122L245.717 109Z" fill="#FF967C"/>
<path d="M266.577 102.43C268.695 97.1035 262.223 96.4279 261.104 96.3578C259.985 96.2873 260.734 87.6693 260.734 87.6693C260.734 87.6693 249.297 81.821 246.066 83.2147C246.066 83.2147 241.429 92.9571 239.238 99.4326C237.046 105.908 237.993 109.393 240.295 110.335C243.347 111.899 247.357 112.396 250.223 111.677C255.329 110.396 258.57 106.259 258.57 106.259C258.656 106.246 258.705 106.24 258.705 106.24C258.705 106.24 264.579 107.461 266.577 102.43Z" fill="#FFCCB3"/>
<path d="M263.203 107.294C267.478 104.307 271.072 100.968 271.752 96.7296C273.125 88.1897 268.34 86.1255 268.34 86.1255C271.523 80.0742 264.263 76.8054 260.518 75.5853C248.141 71.5529 240.595 75.9286 240.067 80.7241C239.844 82.7323 240.166 84.6143 241.183 86.1578C241.148 87.638 241.301 89.1163 241.638 90.5578L243.685 86.767C244.085 87.2816 244.611 87.6847 245.212 87.9372C251.935 91.1444 258.832 87.5891 258.832 87.5891C256.144 90.6994 256.125 97.5856 256.297 99.0239C256.546 101.098 257.827 99.5826 257.827 99.5826C259.088 97.544 263.774 96.0571 265 100.286C265.958 103.581 257.325 106.823 257.325 106.823L258.191 111.957C259.8 112.287 259.56 110.584 259.988 111.153C260.416 111.721 261.322 112.087 261.498 110.343C261.674 108.599 263.206 107.292 263.206 107.292L263.203 107.294Z" fill="#BC775C"/>
<path d="M249.892 97.321C250.064 96.7979 250.027 96.2304 249.81 96.0531C249.593 95.876 249.279 96.1562 249.108 96.6791C248.936 97.202 248.973 97.7695 249.19 97.9468C249.407 98.1241 249.721 97.8439 249.892 97.321Z" fill="#080B09"/>
<path d="M243.785 93.9813C244.127 93.197 244.053 92.3457 243.62 92.0798C243.186 91.8139 242.557 92.2345 242.215 93.0188C241.873 93.8031 241.947 94.6545 242.38 94.9204C242.814 95.1859 243.443 94.7656 243.785 93.9813Z" fill="#080B09"/>
<path d="M244.918 97C244.918 97 245.432 98.8349 243.885 98.535C242.421 98.2089 241.332 98.7058 242.48 100" stroke="#E56441" stroke-width="1.20133" stroke-linecap="round"/>
<path d="M242.175 102.005L242.179 102.006L242.183 102.007C242.811 102.119 244.065 102.343 244.895 102.499L244.896 102.499C244.923 102.504 244.947 102.513 244.965 102.524C244.983 102.536 244.994 102.549 244.998 102.564C245.003 102.579 244.998 102.594 244.987 102.607C244.976 102.62 244.959 102.632 244.937 102.64C244.694 102.72 244.381 102.813 244.05 102.884C243.715 102.956 243.372 103.004 243.067 103C242.768 102.996 242.509 102.942 242.322 102.81C242.13 102.675 241.999 102.449 242.003 102.086L242.003 102.08L242.001 102.075C241.998 102.064 242.001 102.052 242.009 102.041C242.017 102.03 242.031 102.021 242.049 102.014C242.066 102.007 242.087 102.002 242.11 102.001C242.132 101.999 242.155 102.001 242.175 102.005Z" fill="#E56441" stroke="#E56441"/>
<path d="M253.857 95.5314L253.752 95.6483C253.613 95.8322 253.405 95.9548 253.174 95.9899C252.943 96.0246 252.707 95.9692 252.518 95.8349L249.33 93.4449C249.171 93.3355 249.059 93.1716 249.018 92.9858C248.976 92.8 249.008 92.6059 249.106 92.4419C249.162 92.3386 249.239 92.2481 249.333 92.1758C249.427 92.1039 249.535 92.0521 249.651 92.0242C249.767 91.9961 249.888 91.9925 250.005 92.0134C250.123 92.0341 250.234 92.0791 250.333 92.1453L253.627 94.4182C253.718 94.4751 253.797 94.5497 253.858 94.6369C253.92 94.7244 253.962 94.823 253.984 94.927C254.005 95.031 254.005 95.1379 253.984 95.2416C253.962 95.3456 253.919 95.4442 253.857 95.5314Z" fill="#080B09"/>
<path d="M242.077 89.0286L246.287 89.98C246.411 90.0099 246.529 90.0697 246.631 90.1552C246.734 90.2412 246.82 90.3507 246.882 90.477C246.945 90.6033 246.984 90.7434 246.996 90.888C247.008 91.0326 246.993 91.1787 246.952 91.3162C246.895 91.5442 246.765 91.7389 246.588 91.8622C246.411 91.9855 246.2 92.0281 245.996 91.9817L241.772 91.2243C241.527 91.1727 241.31 91.0128 241.168 90.7789C241.027 90.545 240.971 90.2565 241.014 89.9762L241.029 89.7823C241.053 89.653 241.099 89.5304 241.165 89.4221C241.231 89.3133 241.315 89.2214 241.413 89.1508C241.511 89.0805 241.62 89.0335 241.734 89.0125C241.848 88.9916 241.965 88.9968 242.077 89.0286Z" fill="#080B09"/>
<path d="M261.847 139.006L231.563 141.624C230.622 141.705 229.925 142.532 230.007 143.471L233.302 181.441C233.384 182.38 234.213 183.075 235.153 182.994L265.436 180.376C266.379 180.295 267.076 179.468 266.993 178.529L263.699 140.559C263.617 139.62 262.787 138.925 261.847 139.006Z" fill="#1C85E8"/>
<path d="M235 146L247 145" stroke="white" stroke-width="5.04786" stroke-miterlimit="10" stroke-linecap="round"/>
<path d="M235 151L241 150" stroke="white" stroke-width="5.04786" stroke-miterlimit="10" stroke-linecap="round"/>
<path d="M276.119 129.644C271.6 123.883 269.569 126.642 267.979 126.783C267.979 126.783 262.6 127.803 263.024 132.435C263.472 137.337 271.388 170 271.388 170L288 168.729L287.211 164.225L285.591 154.948L283.864 145.029L283.707 143.848L281.765 130.799C281.765 130.799 278.461 132.721 276.119 129.644Z" fill="#FEBB94"/>
<path d="M277.469 139.595C281.941 136.85 283.338 131.001 280.596 126.53C277.851 122.06 272.001 120.66 267.529 123.405C263.061 126.15 261.66 131.999 264.405 136.47C267.15 140.94 272.998 142.34 277.469 139.595Z" fill="#FEBB94"/>
<path d="M236.434 172L226.377 172.789L224 178.701L224.812 186C224.812 186 226.543 185.256 226.722 182.675C226.901 180.093 234.907 181.925 237 179.089" fill="#FFCCB3"/>
<path d="M277.917 162L235.815 169.746C235.562 169.802 235.34 169.949 235.191 170.156C235.042 170.363 234.976 170.617 235.008 170.869L236.027 178.688C236.08 179.062 236.273 179.403 236.57 179.645C236.866 179.887 237.244 180.014 237.631 179.999L281 178.343L277.917 162Z" fill="#FEBB94"/>
<path d="M280.002 178C284.972 178 289 174.418 289 170C289 165.582 284.972 162 280.002 162C275.031 162 271 165.582 271 170C271 174.418 275.031 178 280.002 178Z" fill="#FEBB94"/>
<path d="M112.483 120L126.957 180.169L128 189H103.318L87 150.143L90.0144 121.029L112.483 120Z" fill="#1F2D49"/>
<path d="M97 174.424L100.757 144L102 186L97 174.424Z" fill="#0D1B33"/>
<path d="M72.918 119C72.918 119 66.2267 130.292 66.1389 139.748C66.0071 153.94 65 189 65 189H94.5229L100 144.085L92.0894 119H72.918Z" fill="#1F2D49"/>
<path d="M112.333 120L72.8381 120.389L69 128L113 122.701L112.333 120Z" fill="#0D1B33"/>
<path d="M157.481 56L159.542 51.6254C159.954 50.6172 160.599 49.724 161.423 49.0213C162.682 47.9862 164.56 46.1603 165.022 44.6524C165.806 42.2447 169.477 35.3935 164.224 31.8861C162.281 30.5932 162.762 30.8942 159.609 31.6534C156.457 32.4122 156.699 35.8434 155.594 38.373C155.594 38.373 154.69 35.944 152.691 35.1899C150.693 34.4358 153.385 41.176 152.622 44.1307C151.859 47.0851 153.165 47.8446 151 53.2198L157.481 56Z" fill="#FFCCB3"/>
<path d="M160 32L159 39" stroke="#E56441" stroke-width="1.20536" stroke-linecap="round"/>
<path d="M164 33L161 40" stroke="#E56441" stroke-width="1.20536" stroke-linecap="round"/>
<path d="M167 36L164 41" stroke="#E56441" stroke-width="1.20536" stroke-linecap="round"/>
<path d="M156 41C156 41 158.499 43.6759 159 46L156 41Z" fill="#E56441"/>
<path d="M156 41C156 41 158.499 43.6759 159 46" stroke="#E56441" stroke-width="1.20536" stroke-linecap="round"/>
<path d="M101 62.8607C104.185 62.1573 108.977 61.7594 111.23 63.2269L133.657 78.8705L151.163 50L159 54.3747L142.891 90.7126C140.522 96.9057 134.618 96.8129 131.01 94.7008L119.308 88.9289L101 62.8607Z" fill="#004A99"/>
<path d="M115.219 77.2169C115.219 77.2169 115.175 75.3592 119.529 82.5173L131 94L119.287 88.2403C108.579 83.9113 111.929 78.9312 115.219 77.2169Z" fill="#465393"/>
<path d="M101.359 58.4202C101.359 58.4202 109.36 61.5439 110.581 62.5083C111.803 63.4723 112.963 71.342 115.039 75.0786C117.116 78.8152 120.154 85.7119 115.717 92.0467C111.279 98.3815 111.751 103.412 111.751 103.412L112.609 119.822L74.4548 119.999C74.1182 120.009 73.7829 119.949 73.4714 119.822C73.1602 119.695 72.8795 119.505 72.6486 119.263C72.4173 119.021 72.241 118.733 72.1309 118.419C72.0205 118.105 71.9793 117.771 72.0097 117.44C72.4345 112.807 74.3755 106.3 74.528 98.923C74.7349 88.9245 74.8897 55.5158 74.8897 55.5158L91.5482 55C94.9037 55.5709 101.359 58.4202 101.359 58.4202Z" fill="#004A99"/>
<path d="M115 92C115 92 109.739 93.1112 105.372 93.3343C101.005 93.5574 103.275 96.8979 107.285 97.3083C111.295 97.7191 112.072 98 112.072 98C112.798 95.8914 113.781 93.8767 115 92Z" fill="#073D78"/>
<path d="M73.3359 106.168L72 113.638C72 113.638 72.8811 115.867 76.9913 117.234C81.1015 118.6 84.7867 118.19 87.1958 115.593C89.6052 112.995 98 101 98 101L73.3359 106.168Z" fill="#073D78"/>
<path d="M80.8729 69C80.8729 69 86.4518 74.0146 86.7801 77.7348C87.1082 81.4553 87.8671 91.8289 95.0365 92.8635C103.824 94.1317 106.125 95.3666 102.051 96.3371C97.9773 97.3078 88.7314 95.7351 88.7314 99.8957C88.7314 102.857 85.1391 105.072 83.3342 103.454C81.5293 101.837 67.1533 77.2496 80.8729 69Z" fill="#073D78"/>
<path d="M117.497 62L113 71.5727L121.139 75L126 64.1317L117.497 62Z" fill="#96BAFD"/>
<path d="M117 67L124 68.279L123.118 70L117 67.7782V67Z" fill="#96BAFD"/>
<path d="M120.335 51.267C118.2 50.4686 115.811 51.5211 114.998 53.6176L114.272 55.4917C113.459 57.5882 114.531 59.9349 116.665 60.733C118.8 61.5314 121.189 60.4788 122.002 58.3824L122.728 56.5083C123.541 54.4118 122.469 52.0651 120.335 51.267Z" fill="#1C85E8"/>
<path d="M130.258 53C141.534 57.5415 153 53.6975 153 53.6975L141.889 82C141.889 82 134.502 70.4358 124.835 66.8604C121.273 65.5432 130.258 53 130.258 53Z" fill="#96BAFD"/>
<path d="M150.906 69.2439C153.963 61.543 154.916 54.7433 153.035 54.0562C151.154 53.3694 147.151 59.0555 144.094 66.7564C141.037 74.4572 140.084 81.2569 141.965 81.9437C143.846 82.6308 147.849 76.9448 150.906 69.2439Z" fill="white"/>
<path d="M150.795 69.0653C153.726 61.3562 154.851 54.6297 153.308 54.0413C151.764 53.4526 148.136 59.2253 145.205 66.9344C142.274 74.6436 141.149 81.3701 142.692 81.9587C144.236 82.5471 147.863 76.7747 150.795 69.0653Z" fill="#1C85E8"/>
<path d="M124.572 51.2338L132 53.9487L126.824 67L119.396 64.2848C118.939 64.118 118.522 63.8665 118.167 63.5448C117.811 63.2231 117.525 62.837 117.326 62.4093C117.126 61.9816 117.016 61.5203 117.002 61.0516C116.987 60.5828 117.07 60.1162 117.244 59.6781L119.773 53.2999C119.947 52.8619 120.209 52.4608 120.544 52.1199C120.879 51.779 121.281 51.5044 121.727 51.3126C122.172 51.1207 122.653 51.0151 123.141 51.0015C123.629 50.9879 124.115 51.067 124.572 51.2338Z" fill="url(#paint2_linear_1319_70169)"/>
<path d="M126.601 54.6538L122.84 53.0457C122.52 52.909 122.162 53.0893 122.041 53.4485C121.919 53.8077 122.08 54.2095 122.399 54.3462L126.16 55.9543C126.48 56.091 126.838 55.9107 126.959 55.5515C127.081 55.1923 126.92 54.7905 126.601 54.6538Z" fill="white"/>
<path d="M124.601 57.1025L120.84 56.0305C120.52 55.9393 120.163 56.0595 120.041 56.299C119.919 56.5385 120.08 56.8063 120.399 56.8975L124.16 57.9695C124.48 58.0607 124.838 57.9405 124.959 57.701C125.081 57.4615 124.92 57.1937 124.601 57.1025Z" fill="white"/>
<path d="M146.43 63L146.956 63.1987C147.744 63.4964 148.374 64.058 148.718 64.7676C149.062 65.4771 149.092 66.2794 148.803 67.0085C148.647 67.3996 148.405 67.7574 148.09 68.0592C147.775 68.361 147.395 68.6 146.974 68.762C146.553 68.9239 146.099 69.0049 145.642 68.9998C145.184 68.9947 144.733 68.9034 144.316 68.7322L144 68.6023C144 68.6023 144.936 65.3292 146.43 63Z" fill="url(#paint3_linear_1319_70169)"/>
<path d="M108 78.224L111.506 74.064C111.506 74.064 111.188 70.374 111.506 68.965C111.825 67.5562 111.824 66.9522 112.717 66.2141C113.61 65.4763 116.351 64 116.351 64V67.3546L124.614 69.7365C124.614 69.7365 125.822 71.7563 123.966 72.8598C125 74.5002 123.725 75.8662 123.725 75.8662C123.725 75.8662 124.38 77.742 122.755 78.1007C122.755 78.1007 123.044 79.5072 121.286 80.1019C121.286 80.1019 120.763 81.0245 118.667 81.3004C118.09 81.3762 116.351 81.5413 116.351 81.5413L113.036 85L108 78.224Z" fill="#FFCCB3"/>
<path d="M108 77.4691L115.19 83L116 82.3099L108.484 77L108 77.4691Z" fill="#FCBA9F"/>
<path d="M124 73C124 73 121.963 72.649 121 72L124 73Z" fill="#E56441"/>
<path d="M124 73C124 73 121.963 72.649 121 72" stroke="#E56441" stroke-width="1.20536" stroke-linecap="round"/>
<path d="M123 76C123 76 121.642 76 121 76" stroke="#E56441" stroke-width="1.20536" stroke-linecap="round"/>
<path d="M123 78C123 78 120.963 77.649 120 77L123 78Z" fill="#E56441"/>
<path d="M123 78C123 78 120.963 77.649 120 77" stroke="#E56441" stroke-width="1.20536" stroke-linecap="round"/>
<path d="M121 80C121 80 118.963 80 118 80" stroke="#E56441" stroke-width="1.20536" stroke-linecap="round"/>
<path d="M82.5744 63.8889C82.5744 63.8889 80.9084 54.7845 73.4131 56.137C68.3879 57.044 66.4194 59.7685 67.1461 67.0313C67.6537 72.109 71.4411 94.7546 72.8029 104.006C74.2005 113.5 82.8963 115.175 88.7658 110.453L116 83.9966L107.619 76.7116L86.5602 93.5441L82.5744 63.8889Z" fill="#004A99"/>
<path fill-rule="evenodd" clip-rule="evenodd" d="M108.819 62.0401L101.39 58.6953C100.058 65.4933 100.627 64.0566 99.7093 64.5683C99.7093 64.5683 91.8713 64.8768 89.8515 55L81.2472 55.2948C81.2472 55.2948 78.8334 62.0919 89.0911 65.3917C87.4776 69.3748 93.1514 76.1881 100.397 68.5117C105.418 76.2418 108.792 69.0314 106.368 66.2327C109.992 64.0537 108.819 62.0401 108.819 62.0401Z" fill="white"/>
<path d="M102 49.9999L101.556 62.5359C101.556 62.5359 102.164 65.2812 99.3682 64.9764C96.5724 64.6719 92.8086 62.4535 90.6927 60.0168C88.5771 57.5804 88.7213 57.3849 89.6279 55.7859C90.5347 54.1869 94.7922 42 94.7922 42L102 49.9999Z" fill="#FFCCB3"/>
<path d="M102 51.1309L97 48C97 48 99.2153 57.5606 101.631 62L102 51.1309Z" fill="#FCBA9F"/>
<path d="M95.9769 17.2279C96.1206 14.8676 95.5923 12.5147 94.4501 10.4287C92.56 7.09982 88.6343 2.49587 82.6729 4.47908C76.7115 6.46228 72.3497 10.9244 74.6034 17.2279C76.857 23.5315 83.1178 25.5487 86.3078 24.8771C89.4978 24.2055 95.9769 17.2279 95.9769 17.2279Z" fill="#493212"/>
<path d="M98 17.6807C97.6598 17.0721 97.1504 16.5901 96.5419 16.3005C95.9333 16.0109 95.2551 15.9281 94.6002 16.063C92.2623 16.52 89.8015 18.477 87.7095 20.8259C85.6176 23.1744 85.6856 24.8789 86.636 25.9187C87.5864 26.9582 98 17.6807 98 17.6807Z" fill="#1C85E8"/>
<path d="M114.987 32.4541C114.987 32.4541 113.735 44.4867 107.847 49.9657C104.007 53.5389 100.487 52.6235 95.2369 45.4726C90.4231 38.9161 90 35.7274 90 35.7274L95.0872 24.3456C95.0872 24.3456 115.586 21.4442 114.987 32.4541Z" fill="#FFCCB3"/>
<path d="M112.786 30.0285C112.786 30.0285 109.947 34.6978 104.747 34.7734C104.747 34.7734 101.613 37.8075 96.8364 36.2113C96.8364 36.2113 98.9102 32.9609 96.8364 31.822C93.3148 29.8881 92.1017 36.3369 93.9798 38.583C95.2561 40.1093 95.3287 42.8764 94.3765 44.4656C93.4243 46.0547 92.0493 49 92.0493 49C92.0493 49 89.2866 46.6668 87.8273 45.0648C82.7514 39.4924 81.9214 26.356 90.3068 20.0867C98.6918 13.817 107.519 18.8327 109.173 20.0867C109.173 20.0867 117.984 21.6765 118 31.1436C118.013 39.237 112.438 41.1626 112.438 41.1626L114.102 34.6295C114.102 34.6295 113.073 34.7436 112.786 30.0285Z" fill="#493212"/>
<path d="M103.054 46L108 47.3607C107.978 47.3748 107.953 47.3902 107.926 47.4063C107.774 47.4975 107.551 47.6155 107.272 47.7222C106.714 47.9346 105.947 48.097 105.046 47.9328C103.659 47.5989 103.188 47.0818 103.05 46.6539C102.979 46.4362 102.995 46.2382 103.028 46.0945C103.036 46.0593 103.045 46.0278 103.054 46Z" fill="#E56441" stroke="#E56441"/>
<path d="M112.939 41.1652C113.128 40.6208 112.861 40.1052 112.342 40.0139C111.823 39.9227 111.249 40.2902 111.061 40.835C110.872 41.3794 111.139 41.8949 111.658 41.9861C112.177 42.0774 112.75 41.7097 112.939 41.1652Z" fill="#080B09"/>
<path d="M105.939 39.7479C106.128 38.9311 105.861 38.1579 105.342 38.0208C104.823 37.8841 104.249 38.4353 104.061 39.2524C103.872 40.0691 104.139 40.8424 104.658 40.9791C105.177 41.1162 105.751 40.5646 105.939 39.7479Z" fill="#080B09"/>
<path d="M113.715 37.9898L110.178 36.9997C110.119 36.9769 110.069 36.9287 110.037 36.8638C110.005 36.7993 109.993 36.7229 110.004 36.6483C110.043 36.5217 110.103 36.4058 110.18 36.3081C110.257 36.2104 110.35 36.1324 110.452 36.0795C110.554 36.0266 110.664 35.9996 110.776 36C110.887 36 110.997 36.0278 111.099 36.0815L113.872 37.514C114.103 37.5835 114.003 38.0767 113.715 37.9898Z" fill="#080B09"/>
<path d="M103.088 35.1745L106.98 36C107.006 35.9178 107.007 35.8328 106.981 35.7504C106.955 35.6682 106.905 35.5903 106.832 35.522C106.76 35.4537 106.666 35.3965 106.559 35.3541C106.452 35.3117 106.333 35.2849 106.209 35.2755L103.099 35.0011C103.002 34.9848 102.941 35.15 103.088 35.1745Z" fill="#080B09"/>
<path d="M108.621 40L109 43.4173L108 44" stroke="#E56441" stroke-width="1.22499" stroke-linecap="round"/>
<path d="M158.975 199H33.0251C30.8022 199 29 200.788 29 202.993V242.007C29 244.212 30.8022 246 33.0251 246H158.975C161.198 246 163 244.212 163 242.007V202.993C163 200.788 161.198 199 158.975 199Z" fill="#1C85E8"/>
<path d="M70.1931 222H73.8087C74.1246 221.999 74.4278 221.894 74.651 221.707C74.8745 221.519 75 221.265 75 221C75 220.735 74.8745 220.481 74.651 220.294C74.4278 220.106 74.1246 220.001 73.8087 220H70.1931C69.8765 220 69.5733 220.105 69.3494 220.293C69.1255 220.48 69 220.735 69 221C69 221.265 69.1255 221.52 69.3494 221.707C69.5733 221.895 69.8765 222 70.1931 222Z" fill="white"/>
<path d="M64 211.001C64 210.841 63.9609 210.683 63.8853 210.54C63.8098 210.397 63.7003 210.275 63.5665 210.182C63.4324 210.09 63.2776 210.03 63.1155 210.009C62.9533 209.987 62.788 210.005 62.6339 210.059L43.4796 216.827H39.0205C38.7498 216.827 38.4902 216.932 38.2991 217.12C38.1076 217.308 38 217.563 38 217.828V223.896C38 224.162 38.1076 224.417 38.2991 224.605C38.4902 224.792 38.7498 224.898 39.0205 224.898H42.6373V232.998C42.6373 233.13 42.6638 233.261 42.715 233.382C42.7661 233.503 42.8414 233.614 42.936 233.707C43.031 233.8 43.1435 233.874 43.2672 233.924C43.3911 233.974 43.5237 234 43.6578 234H49.0677C49.2018 234 49.3347 233.974 49.4583 233.924C49.5822 233.874 49.6948 233.8 49.7894 233.707C49.8841 233.614 49.9593 233.503 50.0105 233.382C50.062 233.26 50.0882 233.13 50.0882 232.998V227.233L62.6339 231.665C62.788 231.72 62.9533 231.737 63.1155 231.716C63.2776 231.694 63.4324 231.635 63.5662 231.542C63.7003 231.45 63.8098 231.327 63.8853 231.184C63.9605 231.042 64 230.884 64 230.723V211.001ZM40.041 222.895V218.83H42.6373V222.895H40.041ZM48.0475 231.997H44.6783V225.321L48.0475 226.511V231.997ZM44.6783 223.192V218.532L61.9593 212.427V229.298L44.6783 223.192Z" fill="white"/>
<path d="M70.6668 229.057L68.9428 227.333C68.8372 227.228 68.7117 227.144 68.5735 227.087C68.4356 227.029 68.2877 227 68.1381 227C67.9886 227 67.8407 227.029 67.7025 227.087C67.5646 227.144 67.4391 227.228 67.3332 227.333C67.2276 227.439 67.1437 227.564 67.0867 227.702C67.0296 227.84 67 227.989 67 228.138C67 228.287 67.0296 228.436 67.0867 228.573C67.1437 228.712 67.2276 228.837 67.3332 228.943L69.0572 230.667C69.1632 230.772 69.2883 230.856 69.4265 230.913C69.5648 230.97 69.7126 231 69.8622 231C70.0114 231 70.1596 230.97 70.2975 230.913C70.4357 230.856 70.5612 230.772 70.6668 230.667C70.7724 230.561 70.8563 230.435 70.9133 230.298C70.9708 230.159 71 230.011 71 229.862C71 229.713 70.9708 229.564 70.9133 229.427C70.8563 229.288 70.7724 229.163 70.6668 229.057Z" fill="white"/>
<path d="M67.3332 214.75C67.5467 214.91 67.8362 215 68.1381 215C68.44 215 68.7296 214.91 68.9428 214.75L70.6668 213.457C70.8803 213.297 71 213.08 71 212.854C71 212.627 70.8803 212.41 70.6668 212.25C70.4533 212.09 70.1638 212 69.8619 212C69.5603 212 69.2708 212.09 69.0572 212.25L67.3332 213.543C67.12 213.703 67 213.92 67 214.147C67 214.373 67.12 214.59 67.3332 214.75Z" fill="white"/>
<path d="M87 212H108" stroke="white" stroke-width="14.8881" stroke-miterlimit="10" stroke-linecap="round"/>
<path d="M87 234H126" stroke="white" stroke-width="14.8881" stroke-miterlimit="10" stroke-linecap="round"/>
<path opacity="0.4" d="M87 224H136" stroke="white" stroke-width="14.8881" stroke-miterlimit="10" stroke-linecap="round"/>
<path d="M321.684 137H298.313C297.036 137 296 138.038 296 139.318V160.682C296 161.962 297.036 163 298.313 163H321.684C322.964 163 324 161.962 324 160.682V139.318C324 138.038 322.964 137 321.684 137Z" fill="#1C85E8"/>
<path d="M201.517 62.9433C200.857 62.9433 200.207 63.0902 199.611 63.3732C199.014 63.6568 198.487 64.0695 198.067 64.5825L192.712 61.5121C193.056 60.5334 193.056 59.4649 192.712 58.4869L198.066 55.4151C198.782 56.2852 199.794 56.8525 200.904 57.0063C202.013 57.1595 203.139 56.8882 204.06 56.2447C204.981 55.6012 205.63 54.6329 205.879 53.53C206.127 52.4271 205.959 51.2706 205.405 50.2872C204.851 49.3044 203.953 48.5662 202.888 48.2187C201.822 47.8712 200.666 47.9399 199.648 48.4103C198.63 48.8807 197.823 49.7199 197.387 50.761C196.951 51.8028 196.916 52.9717 197.291 54.0375L191.936 57.1093C191.348 56.3917 190.554 55.8753 189.664 55.6301C188.774 55.3849 187.831 55.4227 186.963 55.7386C186.095 56.0545 185.346 56.6334 184.815 57.3957C184.285 58.158 184 59.0673 184 59.9992C184 60.9304 184.285 61.8396 184.815 62.6026C185.345 63.3649 186.095 63.9432 186.963 64.2598C187.831 64.5757 188.774 64.6135 189.664 64.3683C190.554 64.1231 191.348 63.6066 191.936 62.889L197.291 65.9602C196.973 66.866 196.949 67.8508 197.223 68.7717C197.496 69.6926 198.052 70.5016 198.811 71.0819C199.57 71.6622 200.492 71.9836 201.444 71.9994C202.395 72.0145 203.327 71.724 204.105 71.1691C204.882 70.6142 205.464 69.8245 205.767 68.9132C206.07 68.0019 206.078 67.0164 205.79 66.1002C205.501 65.1841 204.932 64.3841 204.164 63.8168C203.396 63.2489 202.469 62.9433 201.517 62.9433ZM201.517 49.5805C202.094 49.5805 202.657 49.7529 203.137 50.077C203.617 50.4005 203.99 50.8599 204.211 51.3983C204.432 51.9367 204.49 52.5287 204.377 53.1001C204.264 53.6715 203.986 54.1962 203.579 54.6075C203.171 55.0196 202.652 55.2998 202.086 55.4138C201.52 55.5271 200.934 55.4687 200.401 55.2462C199.868 55.023 199.413 54.6453 199.093 54.1611C198.773 53.6763 198.602 53.107 198.602 52.5246C198.603 51.7444 198.91 50.9959 199.457 50.4438C200.003 49.8916 200.744 49.5812 201.517 49.5805ZM188.487 62.9433C187.911 62.9433 187.347 62.7709 186.868 62.4474C186.388 62.124 186.015 61.6639 185.794 61.1261C185.573 60.5884 185.515 59.9964 185.628 59.425C185.741 58.8537 186.018 58.329 186.425 57.9176C186.833 57.5056 187.353 57.2254 187.918 57.1114C188.483 56.9981 189.069 57.0564 189.602 57.2789C190.135 57.5021 190.59 57.8792 190.911 58.3633C191.231 58.8475 191.401 59.4168 191.401 59.9992C191.401 60.7793 191.093 61.5279 190.547 62.08C190.001 62.6315 189.26 62.9419 188.487 62.9433ZM201.517 70.4172C200.94 70.4172 200.377 70.2448 199.897 69.9213C199.417 69.5979 199.044 69.1377 198.823 68.6C198.602 68.0616 198.544 67.4696 198.657 66.8982C198.77 66.3269 199.047 65.8022 199.455 65.3908C199.862 64.9788 200.382 64.6979 200.947 64.5846C201.513 64.4713 202.099 64.529 202.632 64.7521C203.164 64.9753 203.62 65.3524 203.94 65.8372C204.26 66.3214 204.431 66.8907 204.431 67.4731C204.43 68.2539 204.123 69.0018 203.576 69.5539C203.03 70.1054 202.289 70.4158 201.517 70.4172Z" fill="white"/>
<path d="M301 153L305.201 149.658C305.476 149.44 305.849 149.317 306.235 149.317C306.624 149.317 306.997 149.44 307.272 149.658L310.557 152.272C310.832 152.49 311.205 152.613 311.594 152.613C311.98 152.613 312.353 152.49 312.628 152.272L318 148" stroke="white" stroke-width="5.16228" stroke-miterlimit="10" stroke-linecap="round"/>
<path d="M316 147H318.565C318.68 147 318.792 147.05 318.874 147.139C318.955 147.228 319 147.349 319 147.475V150" stroke="white" stroke-width="5.16228" stroke-miterlimit="10" stroke-linecap="round"/>
<path d="M251.665 97.9499C252.355 96.3787 251.945 94.68 250.749 94.1553C249.554 93.6306 248.025 94.4787 247.335 96.0499C246.645 97.621 247.055 99.32 248.25 99.8447C249.446 100.369 250.975 99.521 251.665 97.9499Z" stroke="#080B09" stroke-miterlimit="10"/>
<path d="M244.665 94.9501C245.355 93.379 244.945 91.68 243.75 91.1553C242.554 90.6305 241.025 91.479 240.335 93.0501C239.645 94.6213 240.055 96.32 241.251 96.8447C242.446 97.3694 243.975 96.5213 244.665 94.9501Z" stroke="#080B09" stroke-miterlimit="10"/>
<path d="M245 95.0001C245 95.0001 246.306 94.9715 247 96" stroke="#080B09" stroke-miterlimit="10"/>
<path d="M252 98H260" stroke="#080B09" stroke-miterlimit="10"/>
<path d="M101 68C101 68 101 75.252 101 81" stroke="#96BAFD" stroke-miterlimit="10"/>
<path fill-rule="evenodd" clip-rule="evenodd" d="M250.219 118.511C257.012 114.498 258.139 112 258.139 112L261 117.23L253.064 122.872C252.747 122.08 252.358 121.315 251.902 120.586L249.668 122.265L250.219 118.511ZM242 117.196L244.93 115.127C244.93 115.127 244.7 117.044 247.734 118.348L247.986 121.908L246.517 120.564L244.562 123L242 117.196Z" fill="#1C85E8"/>
<path d="M250 122L250.493 118L252 120.211L250 122Z" fill="#1C85E8"/>
<path d="M247.828 118L247 120.49L248 122L247.828 118Z" fill="#1C85E8"/>
<path d="M248 122L248.79 134.299C248.801 134.471 248.858 134.633 248.952 134.759C249.046 134.884 249.171 134.967 249.306 134.992C249.395 135.008 249.486 135 249.572 134.967C249.658 134.933 249.737 134.876 249.804 134.799C249.87 134.723 249.922 134.628 249.956 134.523C249.99 134.418 250.004 134.305 249.999 134.191L249.437 122.407L248.825 123.099L248 122Z" fill="#1C85E8"/>
<path d="M252 128C252.552 128 253 127.552 253 127C253 126.448 252.552 126 252 126C251.447 126 251 126.448 251 127C251 127.552 251.447 128 252 128Z" fill="#1C85E8"/>
<path d="M253 133C253.552 133 254 132.553 254 132C254 131.448 253.552 131 253 131C252.447 131 252 131.448 252 132C252 132.553 252.447 133 253 133Z" fill="#1C85E8"/>
<defs>
<linearGradient id="paint0_linear_1319_70169" x1="92.664" y1="53.6789" x2="123.923" y2="339.859" gradientUnits="userSpaceOnUse">
<stop stop-color="white"/>
<stop offset="1" stop-color="#94B9FF"/>
</linearGradient>
<linearGradient id="paint1_linear_1319_70169" x1="238.14" y1="108.677" x2="269.628" y2="396.976" gradientUnits="userSpaceOnUse">
<stop stop-color="white"/>
<stop offset="1" stop-color="#94B9FF"/>
</linearGradient>
<linearGradient id="paint2_linear_1319_70169" x1="126.289" y1="51.8259" x2="119.782" y2="80.8526" gradientUnits="userSpaceOnUse">
<stop stop-color="white"/>
<stop offset="1" stop-color="#94B9FF"/>
</linearGradient>
<linearGradient id="paint3_linear_1319_70169" x1="146.376" y1="62.9856" x2="148.022" y2="75.6424" gradientUnits="userSpaceOnUse">
<stop stop-color="white"/>
<stop offset="1" stop-color="#94B9FF"/>
</linearGradient>
</defs>
</svg>
