<svg width="24" height="24" viewBox="0 0 24 24" fill="none" xmlns="http://www.w3.org/2000/svg">
<path d="M12 9C11.0054 9 10.0516 9.39509 9.34835 10.0983C8.64509 10.8016 8.25 11.7554 8.25 12.75C8.25 13.7446 8.64509 14.6984 9.34835 15.4017C10.0516 16.1049 11.0054 16.5 12 16.5C12.9946 16.5 13.9484 16.1049 14.6517 15.4017C15.3549 14.6984 15.75 13.7446 15.75 12.75C15.75 11.7554 15.3549 10.8016 14.6517 10.0983C13.9484 9.39509 12.9946 9 12 9Z" fill="#245B99"/>
<path fill-rule="evenodd" clip-rule="evenodd" d="M9.344 3.07128C11.1134 2.97624 12.8866 2.97624 14.656 3.07128C15.623 3.12328 16.486 3.65628 16.988 4.46128L17.809 5.77828C18.049 6.16128 18.454 6.42128 18.919 6.48828C19.305 6.54228 19.689 6.60128 20.071 6.66528C21.503 6.90428 22.5 8.15828 22.5 9.57428V18.0003C22.5 18.7959 22.1839 19.559 21.6213 20.1216C21.0587 20.6842 20.2956 21.0003 19.5 21.0003H4.5C3.70435 21.0003 2.94129 20.6842 2.37868 20.1216C1.81607 19.559 1.5 18.7959 1.5 18.0003V9.57428C1.5 8.15828 2.497 6.90428 3.929 6.66528C4.311 6.60128 4.695 6.54228 5.08 6.48728C5.30561 6.45708 5.52189 6.37788 5.71364 6.25522C5.9054 6.13257 6.06799 5.96944 6.19 5.77728L7.012 4.46228C7.2605 4.06033 7.60216 3.72416 8.00808 3.48221C8.414 3.24026 8.87223 3.09865 9.344 3.07128ZM6.75 12.7503C6.75 11.3579 7.30312 10.0225 8.28769 9.03797C9.27225 8.0534 10.6076 7.50028 12 7.50028C13.3924 7.50028 14.7277 8.0534 15.7123 9.03797C16.6969 10.0225 17.25 11.3579 17.25 12.7503C17.25 14.1427 16.6969 15.478 15.7123 16.4626C14.7277 17.4472 13.3924 18.0003 12 18.0003C10.6076 18.0003 9.27225 17.4472 8.28769 16.4626C7.30312 15.478 6.75 14.1427 6.75 12.7503ZM18.75 11.2503C18.9489 11.2503 19.1397 11.1713 19.2803 11.0306C19.421 10.89 19.5 10.6992 19.5 10.5003C19.5 10.3014 19.421 10.1106 19.2803 9.96995C19.1397 9.8293 18.9489 9.75028 18.75 9.75028C18.5511 9.75028 18.3603 9.8293 18.2197 9.96995C18.079 10.1106 18 10.3014 18 10.5003C18 10.6992 18.079 10.89 18.2197 11.0306C18.3603 11.1713 18.5511 11.2503 18.75 11.2503Z" fill="#245B99"/>
</svg>
